  0
SECTION
  2
HEADER
  9
$ACADVER
  1
AC1024
  9
$ACADMAINTVER
 70
6
  9
$DWGCODEPAGE
  3
ANSI_1252
  9
$LASTSAVEDBY
  1
ezdxf
  9
$INSBASE
 10
0.0
 20
0.0
 30
0.0
  9
$EXTMIN
 10
1e+20
 20
1e+20
 30
1e+20
  9
$EXTMAX
 10
-1e+20
 20
-1e+20
 30
-1e+20
  9
$LIMMIN
 10
0.0
 20
0.0
  9
$LIMMAX
 10
420.0
 20
297.0
  9
$ORTHOMODE
 70
0
  9
$REGENMODE
 70
1
  9
$FILLMODE
 70
1
  9
$QTEXTMODE
 70
0
  9
$MIRRTEXT
 70
1
  9
$LTSCALE
 40
1.0
  9
$ATTMODE
 70
1
  9
$TEXTSIZE
 40
2.5
  9
$TRACEWID
 40
1.0
  9
$TEXTSTYLE
  7
OpenSans
  9
$CLAYER
  8
0
  9
$CELTYPE
  6
ByLayer
  9
$CECOLOR
 62
256
  9
$CELTSCALE
 40
1.0
  9
$DISPSILH
 70
0
  9
$DIMSCALE
 40
1.0
  9
$DIMASZ
 40
0.175
  9
$DIMEXO
 40
0.125
  9
$DIMDLI
 40
3.75
  9
$DIMRND
 40
0.0
  9
$DIMDLE
 40
0.0
  9
$DIMEXE
 40
0.375
  9
$DIMTP
 40
0.0
  9
$DIMTM
 40
0.0
  9
$DIMTXT
 40
0.25
  9
$DIMCEN
 40
2.5
  9
$DIMTSZ
 40
0.0
  9
$DIMTOL
 70
0
  9
$DIMLIM
 70
0
  9
$DIMTIH
 70
0
  9
$DIMTOH
 70
0
  9
$DIMSE1
 70
0
  9
$DIMSE2
 70
0
  9
$DIMTAD
 70
1
  9
$DIMZIN
 70
12
  9
$DIMBLK
  1
ARCHTICK
  9
$DIMASO
 70
1
  9
$DIMSHO
 70
1
  9
$DIMPOST
  1

  9
$DIMAPOST
  1

  9
$DIMALT
 70
0
  9
$DIMALTD
 70
3
  9
$DIMALTF
 40
0.03937007874
  9
$DIMLFAC
 40
100.0
  9
$DIMTOFL
 70
1
  9
$DIMTVP
 40
0.0
  9
$DIMTIX
 70
0
  9
$DIMSOXD
 70
0
  9
$DIMSAH
 70
0
  9
$DIMBLK1
  1

  9
$DIMBLK2
  1

  9
$DIMSTYLE
  2
EZDXF
  9
$DIMCLRD
 70
0
  9
$DIMCLRE
 70
0
  9
$DIMCLRT
 70
0
  9
$DIMTFAC
 40
0.5
  9
$DIMGAP
 40
0.1
  9
$DIMJUST
 70
0
  9
$DIMSD1
 70
0
  9
$DIMSD2
 70
0
  9
$DIMTOLJ
 70
0
  9
$DIMTZIN
 70
8
  9
$DIMALTZ
 70
0
  9
$DIMALTTZ
 70
0
  9
$DIMUPT
 70
1
  9
$DIMDEC
 70
2
  9
$DIMTDEC
 70
2
  9
$DIMALTU
 70
2
  9
$DIMALTTD
 70
3
  9
$DIMTXSTY
  7
OpenSansCondensed-Light
  9
$DIMAUNIT
 70
0
  9
$DIMADEC
 70
2
  9
$DIMALTRND
 40
0.0
  9
$DIMAZIN
 70
3
  9
$DIMDSEP
 70
46
  9
$DIMATFIT
 70
3
  9
$DIMFRAC
 70
0
  9
$DIMLDRBLK
  1

  9
$DIMLUNIT
 70
2
  9
$DIMLWD
 70
-2
  9
$DIMLWE
 70
-2
  9
$DIMTMOVE
 70
2
  9
$DIMFXL
 40
1.0
  9
$DIMFXLON
 70
0
  9
$DIMJOGANG
 40
0.785398163397
  9
$DIMTFILL
 70
0
  9
$DIMTFILLCLR
 70
0
  9
$DIMARCSYM
 70
0
  9
$DIMLTYPE
  6

  9
$DIMLTEX1
  6

  9
$DIMLTEX2
  6

  9
$DIMTXTDIRECTION
 70
0
  9
$LUNITS
 70
2
  9
$LUPREC
 70
4
  9
$SKETCHINC
 40
1.0
  9
$FILLETRAD
 40
10.0
  9
$AUNITS
 70
0
  9
$AUPREC
 70
2
  9
$MENU
  1
.
  9
$ELEVATION
 40
0.0
  9
$PELEVATION
 40
0.0
  9
$THICKNESS
 40
0.0
  9
$LIMCHECK
 70
0
  9
$CHAMFERA
 40
0.0
  9
$CHAMFERB
 40
0.0
  9
$CHAMFERC
 40
0.0
  9
$CHAMFERD
 40
0.0
  9
$SKPOLY
 70
0
  9
$TDCREATE
 40
2461187.818229167
  9
$TDUCREATE
 40
2458532.153996898
  9
$TDUPDATE
 40
2461187.818229167
  9
$TDUUPDATE
 40
2458532.1544311
  9
$TDINDWG
 40
0.0
  9
$TDUSRTIMER
 40
0.0
  9
$USRTIMER
 70
1
  9
$ANGBASE
 50
0.0
  9
$ANGDIR
 70
0
  9
$PDMODE
 70
0
  9
$PDSIZE
 40
0.0
  9
$PLINEWID
 40
0.0
  9
$SPLFRAME
 70
0
  9
$SPLINETYPE
 70
6
  9
$SPLINESEGS
 70
8
  9
$HANDSEED
  5
99
  9
$SURFTAB1
 70
6
  9
$SURFTAB2
 70
6
  9
$SURFTYPE
 70
6
  9
$SURFU
 70
6
  9
$SURFV
 70
6
  9
$UCSBASE
  2

  9
$UCSNAME
  2

  9
$UCSORG
 10
0.0
 20
0.0
 30
0.0
  9
$UCSXDIR
 10
1.0
 20
0.0
 30
0.0
  9
$UCSYDIR
 10
0.0
 20
1.0
 30
0.0
  9
$UCSORTHOREF
  2

  9
$UCSORTHOVIEW
 70
0
  9
$UCSORGTOP
 10
0.0
 20
0.0
 30
0.0
  9
$UCSORGBOTTOM
 10
0.0
 20
0.0
 30
0.0
  9
$UCSORGLEFT
 10
0.0
 20
0.0
 30
0.0
  9
$UCSORGRIGHT
 10
0.0
 20
0.0
 30
0.0
  9
$UCSORGFRONT
 10
0.0
 20
0.0
 30
0.0
  9
$UCSORGBACK
 10
0.0
 20
0.0
 30
0.0
  9
$PUCSBASE
  2

  9
$PUCSNAME
  2

  9
$PUCSORG
 10
0.0
 20
0.0
 30
0.0
  9
$PUCSXDIR
 10
1.0
 20
0.0
 30
0.0
  9
$PUCSYDIR
 10
0.0
 20
1.0
 30
0.0
  9
$PUCSORTHOREF
  2

  9
$PUCSORTHOVIEW
 70
0
  9
$PUCSORGTOP
 10
0.0
 20
0.0
 30
0.0
  9
$PUCSORGBOTTOM
 10
0.0
 20
0.0
 30
0.0
  9
$PUCSORGLEFT
 10
0.0
 20
0.0
 30
0.0
  9
$PUCSORGRIGHT
 10
0.0
 20
0.0
 30
0.0
  9
$PUCSORGFRONT
 10
0.0
 20
0.0
 30
0.0
  9
$PUCSORGBACK
 10
0.0
 20
0.0
 30
0.0
  9
$USERI1
 70
0
  9
$USERI2
 70
0
  9
$USERI3
 70
0
  9
$USERI4
 70
0
  9
$USERI5
 70
0
  9
$USERR1
 40
0.0
  9
$USERR2
 40
0.0
  9
$USERR3
 40
0.0
  9
$USERR4
 40
0.0
  9
$USERR5
 40
0.0
  9
$WORLDVIEW
 70
1
  9
$SHADEDGE
 70
3
  9
$SHADEDIF
 70
70
  9
$TILEMODE
 70
1
  9
$MAXACTVP
 70
64
  9
$PINSBASE
 10
0.0
 20
0.0
 30
0.0
  9
$PLIMCHECK
 70
0
  9
$PEXTMIN
 10
1e+20
 20
1e+20
 30
1e+20
  9
$PEXTMAX
 10
-1e+20
 20
-1e+20
 30
-1e+20
  9
$PLIMMIN
 10
0.0
 20
0.0
  9
$PLIMMAX
 10
420.0
 20
297.0
  9
$UNITMODE
 70
0
  9
$VISRETAIN
 70
1
  9
$PLINEGEN
 70
0
  9
$PSLTSCALE
 70
1
  9
$TREEDEPTH
 70
3020
  9
$CMLSTYLE
  2
Standard
  9
$CMLJUST
 70
0
  9
$CMLSCALE
 40
20.0
  9
$PROXYGRAPHICS
 70
1
  9
$MEASUREMENT
 70
1
  9
$CELWEIGHT
370
-1
  9
$ENDCAPS
280
0
  9
$JOINSTYLE
280
0
  9
$LWDISPLAY
290
0
  9
$INSUNITS
 70
4
  9
$HYPERLINKBASE
  1

  9
$STYLESHEET
  1

  9
$XEDIT
290
1
  9
$CEPSNTYPE
380
0
  9
$PSTYLEMODE
290
1
  9
$FINGERPRINTGUID
  2
{62B048FD-E9D2-49C8-AACB-0718A0165832}
  9
$VERSIONGUID
  2
{C514AB66-01C1-4CB1-9F7D-3A09875CA61B}
  9
$EXTNAMES
290
1
  9
$PSVPSCALE
 40
0.0
  9
$OLESTARTUP
290
0
  9
$SORTENTS
280
127
  9
$INDEXCTL
280
0
  9
$HIDETEXT
280
1
  9
$XCLIPFRAME
280
1
  9
$HALOGAP
280
0
  9
$OBSCOLOR
 70
257
  9
$OBSLTYPE
280
0
  9
$INTERSECTIONDISPLAY
280
0
  9
$INTERSECTIONCOLOR
 70
257
  9
$DIMASSOC
280
2
  9
$PROJECTNAME
  1

  9
$CAMERADISPLAY
290
0
  9
$LENSLENGTH
 40
50.0
  9
$CAMERAHEIGHT
 40
0.0
  9
$STEPSPERSEC
 40
24.0
  9
$STEPSIZE
 40
100.0
  9
$3DDWFPREC
 40
2.0
  9
$PSOLWIDTH
 40
0.005
  9
$PSOLHEIGHT
 40
0.08
  9
$LOFTANG1
 40
1.570796326795
  9
$LOFTANG2
 40
1.570796326795
  9
$LOFTMAG1
 40
0.0
  9
$LOFTMAG2
 40
0.0
  9
$LOFTPARAM
 70
7
  9
$LOFTNORMALS
280
1
  9
$LATITUDE
 40
37.795
  9
$LONGITUDE
 40
-122.394
  9
$NORTHDIRECTION
 40
0.0
  9
$TIMEZONE
 70
-8000
  9
$LIGHTGLYPHDISPLAY
280
1
  9
$TILEMODELIGHTSYNCH
280
1
  9
$CMATERIAL
347
20
  9
$SOLIDHIST
280
0
  9
$SHOWHIST
280
1
  9
$DWFFRAME
280
2
  9
$DGNFRAME
280
2
  9
$REALWORLDSCALE
290
1
  9
$INTERFERECOLOR
 62
256
  9
$CSHADOW
280
0
  9
$SHADOWPLANELOCATION
 40
0.0
  0
ENDSEC
  0
SECTION
  2
CLASSES
  0
CLASS
  1
ACDBDICTIONARYWDFLT
  2
AcDbDictionaryWithDefault
  3
ObjectDBX Classes
 90
0
 91
0
280
0
281
0
  0
CLASS
  1
SUN
  2
AcDbSun
  3
SCENEOE
 90
1153
 91
0
280
0
281
0
  0
CLASS
  1
VISUALSTYLE
  2
AcDbVisualStyle
  3
ObjectDBX Classes
 90
4095
 91
0
280
0
281
0
  0
CLASS
  1
MATERIAL
  2
AcDbMaterial
  3
ObjectDBX Classes
 90
1153
 91
0
280
0
281
0
  0
CLASS
  1
SCALE
  2
AcDbScale
  3
ObjectDBX Classes
 90
1153
 91
0
280
0
281
0
  0
CLASS
  1
TABLESTYLE
  2
AcDbTableStyle
  3
ObjectDBX Classes
 90
4095
 91
0
280
0
281
0
  0
CLASS
  1
MLEADERSTYLE
  2
AcDbMLeaderStyle
  3
ACDB_MLEADERSTYLE_CLASS
 90
4095
 91
0
280
0
281
0
  0
CLASS
  1
DICTIONARYVAR
  2
AcDbDictionaryVar
  3
ObjectDBX Classes
 90
0
 91
0
280
0
281
0
  0
CLASS
  1
CELLSTYLEMAP
  2
AcDbCellStyleMap
  3
ObjectDBX Classes
 90
1152
 91
0
280
0
281
0
  0
CLASS
  1
MENTALRAYRENDERSETTINGS
  2
AcDbMentalRayRenderSettings
  3
SCENEOE
 90
1024
 91
0
280
0
281
0
  0
CLASS
  1
ACDBDETAILVIEWSTYLE
  2
AcDbDetailViewStyle
  3
ObjectDBX Classes
 90
1025
 91
0
280
0
281
0
  0
CLASS
  1
ACDBSECTIONVIEWSTYLE
  2
AcDbSectionViewStyle
  3
ObjectDBX Classes
 90
1025
 91
0
280
0
281
0
  0
CLASS
  1
RASTERVARIABLES
  2
AcDbRasterVariables
  3
ISM
 90
0
 91
0
280
0
281
0
  0
CLASS
  1
ACDBPLACEHOLDER
  2
AcDbPlaceHolder
  3
ObjectDBX Classes
 90
0
 91
0
280
0
281
0
  0
CLASS
  1
LAYOUT
  2
AcDbLayout
  3
ObjectDBX Classes
 90
0
 91
0
280
0
281
0
  0
ENDSEC
  0
SECTION
  2
TABLES
  0
TABLE
  2
VPORT
  5
8
330
0
100
AcDbSymbolTable
 70
1
  0
VPORT
  5
23
330
8
100
AcDbSymbolTableRecord
100
AcDbViewportTableRecord
  2
*Active
 70
0
 10
0.0
 20
0.0
 11
1.0
 21
1.0
 12
0.0
 22
0.0
 13
0.0
 23
0.0
 14
0.5
 24
0.5
 15
0.5
 25
0.5
 16
0.0
 26
0.0
 36
1.0
 17
0.0
 27
0.0
 37
0.0
 40
1000.0
 41
1.34
 42
50.0
 43
0.0
 44
0.0
 50
0.0
 51
0.0
 71
0
 72
1000
 73
1
 74
3
 75
0
 76
0
 77
0
 78
0
281
0
 65
0
146
0.0
  0
ENDTAB
  0
TABLE
  2
LTYPE
  5
2
330
0
100
AcDbSymbolTable
 70
21
  0
LTYPE
  5
24
330
2
100
AcDbSymbolTableRecord
100
AcDbLinetypeTableRecord
  2
ByBlock
 70
0
  3

 72
65
 73
0
 40
0.0
  0
LTYPE
  5
25
330
2
100
AcDbSymbolTableRecord
100
AcDbLinetypeTableRecord
  2
ByLayer
 70
0
  3

 72
65
 73
0
 40
0.0
  0
LTYPE
  5
26
330
2
100
AcDbSymbolTableRecord
100
AcDbLinetypeTableRecord
  2
Continuous
 70
0
  3

 72
65
 73
0
 40
0.0
  0
LTYPE
  5
2F
330
2
100
AcDbSymbolTableRecord
100
AcDbLinetypeTableRecord
  2
CENTER
 70
0
  3
Center ____ _ ____ _ ____ _ ____ _ ____ _ ____
 72
65
 73
4
 40
5.08
 49
3.175
 74
0
 49
-0.635
 74
0
 49
0.635
 74
0
 49
-0.635
 74
0
  0
LTYPE
  5
30
330
2
100
AcDbSymbolTableRecord
100
AcDbLinetypeTableRecord
  2
CENTERX2
 70
0
  3
Center (2x) ________  __  ________  __  ________
 72
65
 73
4
 40
8.89
 49
6.35
 74
0
 49
-0.635
 74
0
 49
1.27
 74
0
 49
-0.635
 74
0
  0
LTYPE
  5
31
330
2
100
AcDbSymbolTableRecord
100
AcDbLinetypeTableRecord
  2
CENTER2
 70
0
  3
Center (.5x) ____ _ ____ _ ____ _ ____ _ ____
 72
65
 73
4
 40
2.54
 49
1.587
 74
0
 49
-0.318
 74
0
 49
0.318
 74
0
 49
-0.318
 74
0
  0
LTYPE
  5
32
330
2
100
AcDbSymbolTableRecord
100
AcDbLinetypeTableRecord
  2
DASHED
 70
0
  3
Dashed __ __ __ __ __ __ __ __ __ __ __ __ __ _
 72
65
 73
2
 40
1.524
 49
1.27
 74
0
 49
-0.254
 74
0
  0
LTYPE
  5
33
330
2
100
AcDbSymbolTableRecord
100
AcDbLinetypeTableRecord
  2
DASHEDX2
 70
0
  3
Dashed (2x) ____  ____  ____  ____  ____  ____
 72
65
 73
2
 40
3.048
 49
2.54
 74
0
 49
-0.508
 74
0
  0
LTYPE
  5
34
330
2
100
AcDbSymbolTableRecord
100
AcDbLinetypeTableRecord
  2
DASHED2
 70
0
  3
Dashed (.5x) _ _ _ _ _ _ _ _ _ _ _ _ _ _
 72
65
 73
2
 40
0.762
 49
0.635
 74
0
 49
-0.127
 74
0
  0
LTYPE
  5
35
330
2
100
AcDbSymbolTableRecord
100
AcDbLinetypeTableRecord
  2
PHANTOM
 70
0
  3
Phantom ______  __  __  ______  __  __  ______
 72
65
 73
6
 40
6.35
 49
3.175
 74
0
 49
-0.635
 74
0
 49
0.635
 74
0
 49
-0.635
 74
0
 49
0.635
 74
0
 49
-0.635
 74
0
  0
LTYPE
  5
36
330
2
100
AcDbSymbolTableRecord
100
AcDbLinetypeTableRecord
  2
PHANTOMX2
 70
0
  3
Phantom (2x)____________    ____    ____    ____________
 72
65
 73
6
 40
10.795
 49
6.35
 74
0
 49
-0.635
 74
0
 49
1.27
 74
0
 49
-0.635
 74
0
 49
1.27
 74
0
 49
-0.635
 74
0
  0
LTYPE
  5
37
330
2
100
AcDbSymbolTableRecord
100
AcDbLinetypeTableRecord
  2
PHANTOM2
 70
0
  3
Phantom (.5x) ___ _ _ ___ _ _ ___ _ _ ___ _ _ ___
 72
65
 73
6
 40
3.175
 49
1.587
 74
0
 49
-0.318
 74
0
 49
0.318
 74
0
 49
-0.318
 74
0
 49
0.318
 74
0
 49
-0.318
 74
0
  0
LTYPE
  5
38
330
2
100
AcDbSymbolTableRecord
100
AcDbLinetypeTableRecord
  2
DASHDOT
 70
0
  3
Dash dot __ . __ . __ . __ . __ . __ . __ . __
 72
65
 73
4
 40
3.556
 49
2.54
 74
0
 49
-0.508
 74
0
 49
0.0
 74
0
 49
-0.508
 74
0
  0
LTYPE
  5
39
330
2
100
AcDbSymbolTableRecord
100
AcDbLinetypeTableRecord
  2
DASHDOTX2
 70
0
  3
Dash dot (2x) ____  .  ____  .  ____  .  ____
 72
65
 73
4
 40
6.096
 49
5.08
 74
0
 49
-0.508
 74
0
 49
0.0
 74
0
 49
-0.508
 74
0
  0
LTYPE
  5
3A
330
2
100
AcDbSymbolTableRecord
100
AcDbLinetypeTableRecord
  2
DASHDOT2
 70
0
  3
Dash dot (.5x) _ . _ . _ . _ . _ . _ . _ . _
 72
65
 73
4
 40
1.778
 49
1.27
 74
0
 49
-0.254
 74
0
 49
0.0
 74
0
 49
-0.254
 74
0
  0
LTYPE
  5
3B
330
2
100
AcDbSymbolTableRecord
100
AcDbLinetypeTableRecord
  2
DOT
 70
0
  3
Dot .  .  .  .  .  .  .  .  .  .  .  .  .  .  .  .
 72
65
 73
2
 40
0.508
 49
0.0
 74
0
 49
-0.508
 74
0
  0
LTYPE
  5
3C
330
2
100
AcDbSymbolTableRecord
100
AcDbLinetypeTableRecord
  2
DOTX2
 70
0
  3
Dot (2x) .    .    .    .    .    .    .    . 
 72
65
 73
2
 40
1.016
 49
0.0
 74
0
 49
-1.016
 74
0
  0
LTYPE
  5
3D
330
2
100
AcDbSymbolTableRecord
100
AcDbLinetypeTableRecord
  2
DOT2
 70
0
  3
Dot (.5) . . . . . . . . . . . . . . . . . . . 
 72
65
 73
2
 40
0.254
 49
0.0
 74
0
 49
-0.254
 74
0
  0
LTYPE
  5
3E
330
2
100
AcDbSymbolTableRecord
100
AcDbLinetypeTableRecord
  2
DIVIDE
 70
0
  3
Divide __ . . __ . . __ . . __ . . __ . . __
 72
65
 73
6
 40
4.064
 49
2.54
 74
0
 49
-0.508
 74
0
 49
0.0
 74
0
 49
-0.508
 74
0
 49
0.0
 74
0
 49
-0.508
 74
0
  0
LTYPE
  5
3F
330
2
100
AcDbSymbolTableRecord
100
AcDbLinetypeTableRecord
  2
DIVIDEX2
 70
0
  3
Divide (2x) ____  . .  ____  . .  ____  . .  ____
 72
65
 73
6
 40
6.604
 49
5.08
 74
0
 49
-0.508
 74
0
 49
0.0
 74
0
 49
-0.508
 74
0
 49
0.0
 74
0
 49
-0.508
 74
0
  0
LTYPE
  5
40
330
2
100
AcDbSymbolTableRecord
100
AcDbLinetypeTableRecord
  2
DIVIDE2
 70
0
  3
Divide(.5x) _ . _ . _ . _ . _ . _ . _ . _
 72
65
 73
6
 40
2.032
 49
1.27
 74
0
 49
-0.254
 74
0
 49
0.0
 74
0
 49
-0.254
 74
0
 49
0.0
 74
0
 49
-0.254
 74
0
  0
ENDTAB
  0
TABLE
  2
LAYER
  5
1
330
0
100
AcDbSymbolTable
 70
5
  0
LAYER
  5
27
330
1
100
AcDbSymbolTableRecord
100
AcDbLayerTableRecord
  2
0
 70
0
 62
7
  6
Continuous
370
-3
390
13
347
21
  0
LAYER
  5
28
330
1
100
AcDbSymbolTableRecord
100
AcDbLayerTableRecord
  2
Defpoints
 70
0
 62
7
  6
Continuous
290
0
370
-3
390
13
347
21
  0
LAYER
  5
8A
330
1
100
AcDbSymbolTableRecord
100
AcDbLayerTableRecord
  2
PROFILE
 70
0
 62
7
  6
Continuous
370
-3
390
13
347
21
  0
LAYER
  5
8B
330
1
100
AcDbSymbolTableRecord
100
AcDbLayerTableRecord
  2
REFERENCE
 70
0
 62
8
  6
Continuous
370
-3
390
13
347
21
  0
LAYER
  5
8C
330
1
100
AcDbSymbolTableRecord
100
AcDbLayerTableRecord
  2
AXIS
 70
0
 62
8
  6
Continuous
370
-3
390
13
347
21
  0
ENDTAB
  0
TABLE
  2
STYLE
  5
5
330
0
100
AcDbSymbolTable
 70
26
  0
STYLE
  5
29
330
5
100
AcDbSymbolTableRecord
100
AcDbTextStyleTableRecord
  2
Standard
 70
0
 40
0.0
 41
1.0
 50
0.0
 71
0
 42
2.5
  3
txt
  4

  0
STYLE
  5
41
330
5
100
AcDbSymbolTableRecord
100
AcDbTextStyleTableRecord
  2
OpenSans-Light
 70
0
 40
0.0
 41
1.0
 50
0.0
 71
0
 42
2.5
  3
OpenSans-Light.ttf
  4

  0
STYLE
  5
42
330
5
100
AcDbSymbolTableRecord
100
AcDbTextStyleTableRecord
  2
OpenSans-Light-Italic
 70
0
 40
0.0
 41
1.0
 50
0.0
 71
0
 42
2.5
  3
OpenSans-LightItalic.ttf
  4

  0
STYLE
  5
43
330
5
100
AcDbSymbolTableRecord
100
AcDbTextStyleTableRecord
  2
OpenSans
 70
0
 40
0.0
 41
1.0
 50
0.0
 71
0
 42
2.5
  3
OpenSans-Regular.ttf
  4

  0
STYLE
  5
44
330
5
100
AcDbSymbolTableRecord
100
AcDbTextStyleTableRecord
  2
OpenSans-Italic
 70
0
 40
0.0
 41
1.0
 50
0.0
 71
0
 42
2.5
  3
OpenSans-Italic.ttf
  4

  0
STYLE
  5
45
330
5
100
AcDbSymbolTableRecord
100
AcDbTextStyleTableRecord
  2
OpenSans-SemiBold
 70
0
 40
0.0
 41
1.0
 50
0.0
 71
0
 42
2.5
  3
OpenSans-SemiBold.ttf
  4

  0
STYLE
  5
46
330
5
100
AcDbSymbolTableRecord
100
AcDbTextStyleTableRecord
  2
OpenSans-SemiBoldItalic
 70
0
 40
0.0
 41
1.0
 50
0.0
 71
0
 42
2.5
  3
OpenSans-SemiBoldItalic.ttf
  4

  0
STYLE
  5
47
330
5
100
AcDbSymbolTableRecord
100
AcDbTextStyleTableRecord
  2
OpenSans-Bold
 70
0
 40
0.0
 41
1.0
 50
0.0
 71
0
 42
2.5
  3
OpenSans-Bold.ttf
  4

  0
STYLE
  5
48
330
5
100
AcDbSymbolTableRecord
100
AcDbTextStyleTableRecord
  2
OpenSans-BoldItalic
 70
0
 40
0.0
 41
1.0
 50
0.0
 71
0
 42
2.5
  3
OpenSans-BoldItalic.ttf
  4

  0
STYLE
  5
49
330
5
100
AcDbSymbolTableRecord
100
AcDbTextStyleTableRecord
  2
OpenSans-ExtraBold
 70
0
 40
0.0
 41
1.0
 50
0.0
 71
0
 42
2.5
  3
OpenSans-ExtraBold.ttf
  4

  0
STYLE
  5
4A
330
5
100
AcDbSymbolTableRecord
100
AcDbTextStyleTableRecord
  2
OpenSans-ExtraBoldItalic
 70
0
 40
0.0
 41
1.0
 50
0.0
 71
0
 42
2.5
  3
OpenSans-ExtraBoldItalic.ttf
  4

  0
STYLE
  5
4B
330
5
100
AcDbSymbolTableRecord
100
AcDbTextStyleTableRecord
  2
OpenSansCondensed-Bold
 70
0
 40
0.0
 41
1.0
 50
0.0
 71
0
 42
2.5
  3
OpenSansCondensed-Bold.ttf
  4

  0
STYLE
  5
4C
330
5
100
AcDbSymbolTableRecord
100
AcDbTextStyleTableRecord
  2
OpenSansCondensed-Light
 70
0
 40
0.0
 41
1.0
 50
0.0
 71
0
 42
2.5
  3
OpenSansCondensed-Light.ttf
  4

  0
STYLE
  5
4D
330
5
100
AcDbSymbolTableRecord
100
AcDbTextStyleTableRecord
  2
OpenSansCondensed-Italic
 70
0
 40
0.0
 41
1.0
 50
0.0
 71
0
 42
2.5
  3
OpenSansCondensed-LightItalic.ttf
  4

  0
STYLE
  5
4E
330
5
100
AcDbSymbolTableRecord
100
AcDbTextStyleTableRecord
  2
LiberationSans
 70
0
 40
0.0
 41
1.0
 50
0.0
 71
0
 42
2.5
  3
LiberationSans-Regular.ttf
  4

  0
STYLE
  5
4F
330
5
100
AcDbSymbolTableRecord
100
AcDbTextStyleTableRecord
  2
LiberationSans-Bold
 70
0
 40
0.0
 41
1.0
 50
0.0
 71
0
 42
2.5
  3
LiberationSans-Bold.ttf
  4

  0
STYLE
  5
50
330
5
100
AcDbSymbolTableRecord
100
AcDbTextStyleTableRecord
  2
LiberationSans-BoldItalic
 70
0
 40
0.0
 41
1.0
 50
0.0
 71
0
 42
2.5
  3
LiberationSans-BoldItalic.ttf
  4

  0
STYLE
  5
51
330
5
100
AcDbSymbolTableRecord
100
AcDbTextStyleTableRecord
  2
LiberationSans-Italic
 70
0
 40
0.0
 41
1.0
 50
0.0
 71
0
 42
2.5
  3
LiberationSans-Italic.ttf
  4

  0
STYLE
  5
52
330
5
100
AcDbSymbolTableRecord
100
AcDbTextStyleTableRecord
  2
LiberationSerif
 70
0
 40
0.0
 41
1.0
 50
0.0
 71
0
 42
2.5
  3
LiberationSerif-Regular.ttf
  4

  0
STYLE
  5
53
330
5
100
AcDbSymbolTableRecord
100
AcDbTextStyleTableRecord
  2
LiberationSerif-Bold
 70
0
 40
0.0
 41
1.0
 50
0.0
 71
0
 42
2.5
  3
LiberationSerif-Bold.ttf
  4

  0
STYLE
  5
54
330
5
100
AcDbSymbolTableRecord
100
AcDbTextStyleTableRecord
  2
LiberationSerif-BoldItalic
 70
0
 40
0.0
 41
1.0
 50
0.0
 71
0
 42
2.5
  3
LiberationSerif-BoldItalic.ttf
  4

  0
STYLE
  5
55
330
5
100
AcDbSymbolTableRecord
100
AcDbTextStyleTableRecord
  2
LiberationSerif-Italic
 70
0
 40
0.0
 41
1.0
 50
0.0
 71
0
 42
2.5
  3
LiberationSerif-Italic.ttf
  4

  0
STYLE
  5
56
330
5
100
AcDbSymbolTableRecord
100
AcDbTextStyleTableRecord
  2
LiberationMono
 70
0
 40
0.0
 41
1.0
 50
0.0
 71
0
 42
2.5
  3
LiberationMono-Regular.ttf
  4

  0
STYLE
  5
57
330
5
100
AcDbSymbolTableRecord
100
AcDbTextStyleTableRecord
  2
LiberationMono-Bold
 70
0
 40
0.0
 41
1.0
 50
0.0
 71
0
 42
2.5
  3
LiberationMono-Bold.ttf
  4

  0
STYLE
  5
58
330
5
100
AcDbSymbolTableRecord
100
AcDbTextStyleTableRecord
  2
LiberationMono-BoldItalic
 70
0
 40
0.0
 41
1.0
 50
0.0
 71
0
 42
2.5
  3
LiberationMono-BoldItalic.ttf
  4

  0
STYLE
  5
59
330
5
100
AcDbSymbolTableRecord
100
AcDbTextStyleTableRecord
  2
LiberationMono-Italic
 70
0
 40
0.0
 41
1.0
 50
0.0
 71
0
 42
2.5
  3
LiberationMono-Italic.ttf
  4

  0
ENDTAB
  0
TABLE
  2
VIEW
  5
7
330
0
100
AcDbSymbolTable
 70
0
  0
ENDTAB
  0
TABLE
  2
UCS
  5
6
330
0
100
AcDbSymbolTable
 70
0
  0
ENDTAB
  0
TABLE
  2
APPID
  5
3
330
0
100
AcDbSymbolTable
 70
3
  0
APPID
  5
2A
330
3
100
AcDbSymbolTableRecord
100
AcDbRegAppTableRecord
  2
ACAD
 70
0
  0
APPID
  5
96
330
3
100
AcDbSymbolTableRecord
100
AcDbRegAppTableRecord
  2
HATCHBACKGROUNDCOLOR
 70
0
  0
APPID
  5
97
330
3
100
AcDbSymbolTableRecord
100
AcDbRegAppTableRecord
  2
EZDXF
 70
0
  0
ENDTAB
  0
TABLE
  2
DIMSTYLE
  5
4
330
0
100
AcDbSymbolTable
 70
12
100
AcDbDimStyleTable
  0
DIMSTYLE
105
2B
330
4
100
AcDbSymbolTableRecord
100
AcDbDimStyleTableRecord
  2
Standard
 70
0
 40
1.0
 41
2.5
 42
0.625
 43
3.75
 44
1.25
 45
0.0
 46
0.0
 47
0.0
 48
0.0
 49
2.5
140
2.5
141
2.5
142
0.0
143
0.03937007874
144
1.0
145
0.0
146
1.0
147
0.625
148
0.0
 69
0
 70
0
 71
0
 72
0
 73
0
 74
0
 75
0
 76
0
 77
1
 78
8
 79
3
170
0
171
3
172
1
173
0
174
0
175
0
176
0
177
0
178
0
179
2
271
2
272
2
273
2
274
3
275
0
276
0
277
2
278
44
279
0
280
0
281
0
282
0
283
0
284
8
285
0
286
0
288
0
289
3
290
0
371
-2
372
-2
  0
DIMSTYLE
105
73
330
4
100
AcDbSymbolTableRecord
100
AcDbDimStyleTableRecord
  2
EZDXF
 70
0
 40
1.0
 41
0.175
 42
0.125
 43
3.75
 44
0.375
 45
0.0
 46
0.0
 47
0.0
 48
0.0
 49
2.5
140
0.25
141
2.5
142
0.0
143
0.03937007874
144
100.0
145
0.0
146
0.5
147
0.1
148
0.0
 69
0
 70
0
 71
0
 72
0
 73
0
 74
0
 75
0
 76
0
 77
1
 78
12
 79
3
170
0
171
3
172
1
173
0
174
0
175
0
176
0
177
0
178
0
179
2
271
2
272
2
273
2
274
3
275
0
276
0
277
2
278
46
279
2
280
0
281
0
282
0
283
0
284
8
285
0
286
0
288
1
289
3
290
0
340
4C
342
74
371
-2
372
-2
  0
DIMSTYLE
105
7C
330
4
100
AcDbSymbolTableRecord
100
AcDbDimStyleTableRecord
  2
EZ_M_100_H25_CM
 70
0
 40
1.0
 41
0.25
 42
0.125
 43
3.75
 44
0.375
 45
0.0
 46
0.0
 47
0.0
 48
0.0
 49
2.5
140
0.25
141
2.5
142
0.125
143
0.03937007874
144
100.0
145
0.0
146
0.5
147
0.1
148
0.0
 69
0
 70
0
 71
0
 72
0
 73
0
 74
0
 75
0
 76
0
 77
1
 78
12
 79
3
170
0
171
3
172
1
173
0
174
0
175
0
176
0
177
0
178
0
179
2
271
2
272
2
273
2
274
3
275
0
276
0
277
2
278
46
279
2
280
0
281
0
282
0
283
0
284
8
285
0
286
0
288
1
289
3
290
0
340
4C
371
-2
372
-2
  0
DIMSTYLE
105
7D
330
4
100
AcDbSymbolTableRecord
100
AcDbDimStyleTableRecord
  2
EZ_M_50_H25_CM
 70
0
 40
1.0
 41
0.125
 42
0.0625
 43
3.75
 44
0.1875
 45
0.0
 46
0.0
 47
0.0
 48
0.0
 49
2.5
140
0.125
141
2.5
142
0.0625
143
0.03937007874
144
100.0
145
0.0
146
0.5
147
0.05
148
0.0
 69
0
 70
0
 71
0
 72
0
 73
0
 74
0
 75
0
 76
0
 77
1
 78
12
 79
3
170
0
171
3
172
1
173
0
174
0
175
0
176
0
177
0
178
0
179
2
271
2
272
2
273
2
274
3
275
0
276
0
277
2
278
46
279
2
280
0
281
0
282
0
283
0
284
8
285
0
286
0
288
1
289
3
290
0
340
4C
371
-2
372
-2
  0
DIMSTYLE
105
7E
330
4
100
AcDbSymbolTableRecord
100
AcDbDimStyleTableRecord
  2
EZ_M_25_H25_CM
 70
0
 40
1.0
 41
0.0625
 42
0.03125
 43
3.75
 44
0.09375
 45
0.0
 46
0.0
 47
0.0
 48
0.0
 49
2.5
140
0.0625
141
2.5
142
0.03125
143
0.03937007874
144
100.0
145
0.0
146
0.5
147
0.025
148
0.0
 69
0
 70
0
 71
0
 72
0
 73
0
 74
0
 75
0
 76
0
 77
1
 78
12
 79
3
170
0
171
3
172
1
173
0
174
0
175
0
176
0
177
0
178
0
179
2
271
2
272
2
273
2
274
3
275
0
276
0
277
2
278
46
279
2
280
0
281
0
282
0
283
0
284
8
285
0
286
0
288
1
289
3
290
0
340
4C
371
-2
372
-2
  0
DIMSTYLE
105
7F
330
4
100
AcDbSymbolTableRecord
100
AcDbDimStyleTableRecord
  2
EZ_M_20_H25_CM
 70
0
 40
1.0
 41
0.05
 42
0.025
 43
3.75
 44
0.07500000000000001
 45
0.0
 46
0.0
 47
0.0
 48
0.0
 49
2.5
140
0.05
141
2.5
142
0.025
143
0.03937007874
144
100.0
145
0.0
146
0.5
147
0.020000000000000004
148
0.0
 69
0
 70
0
 71
0
 72
0
 73
0
 74
0
 75
0
 76
0
 77
1
 78
12
 79
3
170
0
171
3
172
1
173
0
174
0
175
0
176
0
177
0
178
0
179
2
271
2
272
2
273
2
274
3
275
0
276
0
277
2
278
46
279
2
280
0
281
0
282
0
283
0
284
8
285
0
286
0
288
1
289
3
290
0
340
4C
371
-2
372
-2
  0
DIMSTYLE
105
80
330
4
100
AcDbSymbolTableRecord
100
AcDbDimStyleTableRecord
  2
EZ_M_10_H25_CM
 70
0
 40
1.0
 41
0.025
 42
0.0125
 43
3.75
 44
0.037500000000000006
 45
0.0
 46
0.0
 47
0.0
 48
0.0
 49
2.5
140
0.025
141
2.5
142
0.0125
143
0.03937007874
144
100.0
145
0.0
146
0.5
147
0.010000000000000002
148
0.0
 69
0
 70
0
 71
0
 72
0
 73
0
 74
0
 75
0
 76
0
 77
1
 78
12
 79
3
170
0
171
3
172
1
173
0
174
0
175
0
176
0
177
0
178
0
179
2
271
2
272
2
273
2
274
3
275
0
276
0
277
2
278
46
279
2
280
0
281
0
282
0
283
0
284
8
285
0
286
0
288
1
289
3
290
0
340
4C
371
-2
372
-2
  0
DIMSTYLE
105
81
330
4
100
AcDbSymbolTableRecord
100
AcDbDimStyleTableRecord
  2
EZ_M_5_H25_CM
 70
0
 40
1.0
 41
0.0125
 42
0.00625
 43
3.75
 44
0.018750000000000003
 45
0.0
 46
0.0
 47
0.0
 48
0.0
 49
2.5
140
0.0125
141
2.5
142
0.00625
143
0.03937007874
144
100.0
145
0.0
146
0.5
147
0.005000000000000001
148
0.0
 69
0
 70
0
 71
0
 72
0
 73
0
 74
0
 75
0
 76
0
 77
1
 78
12
 79
3
170
0
171
3
172
1
173
0
174
0
175
0
176
0
177
0
178
0
179
2
271
2
272
2
273
2
274
3
275
0
276
0
277
2
278
46
279
2
280
0
281
0
282
0
283
0
284
8
285
0
286
0
288
1
289
3
290
0
340
4C
371
-2
372
-2
  0
DIMSTYLE
105
82
330
4
100
AcDbSymbolTableRecord
100
AcDbDimStyleTableRecord
  2
EZ_M_1_H25_CM
 70
0
 40
1.0
 41
0.0025
 42
0.00125
 43
3.75
 44
0.00375
 45
0.0
 46
0.0
 47
0.0
 48
0.0
 49
2.5
140
0.0025
141
2.5
142
0.00125
143
0.03937007874
144
100.0
145
0.0
146
0.5
147
0.001
148
0.0
 69
0
 70
0
 71
0
 72
0
 73
0
 74
0
 75
0
 76
0
 77
1
 78
12
 79
3
170
0
171
3
172
1
173
0
174
0
175
0
176
0
177
0
178
0
179
2
271
2
272
2
273
2
274
3
275
0
276
0
277
2
278
46
279
2
280
0
281
0
282
0
283
0
284
8
285
0
286
0
288
1
289
3
290
0
340
4C
371
-2
372
-2
  0
DIMSTYLE
105
83
330
4
100
AcDbSymbolTableRecord
100
AcDbDimStyleTableRecord
  2
EZ_RADIUS
 70
0
 40
1.0
 41
0.25
 42
0.125
 43
3.75
 44
0.375
 45
0.0
 46
0.0
 47
0.0
 48
0.0
 49
2.5
140
0.25
141
0.0
142
0.0
143
0.03937007874
144
100.0
145
0.0
146
0.5
147
0.1
148
0.0
 69
0
 70
0
 71
0
 72
0
 73
0
 74
0
 75
0
 76
0
 77
1
 78
12
 79
3
170
0
171
3
172
0
173
0
174
0
175
0
176
0
177
0
178
0
179
2
271
2
272
2
273
2
274
3
275
0
276
0
277
2
278
46
279
1
280
0
281
0
282
0
283
0
284
8
285
0
286
0
288
1
289
3
290
0
340
4C
342
84
371
-2
372
-2
  0
DIMSTYLE
105
88
330
4
100
AcDbSymbolTableRecord
100
AcDbDimStyleTableRecord
  2
EZ_RADIUS_INSIDE
 70
0
 40
1.0
 41
0.25
 42
0.125
 43
3.75
 44
0.375
 45
0.0
 46
0.0
 47
0.0
 48
0.0
 49
2.5
140
0.25
141
0.0
142
0.0
143
0.03937007874
144
100.0
145
0.0
146
0.5
147
0.1
148
0.0
 69
0
 70
0
 71
0
 72
0
 73
0
 74
0
 75
0
 76
0
 77
0
 78
12
 79
3
170
0
171
3
172
0
173
0
174
1
175
0
176
0
177
0
178
0
179
2
271
2
272
2
273
2
274
3
275
0
276
0
277
2
278
46
279
0
280
0
281
0
282
0
283
0
284
8
285
0
286
0
288
1
289
0
290
0
340
4C
342
84
371
-2
372
-2
  0
DIMSTYLE
105
89
330
4
100
AcDbSymbolTableRecord
100
AcDbDimStyleTableRecord
  2
EZ_CURVED
 70
0
 40
1.0
 41
0.25
 42
0.125
 43
3.75
 44
0.375
 45
0.0
 46
0.0
 47
0.0
 48
0.0
 49
2.5
140
0.25
141
2.5
142
0.0
143
0.03937007874
144
100.0
145
0.0
146
0.5
147
0.1
148
0.0
 69
0
 70
0
 71
0
 72
0
 73
0
 74
0
 75
0
 76
0
 77
1
 78
12
 79
2
 90
2
170
0
171
3
172
1
173
0
174
0
175
0
176
0
177
0
178
0
179
2
271
2
272
2
273
2
274
3
275
0
276
0
277
2
278
46
279
2
280
0
281
0
282
0
283
0
284
8
285
0
286
0
288
1
289
3
290
0
340
4C
371
-2
372
-2
  0
ENDTAB
  0
TABLE
  2
BLOCK_RECORD
  5
9
330
0
100
AcDbSymbolTable
 70
5
  0
BLOCK_RECORD
  5
17
330
9
100
AcDbSymbolTableRecord
100
AcDbBlockTableRecord
  2
*Model_Space
340
1A
 70
0
280
1
281
0
  0
BLOCK_RECORD
  5
1B
330
9
100
AcDbSymbolTableRecord
100
AcDbBlockTableRecord
  2
*Paper_Space
340
1E
 70
0
280
1
281
0
  0
BLOCK_RECORD
  5
74
330
9
100
AcDbSymbolTableRecord
100
AcDbBlockTableRecord
  2
_ARCHTICK
340
0
 70
0
280
1
281
0
  0
BLOCK_RECORD
  5
78
330
9
100
AcDbSymbolTableRecord
100
AcDbBlockTableRecord
  2
_CLOSEDFILLED
340
0
 70
0
280
1
281
0
  0
BLOCK_RECORD
  5
84
330
9
100
AcDbSymbolTableRecord
100
AcDbBlockTableRecord
  2
_CLOSEDBLANK
340
0
 70
0
280
1
281
0
  0
ENDTAB
  0
ENDSEC
  0
SECTION
  2
BLOCKS
  0
BLOCK
  5
18
330
17
100
AcDbEntity
  8
0
100
AcDbBlockBegin
  2
*Model_Space
 70
0
 10
0.0
 20
0.0
 30
0.0
  3
*Model_Space
  1

  0
ENDBLK
  5
19
330
17
100
AcDbEntity
  8
0
100
AcDbBlockEnd
  0
BLOCK
  5
1C
330
1B
100
AcDbEntity
  8
0
100
AcDbBlockBegin
  2
*Paper_Space
 70
0
 10
0.0
 20
0.0
 30
0.0
  3
*Paper_Space
  1

  0
ENDBLK
  5
1D
330
1B
100
AcDbEntity
  8
0
100
AcDbBlockEnd
  0
BLOCK
  5
75
330
74
100
AcDbEntity
  8
0
100
AcDbBlockBegin
  2
_ARCHTICK
 70
0
 10
0.0
 20
0.0
 30
0.0
  3
_ARCHTICK
  1

  0
LWPOLYLINE
  5
77
330
74
100
AcDbEntity
  8
0
  6
BYBLOCK
 62
0
100
AcDbPolyline
 90
2
 70
0
 43
0.15
 10
-0.5
 20
-0.5
 10
0.5
 20
0.5
  0
ENDBLK
  5
76
330
74
100
AcDbEntity
  8
0
100
AcDbBlockEnd
  0
BLOCK
  5
79
330
78
100
AcDbEntity
  8
0
100
AcDbBlockBegin
  2
_CLOSEDFILLED
 70
0
 10
0.0
 20
0.0
 30
0.0
  3
_CLOSEDFILLED
  1

  0
SOLID
  5
7B
330
78
100
AcDbEntity
  8
0
  6
BYBLOCK
 62
0
100
AcDbTrace
 10
-1.0
 20
0.16439898372402537
 30
0.0
 11
0.0
 21
0.0
 31
0.0
 12
-1.0
 22
-0.16439898372402537
 32
0.0
 13
-1.0
 23
-0.16439898372402537
 33
0.0
  0
ENDBLK
  5
7A
330
78
100
AcDbEntity
  8
0
100
AcDbBlockEnd
  0
BLOCK
  5
85
330
84
100
AcDbEntity
  8
0
100
AcDbBlockBegin
  2
_CLOSEDBLANK
 70
0
 10
0.0
 20
0.0
 30
0.0
  3
_CLOSEDBLANK
  1

  0
LWPOLYLINE
  5
87
330
84
100
AcDbEntity
  8
0
  6
BYBLOCK
 62
0
100
AcDbPolyline
 90
3
 70
1
 10
-1.0
 20
0.16439898372402537
 10
0.0
 20
0.0
 10
-1.0
 20
-0.16439898372402537
  0
ENDBLK
  5
86
330
84
100
AcDbEntity
  8
0
100
AcDbBlockEnd
  0
ENDSEC
  0
SECTION
  2
ENTITIES
  0
LWPOLYLINE
  5
8D
330
17
100
AcDbEntity
  8
PROFILE
100
AcDbPolyline
 90
2863
 70
1
 10
13.15649197293342
 20
-1.5286412156351303
 10
13.158346540429145
 20
-1.5158011501631283
 10
13.16091110820379
 20
-1.503083851155448
 10
13.164177765391253
 20
-1.4905285473860808
 10
13.168136435405586
 20
-1.4781739679258512
 10
13.172774907024008
 20
-1.4660582226756993
 10
13.178078872054613
 20
-1.4542186848099028
 10
13.18403196947252
 20
-1.442691875491865
 10
13.190615835888378
 20
-1.4315133512180793
 10
13.197810162193514
 20
-1.420717594137785
 10
13.205592756206988
 20
-1.410337905686634
 10
13.213939611131329
 20
-1.4004063038624817
 10
13.222824979605782
 20
-1.390953424460169
 10
13.23222145312863
 20
-1.3820084265699573
 10
13.242100046603596
 20
-1.37359890263112
 10
13.252430287749531
 20
-1.3657507933181487
 10
13.2631803110976
 20
-1.358488307522123
 10
13.274316956285993
 20
-1.3518338476740732
 10
13.285805870348973
 20
-1.3458079406406909
 10
13.297611613684708
 20
-1.3404291744055543
 10
13.330767133090891
 20
-1.326433258669581
 10
13.363853384298011
 20
-1.312916371271476
 10
13.396874742703531
 20
-1.2998536509957794
 10
13.429835428366914
 20
-1.287219890138616
 10
13.462739514399226
 20
-1.2749895376346698
 10
13.49559093493161
 20
-1.2631367019671442
 10
13.528393492644822
 20
-1.2516351538744004
 10
13.561150865842643
 20
-1.2404583288657907
 10
13.593866615052255
 20
-1.229579329558306
 10
13.626544189135213
 20
-1.2189709278447083
 10
13.659186930892925
 20
-1.208605566903009
 10
13.691798082150862
 20
-1.1984553630564283
 10
13.724380788306078
 20
-1.1884921074922679
 10
13.756938102322843
 20
-1.178687267847503
 10
13.789472988161465
 20
-1.169011989668406
 10
13.821988323625556
 20
-1.1594370977509492
 10
13.854486902613257
 20
-1.14993309736836
 10
13.886971436758062
 20
-1.1404701753917958
 10
13.919444556445104
 20
-1.1310182013097965
 10
13.951908811188874
 20
-1.1215467281519143
 10
13.984366669358483
 20
-1.1120249933216906
 10
14.016820517236741
 20
-1.1024219193440281
 10
14.049272657399388
 20
-1.0927061145318686
 10
14.081725306400942
 20
-1.082845873577068
 10
14.114180591753732
 20
-1.0728091780703488
 10
14.14664054818671
 20
-1.0625636969552787
 10
14.1791071131708
 20
-1.0520767869213339
 10
14.211582121697504
 20
-1.0413154927413022
 10
14.244067300297647
 20
-1.030246547558434
 10
14.276564260287111
 20
-1.0188363731291512
 10
14.309074490226523
 20
-1.007051080027302
 10
14.34159934758186
 20
-0.9948564678165269
 10
14.374140049573011
 20
-0.9822180251975714
 10
14.406697663197365
 20
-0.9691009301380533
 10
14.43927309441548
 20
-0.955470049992633
 10
14.471867076486062
 20
-0.9412899416222457
 10
14.504480157437342
 20
-0.92652485152174
 10
14.537112686662141
 20
-0.9111387159659495
 10
14.569764800623814
 20
-0.89509516118517
 10
14.60243640766046
 20
-0.8783575035817364
 10
14.635127171874682
 20
-0.8608887500004909
 10
14.667836496096399
 20
-0.8426515980668301
 10
14.700563503906078
 20
-0.8236084366071632
 10
14.73330702070611
 20
-0.8037213461677216
 10
14.766065553827824
 20
-0.782952099648913
 10
14.798837271662023
 20
-0.7612621630736244
 10
14.831619981800884
 20
-0.7386126965093159
 10
14.83683957076738
 20
-0.6250532387814948
 10
14.841189695634345
 20
-0.511457151868002
 10
14.844670101477044
 20
-0.39783109269324196
 10
14.84728058433776
 20
-0.28418171993804414
 10
14.849020991237747
 20
-0.17051569364945407
 10
14.84989122018619
 20
-0.05683967485044226
 10
14.84989122018619
 20
0.05683967485044226
 10
14.849020991237747
 20
0.17051569364945407
 10
14.84728058433776
 20
0.2841817199380441
 10
14.844670101477044
 20
0.39783109269324185
 10
14.841189695634345
 20
0.5114571518680022
 10
14.83683957076738
 20
0.6250532387814948
 10
14.831619981800884
 20
0.7386126965093159
 10
14.798837271662023
 20
0.7612621630736244
 10
14.766065553827824
 20
0.782952099648913
 10
14.73330702070611
 20
0.8037213461677216
 10
14.700563503906078
 20
0.8236084366071632
 10
14.667836496096399
 20
0.8426515980668301
 10
14.635127171874682
 20
0.8608887500004909
 10
14.60243640766046
 20
0.8783575035817364
 10
14.569764800623814
 20
0.89509516118517
 10
14.537112686662141
 20
0.9111387159659495
 10
14.504480157437342
 20
0.92652485152174
 10
14.471867076486062
 20
0.9412899416222457
 10
14.43927309441548
 20
0.955470049992633
 10
14.406697663197365
 20
0.9691009301380533
 10
14.374140049573011
 20
0.9822180251975714
 10
14.34159934758186
 20
0.9948564678165269
 10
14.309074490226523
 20
1.007051080027302
 10
14.276564260287111
 20
1.0188363731291512
 10
14.244067300297647
 20
1.030246547558434
 10
14.211582121697504
 20
1.0413154927413022
 10
14.1791071131708
 20
1.0520767869213339
 10
14.14664054818671
 20
1.0625636969552787
 10
14.114180591753732
 20
1.0728091780703488
 10
14.081725306400942
 20
1.082845873577068
 10
14.049272657399388
 20
1.0927061145318686
 10
14.016820517236741
 20
1.1024219193440281
 10
13.984366669358483
 20
1.1120249933216906
 10
13.951908811188874
 20
1.1215467281519143
 10
13.919444556445104
 20
1.1310182013097965
 10
13.886971436758062
 20
1.1404701753917958
 10
13.854486902613257
 20
1.14993309736836
 10
13.821988323625556
 20
1.1594370977509492
 10
13.789472988161465
 20
1.169011989668406
 10
13.756938102322843
 20
1.178687267847503
 10
13.724380788306078
 20
1.1884921074922679
 10
13.691798082150862
 20
1.1984553630564283
 10
13.659186930892925
 20
1.208605566903009
 10
13.626544189135213
 20
1.2189709278447083
 10
13.593866615052255
 20
1.229579329558306
 10
13.561150865842643
 20
1.2404583288657907
 10
13.528393492644822
 20
1.2516351538744004
 10
13.49559093493161
 20
1.2631367019671442
 10
13.462739514399226
 20
1.2749895376346698
 10
13.429835428366914
 20
1.287219890138616
 10
13.396874742703531
 20
1.2998536509957794
 10
13.363853384298011
 20
1.312916371271476
 10
13.330767133090891
 20
1.326433258669581
 10
13.297611613684708
 20
1.3404291744055543
 10
13.285805870348973
 20
1.3458079406406909
 10
13.274316956285993
 20
1.3518338476740732
 10
13.2631803110976
 20
1.358488307522123
 10
13.252430287749531
 20
1.3657507933181487
 10
13.242100046603596
 20
1.37359890263112
 10
13.23222145312863
 20
1.3820084265699573
 10
13.222824979605782
 20
1.390953424460169
 10
13.213939611131329
 20
1.4004063038624817
 10
13.205592756206988
 20
1.410337905686634
 10
13.197810162193514
 20
1.420717594137785
 10
13.190615835888378
 20
1.4315133512180793
 10
13.18403196947252
 20
1.442691875491865
 10
13.178078872054613
 20
1.4542186848099028
 10
13.172774907024008
 20
1.4660582226756993
 10
13.168136435405586
 20
1.4781739679258512
 10
13.164177765391253
 20
1.4905285473860808
 10
13.16091110820379
 20
1.503083851155448
 10
13.158346540429145
 20
1.5158011501631283
 10
13.15649197293342
 20
1.5286412156351303
 10
13.142109692233712
 20
1.647718980074176
 10
13.12664967598946
 20
1.7666616212070076
 10
13.110113192019105
 20
1.8854593849899353
 10
13.092501596418202
 20
2.0041025292601216
 10
13.073816333448214
 20
2.1225813245345018
 10
13.054058935418077
 20
2.2408860548076603
 10
13.033231022558528
 20
2.3590070183486045
 10
13.011334302889248
 20
2.476934528496369
 10
12.988370572078793
 20
2.5946589144543806
 10
12.96434171329733
 20
2.712170522083528
 10
12.93924969706221
 20
2.829459714693856
 10
12.913096581076381
 20
2.9465168738348404
 10
12.885884510059627
 20
3.063332400084158
 10
12.885884510059626
 20
3.063332400084158
 10
12.883235672417062
 20
3.0760324142993016
 10
12.88129600540108
 20
3.0888599001709998
 10
12.88007149226008
 20
3.101775289034252
 10
12.879565910222958
 20
3.114738741071624
 10
12.87978081884756
 20
3.1277102682062594
 10
12.880715555209957
 20
3.1406498574522255
 10
12.88236723594934
 20
3.1535175943416967
 10
12.884730766162274
 20
3.1662737860482384
 10
12.887798855118824
 20
3.178879083826403
 10
12.891562038752118
 20
3.19129460438994
 10
12.896008708851943
 20
3.203482049854222
 10
12.901125148872332
 20
3.215403825872889
 10
12.906895576242704
 20
3.2270231576043074
 10
12.913302191052011
 20
3.2383042031501192
 10
12.920325230955726
 20
3.249212164115961
 10
12.927943032136325
 20
3.25971339295331
 10
12.936132096129185
 20
3.269775496751341
 10
12.944867162307787
 20
3.279367437158629
 10
12.954121285804613
 20
3.288459626126474
 10
12.980490397622933
 20
3.3129513403640485
 10
13.006958255966516
 20
3.336969224088011
 10
13.033520469327595
 20
3.3605381356731376
 10
13.06017238172241
 20
3.38368320595809
 10
13.086909081644356
 20
3.40642983817643
 10
13.113725410547147
 20
3.4288037079475298
 10
13.140615970846008
 20
3.4508307633084168
 10
13.167575133424961
 20
3.472537224768914
 10
13.19459704463833
 20
3.4939495853733704
 10
13.22167563279473
 20
3.5150946107533594
 10
13.248804614111771
 20
3.5359993391565725
 10
13.275977498129796
 20
3.556691081437932
 10
13.303187592573043
 20
3.577197420999722
 10
13.330428007646619
 20
3.59754621366821
 10
13.357691659757752
 20
3.617765587494768
 10
13.3849712746498
 20
3.6378839424701357
 10
13.412259389937551
 20
3.657929950140855
 10
13.439548357032388
 20
3.6779325531173788
 10
13.466830342445963
 20
3.6979209644636875
 10
13.49409732846103
 20
3.717924666958545
 10
13.521341113158188
 20
3.737973412218801
 10
13.54855330978729
 20
3.7580972196752627
 10
13.57572534547246
 20
3.7783263753918988
 10
13.602848459239588
 20
3.798691430719105
 10
13.629913699355379
 20
3.819223200771881
 10
13.656911919967065
 20
3.839952762723666
 10
13.683833777032028
 20
3.86091145390656
 10
13.710669723526706
 20
3.882130869708447
 10
13.737410003924266
 20
3.903642861257453
 10
13.764044647930666
 20
3.925479532883776
 10
13.790563463468954
 20
3.94767323934881
 10
13.81695602890175
 20
3.9702565828309404
 10
13.84321168448208
 20
3.9932624096571314
 10
13.869319523023009
 20
4.01672380676885
 10
13.8952683797766
 20
4.040674097910434
 10
13.921046821513139
 20
4.065146839527366
 10
13.946643134791762
 20
4.090175816361299
 10
13.972045313413865
 20
4.115795036728032
 10
13.997241045051135
 20
4.1420387274637624
 10
14.022217697040224
 20
4.168941328524303
 10
14.046962301336604
 20
4.196537487220902
 10
14.071461538620442
 20
4.224862052075511
 10
14.095701721547794
 20
4.253950066277282
 10
14.119668777140932
 20
4.28383676072106
 10
14.143348228312048
 20
4.314557546607495
 10
14.166725174515118
 20
4.34614800758329
 10
14.189784271521395
 20
4.378643891398803
 10
14.15584945874869
 20
4.487140080412509
 10
14.121085089058289
 20
4.595373315365757
 10
14.08549319970153
 20
4.7033372536064135
 10
14.04907587642383
 20
4.811025568263592
 10
14.011835253342428
 20
4.918431948618415
 10
13.973773512821344
 20
5.025550100473839
 10
13.934892885343478
 20
5.132373746523501
 10
13.895195649379902
 20
5.23889662671958
 10
13.854684131256338
 20
5.345112498639647
 10
13.81336070501683
 20
5.451015137852482
 10
13.771227792284623
 20
5.556598338282836
 10
13.72828786212025
 20
5.661855912575115
 10
13.684543430876843
 20
5.766781692455976
 10
13.64599118626942
 20
5.776852881830898
 10
13.607777449633938
 20
5.786026167545328
 10
13.569890997120565
 20
5.794338797044909
 10
13.53232037048257
 20
5.801827606870822
 10
13.495053897931598
 20
5.808529029269217
 10
13.458079714011356
 20
5.814479098607033
 10
13.421385778507819
 20
5.819713457579683
 10
13.384959894413806
 20
5.824267363197517
 10
13.348789724965384
 20
5.828175692539133
 10
13.312862809767243
 20
5.831472948260776
 10
13.277166580023838
 20
5.834193263852211
 10
13.24168837289287
 20
5.836370408630475
 10
13.206415444977297
 20
5.838037792463828
 10
13.171334984971823
 20
5.839228470219261
 10
13.136434125479594
 20
5.839975145927589
 10
13.10169995401454
 20
5.840310176661081
 10
13.067119523204592
 20
5.8402655761192594
 10
13.032679860210843
 20
5.839873017919091
 10
12.998367975377468
 20
5.839163838586535
 10
12.964170870127141
 20
5.838169040246812
 10
12.930075544116473
 20
5.836919293011404
 10
12.896069001665953
 20
5.8354449370600845
 10
12.862138257478712
 20
5.833775984416787
 10
12.82827034166241
 20
5.8319421204183755
 10
12.794452304068482
 20
5.829972704875705
 10
12.760671217962967
 20
5.827896772926585
 10
12.726914183043126
 20
5.8257430355804125
 10
12.69316832781413
 20
5.823539879954421
 10
12.659420811340082
 20
5.821315369201541
 10
12.625658824383837
 20
5.819097242129918
 10
12.591869589950047
 20
5.816912912514129
 10
12.558040363246125
 20
5.814789468098075
 10
12.52415843107593
 20
5.812753669289414
 10
12.490211110681178
 20
5.810831947545276
 10
12.456185748045844
 20
5.8090504034487775
 10
12.422069715679033
 20
5.807434804475627
 10
12.38785040989219
 20
5.806010582449809
 10
12.353515247586706
 20
5.80480283068702
 10
12.319051662568567
 20
5.80383630082412
 10
12.284447101406874
 20
5.803135399332435
 10
12.249689018853717
 20
5.80272418371228
 10
12.21476487284328
 20
5.8026263583655044
 10
12.179662119088688
 20
5.8028652701423
 10
12.144368205295653
 20
5.803463903557848
 10
12.108870565012744
 20
5.804444875673647
 10
12.073156611138725
 20
5.805830430637672
 10
12.037213729108421
 20
5.807642433876568
 10
12.024280312814282
 20
5.808659018788904
 10
12.011423283461232
 20
5.810392079127239
 10
11.9986823008464
 20
5.812836268958266
 10
11.986096666800087
 20
5.815984048743093
 10
11.973705203952257
 20
5.819825708594292
 10
11.961546135977226
 20
5.824349398227778
 10
11.949656969685936
 20
5.829541163517114
 10
11.938074379329509
 20
5.835384989537513
 10
11.926834093470985
 20
5.841862849966711
 10
11.915970784774213
 20
5.848954762690381
 10
11.90551796304984
 20
5.8566388514405165
 10
11.895507871888327
 20
5.8648914132766805
 10
11.885971389198858
 20
5.873686991701943
 10
11.876937931960923
 20
5.882998455187986
 10
11.868435365482412
 20
5.892797080867131
 10
11.8604899174441
 20
5.90305264313314
 10
11.853126096995707
 20
5.913733506877488
 10
11.846366619153047
 20
5.9248067250734815
 10
11.840232334729519
 20
5.936238140407235
 10
11.78599041762559
 20
6.043215607244024
 10
11.730781975275852
 20
6.149697492441655
 10
11.674611535119357
 20
6.255675063816695
 10
11.617483703485027
 20
6.361139630542613
 10
11.55940316521389
 20
6.46608254386248
 10
11.50037468327491
 20
6.570495197798223
 10
11.440403098374379
 20
6.674369029856374
 10
11.379493328558961
 20
6.777695521730233
 10
11.317650368812377
 20
6.8804661999984456
 10
11.25487929064578
 20
6.982672636819854
 10
11.191185241681863
 20
7.084306450624651
 10
11.126573445232726
 20
7.185359306801709
 10
11.061049199871523
 20
7.285822918382077
 10
11.061049199871523
 20
7.2858229183820775
 10
11.054216446003045
 20
7.2968510721937685
 10
11.048006496664998
 20
7.308241560819828
 10
11.042438507552228
 20
7.3199592482692175
 10
11.037529654118925
 20
7.331967989247849
 10
11.033295078597869
 20
7.344230740655178
 10
11.02974784329151
 20
7.356709675850252
 10
11.02689889027899
 20
7.369366301334714
 10
11.024757007663327
 20
7.382161575492864
 10
11.023328802462961
 20
7.395056029022469
 10
11.022618680231227
 20
7.408009886684861
 10
11.022628831466633
 20
7.420983189998741
 10
11.023359224855886
 20
7.433935920499235
 10
11.024807607370478
 20
7.446828123181978
 10
11.026969511216558
 20
7.459620029751439
 10
11.029838267616638
 20
7.472272181293311
 10
11.033405027380615
 20
7.484745549992567
 10
11.037658788202688
 20
7.4970016595216995
 10
11.042586428599924
 20
7.509002703727811
 10
11.048172748387806
 20
7.520711663252424
 10
11.064574948566333
 20
7.552745113795342
 10
11.081231999706159
 20
7.58436708260184
 10
11.098131273074927
 20
7.615599426919143
 10
11.115259798226026
 20
7.6464641695706606
 10
11.132604271435353
 20
7.676983501953327
 10
11.150151063676011
 20
7.707179786930454
 10
11.167886228126077
 20
7.737075561598247
 10
11.185795507204276
 20
7.766693539905242
 10
11.203864339128133
 20
7.7960566151049875
 10
11.222077863988913
 20
7.825187862023204
 10
11.240420929337326
 20
7.854110539121568
 10
11.258878095273804
 20
7.882848090340983
 10
11.277433639037003
 20
7.911424146707911
 10
11.296071559083808
 20
7.939862527688105
 10
11.3147755786542
 20
7.9681872422724656
 10
11.333529148813989
 20
7.996422489780418
 10
11.352315450968394
 20
8.024592660366615
 10
11.371117398839363
 20
8.052722335217148
 10
11.389917639899375
 20
8.080836286421867
 10
11.408698556254471
 20
8.108959476509616
 10
11.427442264969256
 20
8.137117057633551
 10
11.44613061782648
 20
8.165334370393795
 10
11.464745200514006
 20
8.193636942284938
 10
11.483267331231866
 20
8.222050485755883
 10
11.501678058712296
 20
8.250600895869695
 10
11.519958159645618
 20
8.27931424755106
 10
11.538088135505125
 20
8.308216792408908
 10
11.556048208764132
 20
8.337334955121719
 10
11.573818318498653
 20
8.36669532937287
 10
11.591378115369336
 20
8.396324673323148
 10
11.60870695597655
 20
8.426249904607463
 10
11.625783896582824
 20
8.45649809484235
 10
11.642587686197137
 20
8.487096463630694
 10
11.659096759015949
 20
8.518072372049597
 10
11.675289226216192
 20
8.549453315607018
 10
11.691142867095982
 20
8.581266916652291
 10
11.706635119559191
 20
8.613540916225123
 10
11.721743069940546
 20
8.646303165327147
 10
11.73644344216856
 20
8.679581615599474
 10
11.750712586264088
 20
8.713404309389116
 10
11.764526466173015
 20
8.74779936918633
 10
11.777860646932307
 20
8.782794986414366
 10
11.79069028116929
 20
8.81841940955214
 10
11.802990094934938
 20
8.8547009315697
 10
11.81473437287274
 20
8.891667876655344
 10
11.825896942725612
 20
8.929348586212415
 10
11.836451159184318
 20
8.967771404102818
 10
11.7674549839173
 20
9.05811808277414
 10
11.697769215721646
 20
9.147933940279355
 10
11.627397938302199
 20
9.237213713256057
 10
11.556345275535818
 20
9.325952169757302
 10
11.48461539122971
 20
9.414144109558215
 10
11.412212488877408
 20
9.501784364460736
 10
11.339140811412454
 20
9.588867798596478
 10
11.265404640959762
 20
9.6753893087277
 10
11.19100829858465
 20
9.761343824546367
 10
11.115956144039652
 20
9.846726308971276
 10
11.040252575509008
 20
9.93153175844324
 10
10.963902029350928
 20
10.015755203218307
 10
10.886908979837612
 20
10.099391707658988
 10
10.847237170431812
 20
10.095669885770983
 10
10.808190555607977
 20
10.091220086984118
 10
10.769745849020545
 20
10.086073473665476
 10
10.73187968460052
 20
10.080260741889791
 10
10.694568633892468
 20
10.073812134783209
 10
10.657789222535317
 20
10.066757455349368
 10
10.621517945909007
 20
10.05912607877041
 10
10.585731283968155
 20
10.050946964176644
 10
10.550405715283315
 20
10.042248665879699
 10
10.51551773030952
 20
10.033059344064853
 10
10.481043843901292
 20
10.023406774939309
 10
10.446960607092507
 20
10.013318360333953
 10
10.413244618159066
 20
10.002821136756975
 10
10.379872532981578
 20
9.991941783898485
 10
10.346821074724867
 20
9.980706632586
 10
10.314067042850555
 20
9.969141672191222
 10
10.281587321478554
 20
9.957272557489308
 10
10.24935888711286
 20
9.945124614972173
 10
10.217358815746644
 20
9.93272284861807
 10
10.185564289361409
 20
9.920091945120022
 10
10.153952601834465
 20
9.907256278576158
 10
10.122501164269053
 20
9.894239914645356
 10
10.091187509760793
 20
9.88106661417194
 10
10.059989297614393
 20
9.867759836283474
 10
10.02888431702409
 20
9.854342740965897
 10
9.997850490231379
 20
9.840838191120548
 10
9.966865875173415
 20
9.827268754107706
 10
9.935908667635589
 20
9.81365670278145
 10
9.904957202921603
 20
9.800024016020771
 10
9.8739899570547
 20
9.786392378761867
 10
9.842985547523526
 20
9.772783181536639
 10
9.81192273358648
 20
9.75921751952235
 10
9.780780416148499
 20
9.745716191107448
 10
9.749537637224458
 20
9.73229969597834
 10
9.718173579003695
 20
9.718988232732011
 10
9.686667562530465
 20
9.705801696018995
 10
9.65499904601555
 20
9.69275967322125
 10
9.62314762279461
 20
9.679881440669185
 10
9.591093018949476
 20
9.667185959401829
 10
9.558815090608942
 20
9.654691870473949
 10
9.526293820946414
 20
9.64241748981358
 10
9.493509316892283
 20
9.630380802633074
 10
9.460441805579684
 20
9.618599457396476
 10
9.42707163054313
 20
9.607090759345606
 10
9.393379247690323
 20
9.595871663586736
 10
9.35934522106844
 20
9.584958767739405
 10
9.324950218447311
 20
9.574368304148294
 10
9.312449090076736
 20
9.570900092594206
 10
9.299774692923139
 20
9.568131273583443
 10
9.286966123422097
 20
9.566070388031426
 10
9.2740628918877
 20
9.564723793106722
 10
9.261104800635934
 20
9.564095642621233
 10
9.248131821207359
 20
9.564187874217017
 10
9.235183971067766
 20
9.56500020338929
 10
9.222301190167178
 20
9.566530124364029
 10
9.20952321773796
 20
9.568772917827474
 10
9.196889469712081
 20
9.571721665483704
 10
9.18443891713565
 20
9.575367271395342
 10
9.172209965955773
 20
9.5796984900416
 10
9.160240338550585
 20
9.584701961007088
 10
9.148566957367844
 20
9.590362250194396
 10
9.137225831031069
 20
9.596661897433314
 10
9.126251943264526
 20
9.603581470339845
 10
9.115679144979694
 20
9.611099624258845
 10
9.10554004985611
 20
9.619193168105417
 10
9.095865933738652
 20
9.627837135901949
 10
9.008306755958673
 20
9.709811243816706
 10
8.920008840440657
 20
9.790989086219048
 10
8.830979428168305
 20
9.871364006015996
 10
8.741225820112646
 20
9.950929411959265
 10
8.650755376633311
 20
10.029678779185794
 10
8.55957551687494
 20
10.107605649752818
 10
8.46769371815876
 20
10.18470363316747
 10
8.375117515369409
 20
10.260966406910828
 10
8.281854500337012
 20
10.33638771695642
 10
8.187912321214618
 20
10.410961378283073
 10
8.093298681850998
 20
10.48468127538214
 10
7.998021341158878
 20
10.557541362758998
 10
7.902088112478658
 20
10.629535665428827
 10
7.902088112478657
 20
10.629535665428827
 10
7.89189557334151
 20
10.637561800729157
 10
7.882164353220659
 20
10.646141431075568
 10
7.872924469797889
 20
10.65524809107005
 10
7.864204425139422
 20
10.664853689597777
 10
7.856031117776222
 20
10.67492859647914
 10
7.848429759730677
 20
10.685441733869325
 10
7.84142379874563
 20
10.696360672123456
 10
7.835034845955641
 20
10.707651729831605
 10
7.829282609223588
 20
10.719280077715116
 10
7.82418483234826
 20
10.731209846063699
 10
7.819757240330443
 20
10.743404235381957
 10
7.816013490866356
 20
10.755825629903976
 10
7.81296513221806
 20
10.768435713625857
 10
7.8106215675907755
 20
10.781195588498255
 10
7.808990026127033
 20
10.794065894414338
 10
7.808075540607085
 20
10.807006930623054
 10
7.807880931924408
 20
10.819978778193162
 10
7.808406800384145
 20
10.83294142315029
 10
7.809651523851367
 20
10.845854879907163
 10
7.8141084649778785
 20
10.88156635985657
 10
7.818945622714587
 20
10.916978337616984
 10
7.824143654316064
 20
10.952107033001482
 10
7.829682839300114
 20
10.986968704540708
 10
7.835543086350614
 20
11.021579655184972
 10
7.841703939821846
 20
11.055956237750184
 10
7.8481445858472885
 20
11.090114860085302
 10
7.854843858055089
 20
11.12407198994017
 10
7.861780242891859
 20
11.157844159513274
 10
7.8689318845558125
 20
11.191447969659965
 10
7.876276589539763
 20
11.224900093742168
 10
7.883791830784001
 20
11.258217281101489
 10
7.89145475143865
 20
11.29141636013803
 10
7.899242168234634
 20
11.324514240977917
 10
7.9071305744621645
 20
11.357527917712938
 10
7.915096142555204
 20
11.390474470196144
 10
7.923114726280154
 20
11.423371065377681
 10
7.931161862526823
 20
11.456234958165467
 10
7.93921277269942
 20
11.48908349179558
 10
7.947242363705316
 20
11.521934097697555
 10
7.955225228539048
 20
11.554804294839979
 10
7.9631356464591
 20
11.587711688541939
 10
7.970947582754882
 20
11.620673968736044
 10
7.978634688101366
 20
11.65370890766889
 10
7.986170297498892
 20
11.686834357024837
 10
7.993527428795738
 20
11.720068244459066
 10
8.000678780791183
 20
11.75342856952588
 10
8.007596730917031
 20
11.786933398988136
 10
8.014253332495642
 20
11.82060086149377
 10
8.020620311573003
 20
11.854449141605054
 10
8.026669063325464
 20
11.888496473166382
 10
8.032370648039299
 20
11.922761131995959
 10
8.037695786662589
 20
11.957261427886753
 10
8.042614855929367
 20
11.9920156959018
 10
8.047097883056548
 20
12.02704228694863
 10
8.051114540014668
 20
12.062359557617441
 10
8.054634137374103
 20
12.097985859267181
 10
8.057625617729117
 20
12.133939526343491
 10
8.060057548702792
 20
12.170238863911955
 10
8.061898115536694
 20
12.206902134389868
 10
8.06311511327
 20
12.243947543459136
 10
8.063675938513628
 20
12.281393225142594
 10
8.063547580826029
 20
12.319257226025462
 10
8.06269661369813
 20
12.357557488603252
 10
8.061089185156236
 20
12.396311833736773
 10
8.058691007992666
 20
12.435537942194491
 10
8.055467349635236
 20
12.4752533352618
 10
7.959731768886205
 20
12.536553360768009
 10
7.863529734282099
 20
12.597118722869183
 10
7.766866883426191
 20
12.656945872331821
 10
7.6697488809263845
 20
12.716031303182941
 10
7.572181418063227
 20
12.774371552915547
 10
7.474170212456427
 20
12.831963202691513
 10
7.375721007729766
 20
12.888802877541956
 10
7.276839573174522
 20
12.944887246565003
 10
7.17753170341138
 20
13.000213023120986
 10
7.077803218050856
 20
13.054776965025061
 10
6.977659961352249
 20
13.108575874737184
 10
6.877107801881177
 20
13.161606599549504
 10
6.77615263216565
 20
13.213866031771115
 10
6.740146263669362
 20
13.196800105268116
 10
6.704976368671588
 20
13.179263933385688
 10
6.670610407007984
 20
13.161278834770973
 10
6.637015923080051
 20
13.142865662632627
 10
6.60416055758277
 20
13.124044823209424
 10
6.572012058604686
 20
13.104836293459627
 10
6.540538292123767
 20
13.085259637971603
 10
6.509707251921025
 20
13.065334025097123
 10
6.479487068933024
 20
13.04507824230944
 10
6.449846020063241
 20
13.024510710788922
 10
6.420752536471397
 20
13.003649499239687
 10
6.392175211358933
 20
12.982512336941262
 10
6.3640828072680025
 20
12.961116626039852
 10
6.336444262910425
 20
12.939479453084326
 10
6.309228699542563
 20
12.917617599812486
 10
6.282405426901065
 20
12.895547553193685
 10
6.255943948714111
 20
12.873285514734206
 10
6.2298139678020075
 20
12.850847409052205
 10
6.203985390780474
 20
12.828248891729439
 10
6.178428332379618
 20
12.805505356447215
 10
6.1531131193909765
 20
12.782631941414346
 10
6.1280102942548424
 20
12.759643535095186
 10
6.1030906182995786
 20
12.736554781245957
 10
6.078325074644507
 20
12.713380083267912
 10
6.053684870777644
 20
12.690133607885967
 10
6.029141440819438
 20
12.66682928816167
 10
6.004666447483561
 20
12.643480825849467
 10
5.980231783745688
 20
12.620101693105376
 10
5.9558095742312425
 20
12.596705133557263
 10
5.931372176333105
 20
12.573304162746043
 10
5.906892181070358
 20
12.549911567947092
 10
5.882342413699303
 20
12.526539907381343
 10
5.857695934088212
 20
12.503201508825422
 10
5.83292603686743
 20
12.479908467630297
 10
5.808006251366863
 20
12.45667264415792
 10
5.782910341353167
 20
12.433505660645176
 10
5.757612304579403
 20
12.410418897504673
 10
5.732086372160398
 20
12.38742348907158
 10
5.706307007787555
 20
12.36453031880596
 10
5.680248906797536
 20
12.341750013959704
 10
5.653886995109766
 20
12.319092939717327
 10
5.627196428048615
 20
12.296569192819643
 10
5.600152589066804
 20
12.274188594679323
 10
5.57273108838747
 20
12.251960683997263
 10
5.544907761583427
 20
12.229894708888459
 10
5.5166586681130125
 20
12.207999618526152
 10
5.4879600898333445
 20
12.186284054312718
 10
5.4773990699648305
 20
12.178749363790981
 10
5.466436024361589
 20
12.171812625867236
 10
5.455104770490518
 20
12.165495238145176
 10
5.443440261622502
 20
12.159816687732487
 10
5.431478479012824
 20
12.154794491129374
 10
5.419256320910576
 20
12.150444140195814
 10
5.4068114887394305
 20
12.146779054364144
 10
5.39418237080089
 20
12.143810539244438
 10
5.381407923858732
 20
12.14154775175033
 10
5.3685275529699314
 20
12.1399976718529
 10
5.355580989932743
 20
12.139165081049683
 10
5.342608170726894
 20
12.139052547615318
 10
5.329649112323941
 20
12.139660418679227
 10
5.316743789247791
 20
12.140986819154838
 10
5.303932010266168
 20
12.143027657523625
 10
5.29125329559337
 20
12.145776638456129
 10
5.2787467549831355
 20
12.149225282231013
 10
5.26645096708764
 20
12.153362950892284
 10
5.254403860454769
 20
12.158176881063955
 10
5.144088351074842
 20
12.20526034283317
 10
5.033350994138465
 20
12.251342896589145
 10
4.922200870804488
 20
12.296420763273007
 10
4.81064709608119
 20
12.340490246216541
 10
4.698698818078808
 20
12.383547731445331
 10
4.586365217259314
 20
12.42558968797513
 10
4.4736555056835865
 20
12.466612668101424
 10
4.360578926255933
 20
12.506613307682166
 10
4.247144751966142
 20
12.54558832641365
 10
4.133362285129016
 20
12.583534528099529
 10
4.019240856621548
 20
12.620448800912909
 10
3.9047898251176987
 20
12.656328117651551
 10
3.7900185763209633
 20
12.691169535986115
 10
3.790018576320962
 20
12.691169535986113
 10
3.7776956225609437
 20
12.695225582404724
 10
3.765616860421376
 20
12.69995952442985
 10
3.753819548995546
 20
12.705356759374103
 10
3.74234007919188
 20
12.711400638504944
 10
3.7312138614797092
 20
12.718072518400659
 10
3.720475216659365
 20
12.725351818459318
 10
3.7101572699935614
 20
12.7332160843833
 10
3.7002918490266192
 20
12.741641057443584
 10
3.690909385406737
 20
12.75060074931011
 10
3.682038821014154
 20
12.760067522217417
 10
3.6737075186847608
 20
12.770012174218254
 10
3.6659411778045623
 20
12.780404029262183
 10
3.6587637550353427
 20
12.791211031821328
 10
3.6521973904160747
 20
12.802399845771355
 10
3.6462623390680253
 20
12.813935957222684
 10
3.6409769087142276
 20
12.825783780984736
 10
3.636357403206048
 20
12.837906770334785
 10
3.6324180722310513
 20
12.850267529752836
 10
3.6291710673573028
 20
12.862827930274767
 10
3.621145176554496
 20
12.897910108103453
 10
3.6135790082761954
 20
12.932840887674745
 10
3.606448838784465
 20
12.967628895018743
 10
3.5997305761427256
 20
13.002282663354569
 10
3.5933997647520743
 20
13.036810640809504
 10
3.5874315896007345
 20
13.071221197761112
 10
3.581800880237072
 20
13.105522633782368
 10
3.5764821144754904
 20
13.139723184170743
 10
3.57144942184372
 20
13.173831026042555
 10
3.566676586779183
 20
13.20785428397461
 10
3.562137051581306
 20
13.241801035175566
 10
3.557803919126103
 20
13.275679314169944
 10
3.5536499553485856
 20
13.309497116978063
 10
3.549647591498121
 20
13.343262404775656
 10
3.545768926171273
 20
13.376983107017118
 10
3.5419857271262756
 20
13.410667124006775
 10
3.538269432882852
 20
13.444322328902723
 10
3.5345911541107853
 20
13.47795656913815
 10
3.5309216748103767
 20
13.511577667245138
 10
3.5272314532876172
 20
13.545193421066253
 10
3.5234906229268117
 20
13.578811603339352
 10
3.519668992763199
 20
13.612439960641161
 10
3.515736047858068
 20
13.646086211675373
 10
3.5116609494787956
 20
13.679758044891043
 10
3.5074125350863263
 20
13.713463115417236
 10
3.5029593181326
 20
13.747209041299824
 10
3.4982694876706235
 20
13.781003399026583
 10
3.493310907780063
 20
13.814853718326518
 10
3.4880511168114077
 20
13.848767476229625
 10
3.4824573264521126
 20
13.882752090373085
 10
3.4764964206184006
 20
13.916814911540033
 10
3.4701349541768853
 20
13.950963215416941
 10
3.463339151500505
 20
13.985204193555617
 10
3.4560749048639434
 20
14.019544943525824
 10
3.448307772684095
 20
14.05399245824439
 10
3.4400029776118473
 20
14.088553614466676
 10
3.431125404482241
 20
14.123235160426153
 10
3.421639598130552
 20
14.158043702607731
 10
3.4115097610829794
 20
14.192985691640407
 10
3.4006997511312185
 20
14.228067407294713
 10
3.3891730788012886
 20
14.26329494257027
 10
3.3768929047279754
 20
14.29867418685872
 10
3.3638220369472753
 20
14.334210808167073
 10
3.349922928120389
 20
14.369910234386538
 10
3.335157672704073
 20
14.405777633591613
 10
3.319488004083309
 20
14.441817893354273
 10
3.3028752916837822
 20
14.478035599057794
 10
3.191947429397764
 20
14.502895283630817
 10
3.080832513549279
 20
14.526905073808999
 10
2.969537055661877
 20
14.550063562577689
 10
2.858067577839181
 20
14.572369392809959
 10
2.746430612382669
 20
14.593821257346116
 10
2.634632701408891
 20
14.614417899070318
 10
2.522680396466073
 20
14.63415811098424
 10
2.410580258150194
 20
14.653040736277797
 10
2.298338855720519
 20
14.671064668396948
 10
2.1859627667146344
 20
14.688228851108539
 10
2.0734585765629805
 20
14.704532278562192
 10
1.9608328782029514
 20
14.719973995349255
 10
1.848092271692528
 20
14.734553096558795
 10
1.8200942435438092
 20
14.706201468043314
 10
1.7930430767611973
 20
14.677694044200676
 10
1.7669009021856272
 20
14.64903972861461
 10
1.741630089313277
 20
14.620247016422962
 10
1.7171932509992915
 20
14.591324015683584
 10
1.6935532478383435
 20
14.562278467793364
 10
1.6706731922437346
 20
14.533117766968799
 10
1.6485164522452467
 20
14.503848978796992
 10
1.6270466550248393
 20
14.47447885786628
 10
1.6062276902080526
 20
14.4450138644859
 10
1.5860237129278574
 20
14.415460180504503
 10
1.5663991466766793
 20
14.385823724237492
 10
1.547318685961351
 20
14.356110164513424
 10
1.5287472987746844
 20
14.326324933849957
 10
1.5106502288967711
 20
14.29647324076994
 10
1.492992998037994
 20
14.266560081268542
 10
1.4757414078352586
 20
14.236590249442408
 10
1.458861541712192
 20
14.206568347291961
 10
1.4423197666133374
 20
14.176498793708255
 10
1.4260827346220166
 20
14.14638583265572
 10
1.4101173844708559
 20
14.116233540562465
 10
1.39439094295366
 20
14.086045832929782
 10
1.3788709262468464
 20
14.05582647017267
 10
1.363525141148405
 20
14.025579062703315
 10
1.3483216862420033
 20
13.995307075269501
 10
1.3332289529937125
 20
13.965013830560135
 10
1.3182156267886573
 20
13.934702512090029
 10
1.3032506879147574
 20
13.90437616637629
 10
1.288303412500718
 20
13.87403770441869
 10
1.2733433734154436
 20
13.843689902496534
 10
1.2583404411360617
 20
13.813335402294548
 10
1.2432647845919271
 20
13.782976710370543
 10
1.2280868719921232
 20
13.752616196977522
 10
1.2127774716441755
 20
13.722256094253188
 10
1.197307652772038
 20
13.69189849378976
 10
1.1816487863417122
 20
13.661545343597197
 10
1.165772545903277
 20
13.631198444473013
 10
1.149650908458576
 20
13.600859445792008
 10
1.1332561553642913
 20
13.570529840729364
 10
1.1165608732807955
 20
13.540210960930683
 10
1.0995379551777051
 20
13.509903970642734
 10
1.0821606014079288
 20
13.47960986031883
 10
1.0644023208626634
 20
13.449329439712962
 10
1.0462369322207266
 20
13.419063330476991
 10
1.0276385653065858
 20
13.388811958275488
 10
1.008581662572391
 20
13.358575544433014
 10
0.9890409807206176
 20
13.328354097128994
 10
0.9816938842143612
 20
13.317661722516718
 10
0.9737644952585476
 20
13.30739373864894
 10
0.965277273465792
 20
13.297581818950835
 10
0.956258399183456
 20
13.288256230036406
 10
0.9467356927357036
 20
13.279445738345734
 10
0.9367385286067549
 20
13.271177521409758
 10
0.9262977448300584
 20
13.263477084016351
 10
0.9154455478628835
 20
13.256368179536256
 10
0.9042154132397662
 20
13.249872736651575
 10
0.8926419823112605
 20
13.244010791712853
 10
0.8807609553865222
 20
13.238800426933384
 10
0.8686089816093467
 20
13.234257714611397
 10
0.8562235459073564
 20
13.230396667552196
 10
0.8436428533630651
 20
13.227229195843167
 10
0.8309057113634958
 20
13.224765070114982
 10
0.818051409891883
 20
13.223011891402361
 10
0.8051196003307212
 20
13.221975067697318
 10
0.7921501731500128
 20
13.221657797267252
 10
0.779183134858008
 20
13.222061058789315
 10
0.6594169723928748
 20
13.228574914045739
 10
0.539596733593995
 20
13.23400394306631
 10
0.41973224447358404
 20
13.238347700636554
 10
0.29983333467265433
 20
13.241605830541062
 10
0.1799098366549297
 20
13.243778065592718
 10
0.059971584900531276
 20
13.2448642276546
 10
-0.05997158490052966
 20
13.2448642276546
 10
-0.1799098366549281
 20
13.243778065592718
 10
-0.29983333467265266
 20
13.241605830541062
 10
-0.4197322444735825
 20
13.238347700636554
 10
-0.5395967335939933
 20
13.23400394306631
 10
-0.6594169723928732
 20
13.228574914045739
 10
-0.7791831348580057
 20
13.222061058789315
 10
-0.779183134858007
 20
13.222061058789317
 10
-0.7921501731500117
 20
13.221657797267254
 10
-0.80511960033072
 20
13.22197506769732
 10
-0.8180514098918817
 20
13.223011891402361
 10
-0.8309057113634944
 20
13.224765070114982
 10
-0.8436428533630637
 20
13.227229195843167
 10
-0.8562235459073548
 20
13.230396667552197
 10
-0.8686089816093451
 20
13.234257714611397
 10
-0.8807609553865205
 20
13.238800426933384
 10
-0.8926419823112588
 20
13.244010791712855
 10
-0.9042154132397644
 20
13.249872736651575
 10
-0.9154455478628817
 20
13.256368179536256
 10
-0.9262977448300567
 20
13.263477084016353
 10
-0.936738528606753
 20
13.271177521409758
 10
-0.9467356927357016
 20
13.279445738345734
 10
-0.956258399183454
 20
13.288256230036408
 10
-0.96527727346579
 20
13.297581818950837
 10
-0.9737644952585456
 20
13.307393738648942
 10
-0.9816938842143591
 20
13.317661722516718
 10
-0.9890409807206154
 20
13.328354097128994
 10
-1.0085816625723893
 20
13.358575544433014
 10
-1.0276385653065843
 20
13.388811958275488
 10
-1.0462369322207248
 20
13.419063330476991
 10
-1.0644023208626618
 20
13.449329439712962
 10
-1.082160601407927
 20
13.479609860318831
 10
-1.0995379551777036
 20
13.509903970642734
 10
-1.1165608732807937
 20
13.540210960930683
 10
-1.1332561553642897
 20
13.570529840729364
 10
-1.1496509084585742
 20
13.600859445792008
 10
-1.1657725459032753
 20
13.631198444473013
 10
-1.1816487863417104
 20
13.661545343597197
 10
-1.1973076527720365
 20
13.69189849378976
 10
-1.2127774716441737
 20
13.722256094253188
 10
-1.2280868719921214
 20
13.752616196977522
 10
-1.2432647845919254
 20
13.782976710370543
 10
-1.2583404411360601
 20
13.813335402294548
 10
-1.273343373415442
 20
13.843689902496534
 10
-1.2883034125007164
 20
13.874037704418692
 10
-1.3032506879147556
 20
13.90437616637629
 10
-1.3182156267886558
 20
13.934702512090029
 10
-1.333228952993711
 20
13.965013830560135
 10
-1.3483216862420015
 20
13.995307075269501
 10
-1.3635251411484035
 20
14.025579062703315
 10
-1.3788709262468448
 20
14.05582647017267
 10
-1.3943909429536583
 20
14.086045832929782
 10
-1.4101173844708543
 20
14.116233540562465
 10
-1.426082734622015
 20
14.14638583265572
 10
-1.4423197666133356
 20
14.176498793708255
 10
-1.4588615417121902
 20
14.206568347291963
 10
-1.4757414078352569
 20
14.236590249442408
 10
-1.4929929980379921
 20
14.266560081268544
 10
-1.5106502288967696
 20
14.29647324076994
 10
-1.5287472987746826
 20
14.326324933849957
 10
-1.5473186859613492
 20
14.356110164513424
 10
-1.5663991466766776
 20
14.385823724237493
 10
-1.5860237129278556
 20
14.415460180504503
 10
-1.6062276902080508
 20
14.4450138644859
 10
-1.6270466550248375
 20
14.47447885786628
 10
-1.648516452245245
 20
14.503848978796992
 10
-1.6706731922437328
 20
14.533117766968799
 10
-1.6935532478383417
 20
14.562278467793364
 10
-1.7171932509992895
 20
14.591324015683584
 10
-1.7416300893132752
 20
14.620247016422962
 10
-1.7669009021856255
 20
14.64903972861461
 10
-1.7930430767611953
 20
14.677694044200676
 10
-1.8200942435438077
 20
14.706201468043314
 10
-1.8480922716925263
 20
14.734553096558795
 10
-1.9608328782029496
 20
14.719973995349255
 10
-2.0734585765629787
 20
14.704532278562192
 10
-2.185962766714633
 20
14.688228851108539
 10
-2.2983388557205173
 20
14.67106466839695
 10
-2.4105802581501923
 20
14.653040736277797
 10
-2.522680396466071
 20
14.63415811098424
 10
-2.6346327014088886
 20
14.614417899070318
 10
-2.7464306123826674
 20
14.593821257346116
 10
-2.8580675778391793
 20
14.572369392809959
 10
-2.9695370556618754
 20
14.55006356257769
 10
-3.0808325135492773
 20
14.526905073808999
 10
-3.191947429397762
 20
14.502895283630817
 10
-3.3028752916837805
 20
14.478035599057794
 10
-3.319488004083307
 20
14.441817893354274
 10
-3.3351576727040713
 20
14.405777633591613
 10
-3.349922928120387
 20
14.369910234386538
 10
-3.3638220369472736
 20
14.334210808167073
 10
-3.376892904727974
 20
14.29867418685872
 10
-3.389173078801287
 20
14.26329494257027
 10
-3.400699751131217
 20
14.228067407294713
 10
-3.4115097610829777
 20
14.192985691640407
 10
-3.4216395981305503
 20
14.158043702607731
 10
-3.431125404482239
 20
14.123235160426153
 10
-3.440002977611846
 20
14.088553614466676
 10
-3.448307772684094
 20
14.05399245824439
 10
-3.456074904863942
 20
14.019544943525824
 10
-3.4633391515005028
 20
13.985204193555617
 10
-3.4701349541768836
 20
13.950963215416941
 10
-3.476496420618399
 20
13.916814911540033
 10
-3.482457326452111
 20
13.882752090373085
 10
-3.488051116811406
 20
13.848767476229625
 10
-3.4933109077800615
 20
13.814853718326518
 10
-3.4982694876706217
 20
13.781003399026583
 10
-3.502959318132598
 20
13.747209041299824
 10
-3.5074125350863246
 20
13.713463115417236
 10
-3.511660949478794
 20
13.679758044891045
 10
-3.515736047858067
 20
13.646086211675373
 10
-3.5196689927631977
 20
13.612439960641161
 10
-3.5234906229268095
 20
13.578811603339352
 10
-3.527231453287616
 20
13.545193421066253
 10
-3.5309216748103753
 20
13.511577667245138
 10
-3.534591154110784
 20
13.477956569138152
 10
-3.5382694328828497
 20
13.444322328902723
 10
-3.541985727126274
 20
13.410667124006775
 10
-3.545768926171271
 20
13.37698310701712
 10
-3.5496475914981187
 20
13.343262404775658
 10
-3.5536499553485843
 20
13.309497116978063
 10
-3.5578039191261013
 20
13.275679314169944
 10
-3.5621370515813044
 20
13.241801035175568
 10
-3.5666765867791814
 20
13.20785428397461
 10
-3.5714494218437185
 20
13.173831026042555
 10
-3.576482114475489
 20
13.139723184170743
 10
-3.5818008802370698
 20
13.105522633782368
 10
-3.5874315896007327
 20
13.071221197761112
 10
-3.593399764752073
 20
13.036810640809506
 10
-3.5997305761427243
 20
13.002282663354569
 10
-3.606448838784463
 20
12.967628895018745
 10
-3.613579008276194
 20
12.932840887674747
 10
-3.621145176554495
 20
12.897910108103453
 10
-3.6291710673573006
 20
12.862827930274767
 10
-3.632418072231049
 20
12.850267529752834
 10
-3.6363574032060453
 20
12.837906770334785
 10
-3.640976908714225
 20
12.825783780984736
 10
-3.646262339068022
 20
12.813935957222684
 10
-3.652197390416071
 20
12.802399845771355
 10
-3.6587637550353396
 20
12.791211031821328
 10
-3.6659411778045587
 20
12.780404029262183
 10
-3.673707518684757
 20
12.770012174218254
 10
-3.68203882101415
 20
12.760067522217417
 10
-3.690909385406733
 20
12.75060074931011
 10
-3.700291849026615
 20
12.741641057443584
 10
-3.710157269993557
 20
12.7332160843833
 10
-3.7204752166593607
 20
12.725351818459318
 10
-3.7312138614797044
 20
12.718072518400659
 10
-3.7423400791918757
 20
12.711400638504943
 10
-3.753819548995541
 20
12.705356759374101
 10
-3.765616860421371
 20
12.699959524429849
 10
-3.7776956225609384
 20
12.695225582404724
 10
-3.790018576320957
 20
12.691169535986113
 10
-3.9047898251176942
 20
12.656328117651553
 10
-4.01924085662154
 20
12.62044880091291
 10
-4.133362285129009
 20
12.58353452809953
 10
-4.247144751966135
 20
12.545588326413652
 10
-4.360578926255926
 20
12.506613307682168
 10
-4.473655505683576
 20
12.466612668101428
 10
-4.586365217259305
 20
12.425589687975133
 10
-4.698698818078795
 20
12.383547731445336
 10
-4.810647096081178
 20
12.340490246216547
 10
-4.922200870804476
 20
12.296420763273012
 10
-5.033350994138453
 20
12.25134289658915
 10
-5.144088351074826
 20
12.205260342833176
 10
-5.254403860454754
 20
12.15817688106396
 10
-5.2544038604547545
 20
12.158176881063959
 10
-5.266450967087626
 20
12.153362950892287
 10
-5.278746754983123
 20
12.149225282231017
 10
-5.291253295593357
 20
12.145776638456132
 10
-5.303932010266156
 20
12.143027657523628
 10
-5.31674378924778
 20
12.14098681915484
 10
-5.32964911232393
 20
12.13966041867923
 10
-5.3426081707268835
 20
12.139052547615321
 10
-5.355580989932732
 20
12.139165081049686
 10
-5.368527552969921
 20
12.139997671852901
 10
-5.381407923858722
 20
12.141547751750334
 10
-5.3941823708008805
 20
12.14381053924444
 10
-5.406811488739422
 20
12.146779054364146
 10
-5.419256320910568
 20
12.150444140195814
 10
-5.431478479012817
 20
12.154794491129374
 10
-5.443440261622495
 20
12.159816687732487
 10
-5.455104770490512
 20
12.165495238145178
 10
-5.466436024361584
 20
12.171812625867236
 10
-5.477399069964826
 20
12.178749363790981
 10
-5.48796008983334
 20
12.186284054312718
 10
-5.516658668113011
 20
12.207999618526152
 10
-5.544907761583422
 20
12.229894708888462
 10
-5.5727310883874654
 20
12.251960683997265
 10
-5.600152589066799
 20
12.274188594679325
 10
-5.627196428048611
 20
12.296569192819645
 10
-5.653886995109762
 20
12.319092939717331
 10
-5.680248906797535
 20
12.341750013959704
 10
-5.706307007787554
 20
12.36453031880596
 10
-5.73208637216039
 20
12.387423489071585
 10
-5.757612304579397
 20
12.410418897504677
 10
-5.782910341353159
 20
12.43350566064518
 10
-5.808006251366861
 20
12.45667264415792
 10
-5.832926036867425
 20
12.4799084676303
 10
-5.857695934088207
 20
12.503201508825423
 10
-5.882342413699298
 20
12.526539907381347
 10
-5.906892181070353
 20
12.549911567947095
 10
-5.931372176333101
 20
12.573304162746044
 10
-5.955809574231237
 20
12.596705133557267
 10
-5.980231783745683
 20
12.620101693105378
 10
-6.004666447483556
 20
12.643480825849469
 10
-6.029141440819431
 20
12.666829288161672
 10
-6.053684870777637
 20
12.69013360788597
 10
-6.078325074644505
 20
12.713380083267914
 10
-6.103090618299577
 20
12.736554781245959
 10
-6.128010294254837
 20
12.759643535095188
 10
-6.153113119390971
 20
12.78263194141435
 10
-6.178428332379613
 20
12.805505356447217
 10
-6.20398539078047
 20
12.828248891729443
 10
-6.229813967802006
 20
12.850847409052205
 10
-6.255943948714104
 20
12.873285514734208
 10
-6.282405426901058
 20
12.895547553193689
 10
-6.309228699542558
 20
12.917617599812488
 10
-6.336444262910424
 20
12.939479453084326
 10
-6.364082807267994
 20
12.961116626039855
 10
-6.392175211358931
 20
12.982512336941262
 10
-6.42075253647139
 20
13.00364949923969
 10
-6.449846020063236
 20
13.024510710788924
 10
-6.47948706893302
 20
13.045078242309444
 10
-6.509707251921018
 20
13.065334025097126
 10
-6.540538292123761
 20
13.085259637971605
 10
-6.572012058604685
 20
13.104836293459629
 10
-6.604160557582769
 20
13.124044823209424
 10
-6.63701592308005
 20
13.142865662632627
 10
-6.670610407007976
 20
13.161278834770977
 10
-6.704976368671586
 20
13.17926393338569
 10
-6.740146263669361
 20
13.196800105268117
 10
-6.776152632165643
 20
13.213866031771119
 10
-6.877107801881169
 20
13.161606599549508
 10
-6.977659961352242
 20
13.108575874737186
 10
-7.077803218050849
 20
13.054776965025065
 10
-7.1775317034113755
 20
13.00021302312099
 10
-7.2768395731745175
 20
12.944887246565004
 10
-7.375721007729761
 20
12.888802877541957
 10
-7.474170212456422
 20
12.831963202691517
 10
-7.572181418063223
 20
12.774371552915548
 10
-7.66974888092638
 20
12.716031303182945
 10
-7.766866883426189
 20
12.656945872331821
 10
-7.863529734282097
 20
12.597118722869185
 10
-7.959731768886203
 20
12.53655336076801
 10
-8.055467349635235
 20
12.4752533352618
 10
-8.058691007992657
 20
12.435537942194497
 10
-8.06108918515623
 20
12.396311833736778
 10
-8.062696613698128
 20
12.357557488603252
 10
-8.063547580826024
 20
12.319257226025467
 10
-8.063675938513624
 20
12.281393225142597
 10
-8.063115113269992
 20
12.24394754345914
 10
-8.06189811553669
 20
12.206902134389871
 10
-8.060057548702789
 20
12.170238863911955
 10
-8.057625617729116
 20
12.133939526343493
 10
-8.0546341373741
 20
12.097985859267183
 10
-8.051114540014664
 20
12.062359557617443
 10
-8.047097883056542
 20
12.027042286948632
 10
-8.042614855929365
 20
11.9920156959018
 10
-8.037695786662583
 20
11.957261427886756
 10
-8.032370648039295
 20
11.92276113199596
 10
-8.02666906332546
 20
11.888496473166384
 10
-8.020620311573001
 20
11.854449141605055
 10
-8.014253332495635
 20
11.820600861493775
 10
-8.007596730917028
 20
11.78693339898814
 10
-8.00067878079118
 20
11.753428569525882
 10
-7.993527428795732
 20
11.720068244459071
 10
-7.986170297498887
 20
11.68683435702484
 10
-7.978634688101359
 20
11.653708907668893
 10
-7.970947582754876
 20
11.620673968736048
 10
-7.963135646459098
 20
11.58771168854194
 10
-7.955225228539046
 20
11.55480429483998
 10
-7.947242363705311
 20
11.521934097697555
 10
-7.939212772699416
 20
11.489083491795581
 10
-7.931161862526818
 20
11.45623495816547
 10
-7.923114726280152
 20
11.423371065377685
 10
-7.915096142555198
 20
11.390474470196146
 10
-7.90713057446216
 20
11.357527917712941
 10
-7.89924216823463
 20
11.32451424097792
 10
-7.891454751438647
 20
11.291416360138031
 10
-7.883791830783997
 20
11.258217281101494
 10
-7.876276589539761
 20
11.22490009374217
 10
-7.868931884555812
 20
11.191447969659965
 10
-7.861780242891857
 20
11.157844159513276
 10
-7.854843858055085
 20
11.124071989940171
 10
-7.848144585847282
 20
11.090114860085308
 10
-7.841703939821843
 20
11.055956237750188
 10
-7.835543086350612
 20
11.021579655184974
 10
-7.829682839300112
 20
10.986968704540708
 10
-7.824143654316061
 20
10.952107033001486
 10
-7.8189456227145815
 20
10.916978337616987
 10
-7.814108464977874
 20
10.881566359856572
 10
-7.809651523851364
 20
10.845854879907167
 10
-7.808406800384142
 20
10.832941423150293
 10
-7.807880931924404
 20
10.819978778193166
 10
-7.808075540607082
 20
10.807006930623057
 10
-7.808990026127029
 20
10.794065894414341
 10
-7.810621567590772
 20
10.781195588498257
 10
-7.812965132218056
 20
10.768435713625859
 10
-7.816013490866354
 20
10.75582562990398
 10
-7.819757240330439
 20
10.74340423538196
 10
-7.824184832348257
 20
10.7312098460637
 10
-7.829282609223585
 20
10.719280077715117
 10
-7.835034845955638
 20
10.707651729831609
 10
-7.841423798745628
 20
10.696360672123458
 10
-7.848429759730674
 20
10.685441733869327
 10
-7.85603111777622
 20
10.674928596479143
 10
-7.8642044251394205
 20
10.664853689597779
 10
-7.872924469797886
 20
10.655248091070053
 10
-7.882164353220657
 20
10.64614143107557
 10
-7.891895573341508
 20
10.637561800729161
 10
-7.902088112478655
 20
10.629535665428829
 10
-7.998021341158876
 20
10.557541362759
 10
-8.093298681850996
 20
10.48468127538214
 10
-8.187912321214617
 20
10.410961378283075
 10
-8.281854500337012
 20
10.336387716956422
 10
-8.375117515369407
 20
10.26096640691083
 10
-8.467693718158758
 20
10.18470363316747
 10
-8.559575516874933
 20
10.107605649752823
 10
-8.650755376633304
 20
10.029678779185799
 10
-8.74122582011264
 20
9.95092941195927
 10
-8.830979428168298
 20
9.871364006016002
 10
-8.92000884044065
 20
9.790989086219053
 10
-9.008306755958667
 20
9.709811243816711
 10
-9.095865933738645
 20
9.627837135901956
 10
-9.095865933738647
 20
9.627837135901954
 10
-9.105540049856103
 20
9.619193168105422
 10
-9.115679144979689
 20
9.611099624258848
 10
-9.126251943264519
 20
9.603581470339849
 10
-9.137225831031063
 20
9.596661897433318
 10
-9.148566957367839
 20
9.5903622501944
 10
-9.16024033855058
 20
9.584701961007092
 10
-9.172209965955767
 20
9.579698490041604
 10
-9.184438917135644
 20
9.575367271395345
 10
-9.196889469712076
 20
9.571721665483707
 10
-9.209523217737955
 20
9.568772917827477
 10
-9.222301190167173
 20
9.56653012436403
 10
-9.23518397106776
 20
9.565000203389294
 10
-9.248131821207355
 20
9.564187874217021
 10
-9.26110480063593
 20
9.564095642621236
 10
-9.274062891887695
 20
9.564723793106724
 10
-9.286966123422093
 20
9.566070388031427
 10
-9.299774692923133
 20
9.568131273583445
 10
-9.312449090076733
 20
9.570900092594208
 10
-9.324950218447308
 20
9.574368304148296
 10
-9.359345221068438
 20
9.584958767739405
 10
-9.393379247690323
 20
9.595871663586735
 10
-9.427071630543129
 20
9.60709075934561
 10
-9.460441805579679
 20
9.618599457396481
 10
-9.493509316892277
 20
9.630380802633079
 10
-9.526293820946412
 20
9.642417489813583
 10
-9.55881509060894
 20
9.65469187047395
 10
-9.591093018949474
 20
9.66718595940183
 10
-9.623147622794606
 20
9.679881440669188
 10
-9.654999046015545
 20
9.692759673221254
 10
-9.686667562530461
 20
9.705801696018996
 10
-9.718173579003693
 20
9.718988232732013
 10
-9.749537637224455
 20
9.732299695978345
 10
-9.780780416148497
 20
9.74571619110745
 10
-9.811922733586478
 20
9.759217519522352
 10
-9.842985547523524
 20
9.77278318153664
 10
-9.873989957054699
 20
9.786392378761871
 10
-9.904957202921599
 20
9.800024016020775
 10
-9.935908667635585
 20
9.813656702781454
 10
-9.966865875173415
 20
9.82726875410771
 10
-9.997850490231373
 20
9.840838191120554
 10
-10.02888431702409
 20
9.854342740965897
 10
-10.059989297614392
 20
9.867759836283476
 10
-10.091187509760793
 20
9.88106661417194
 10
-10.122501164269053
 20
9.894239914645356
 10
-10.153952601834465
 20
9.90725627857616
 10
-10.185564289361405
 20
9.920091945120026
 10
-10.217358815746643
 20
9.932722848618074
 10
-10.249358887112859
 20
9.945124614972173
 10
-10.281587321478552
 20
9.957272557489313
 10
-10.314067042850551
 20
9.969141672191226
 10
-10.346821074724863
 20
9.980706632586003
 10
-10.379872532981578
 20
9.991941783898486
 10
-10.413244618159062
 20
10.002821136756978
 10
-10.446960607092505
 20
10.013318360333955
 10
-10.481043843901288
 20
10.023406774939312
 10
-10.515517730309519
 20
10.033059344064855
 10
-10.550405715283311
 20
10.042248665879702
 10
-10.585731283968151
 20
10.050946964176648
 10
-10.621517945909005
 20
10.059126078770412
 10
-10.657789222535317
 20
10.066757455349368
 10
-10.694568633892466
 20
10.07381213478321
 10
-10.73187968460052
 20
10.080260741889791
 10
-10.76974584902054
 20
10.086073473665481
 10
-10.808190555607977
 20
10.09122008698412
 10
-10.847237170431812
 20
10.095669885770985
 10
-10.886908979837608
 20
10.099391707658993
 10
-10.963902029350923
 20
10.015755203218312
 10
-11.040252575509005
 20
9.931531758443244
 10
-11.11595614403965
 20
9.846726308971279
 10
-11.191008298584649
 20
9.761343824546369
 10
-11.265404640959758
 20
9.675389308727704
 10
-11.339140811412452
 20
9.588867798596482
 10
-11.412212488877405
 20
9.501784364460738
 10
-11.484615391229708
 20
9.414144109558217
 10
-11.556345275535818
 20
9.325952169757304
 10
-11.627397938302199
 20
9.23721371325606
 10
-11.697769215721644
 20
9.147933940279357
 10
-11.7674549839173
 20
9.05811808277414
 10
-11.836451159184318
 20
8.967771404102818
 10
-11.825896942725608
 20
8.929348586212422
 10
-11.814734372872737
 20
8.89166787665535
 10
-11.802990094934938
 20
8.8547009315697
 10
-11.790690281169288
 20
8.818419409552144
 10
-11.777860646932304
 20
8.78279498641437
 10
-11.76452646617301
 20
8.747799369186335
 10
-11.750712586264084
 20
8.713404309389118
 10
-11.73644344216856
 20
8.679581615599474
 10
-11.721743069940546
 20
8.646303165327147
 10
-11.70663511955919
 20
8.613540916225126
 10
-11.691142867095982
 20
8.581266916652293
 10
-11.675289226216188
 20
8.549453315607021
 10
-11.659096759015949
 20
8.518072372049598
 10
-11.642587686197135
 20
8.4870964636307
 10
-11.625783896582824
 20
8.456498094842352
 10
-11.60870695597655
 20
8.426249904607465
 10
-11.591378115369336
 20
8.396324673323148
 10
-11.573818318498649
 20
8.366695329372876
 10
-11.556048208764128
 20
8.337334955121722
 10
-11.538088135505124
 20
8.30821679240891
 10
-11.519958159645617
 20
8.279314247551063
 10
-11.501678058712294
 20
8.250600895869699
 10
-11.483267331231861
 20
8.222050485755888
 10
-11.464745200514002
 20
8.193636942284943
 10
-11.446130617826476
 20
8.1653343703938
 10
-11.427442264969256
 20
8.137117057633551
 10
-11.408698556254468
 20
8.10895947650962
 10
-11.389917639899371
 20
8.08083628642187
 10
-11.371117398839363
 20
8.052722335217151
 10
-11.352315450968392
 20
8.024592660366615
 10
-11.333529148813986
 20
7.9964224897804215
 10
-11.314775578654197
 20
7.968187242272468
 10
-11.296071559083806
 20
7.939862527688109
 10
-11.277433639037001
 20
7.911424146707913
 10
-11.258878095273802
 20
7.882848090340985
 10
-11.240420929337324
 20
7.854110539121569
 10
-11.222077863988913
 20
7.825187862023204
 10
-11.203864339128133
 20
7.7960566151049875
 10
-11.185795507204274
 20
7.766693539905247
 10
-11.167886228126076
 20
7.737075561598251
 10
-11.150151063676011
 20
7.707179786930457
 10
-11.132604271435351
 20
7.676983501953327
 10
-11.115259798226026
 20
7.646464169570662
 10
-11.098131273074927
 20
7.615599426919143
 10
-11.081231999706155
 20
7.584367082601845
 10
-11.06457494856633
 20
7.552745113795346
 10
-11.048172748387804
 20
7.520711663252428
 10
-11.042586428599924
 20
7.509002703727814
 10
-11.037658788202688
 20
7.497001659521702
 10
-11.033405027380613
 20
7.48474554999257
 10
-11.029838267616636
 20
7.472272181293313
 10
-11.026969511216558
 20
7.45962002975144
 10
-11.024807607370478
 20
7.446828123181979
 10
-11.023359224855886
 20
7.433935920499236
 10
-11.022628831466633
 20
7.420983189998741
 10
-11.022618680231227
 20
7.408009886684861
 10
-11.023328802462963
 20
7.395056029022469
 10
-11.024757007663329
 20
7.382161575492863
 10
-11.026898890278991
 20
7.369366301334713
 10
-11.029747843291512
 20
7.35670967585025
 10
-11.03329507859787
 20
7.344230740655177
 10
-11.037529654118927
 20
7.331967989247847
 10
-11.04243850755223
 20
7.319959248269216
 10
-11.048006496665
 20
7.308241560819825
 10
-11.054216446003046
 20
7.296851072193765
 10
-11.061049199871524
 20
7.285822918382075
 10
-11.126573445232726
 20
7.185359306801709
 10
-11.191185241681865
 20
7.084306450624651
 10
-11.254879290645777
 20
6.982672636819858
 10
-11.317650368812375
 20
6.880466199998448
 10
-11.37949332855896
 20
6.7776955217302355
 10
-11.440403098374379
 20
6.674369029856375
 10
-11.500374683274904
 20
6.57049519779823
 10
-11.559403165213887
 20
6.466082543862486
 10
-11.617483703485023
 20
6.361139630542619
 10
-11.674611535119356
 20
6.2556750638167005
 10
-11.730781975275846
 20
6.149697492441665
 10
-11.785990417625584
 20
6.043215607244033
 10
-11.840232334729516
 20
5.936238140407243
 10
-11.840232334729516
 20
5.936238140407242
 10
-11.846366619153043
 20
5.924806725073488
 10
-11.853126096995704
 20
5.913733506877494
 10
-11.860489917444097
 20
5.9030526431331465
 10
-11.868435365482409
 20
5.892797080867136
 10
-11.876937931960919
 20
5.882998455187991
 10
-11.885971389198854
 20
5.873686991701948
 10
-11.895507871888324
 20
5.864891413276685
 10
-11.905517963049837
 20
5.856638851440522
 10
-11.915970784774212
 20
5.8489547626903855
 10
-11.926834093470983
 20
5.841862849966715
 10
-11.938074379329507
 20
5.835384989537516
 10
-11.949656969685934
 20
5.829541163517118
 10
-11.961546135977224
 20
5.82434939822778
 10
-11.973705203952255
 20
5.819825708594296
 10
-11.986096666800087
 20
5.815984048743096
 10
-11.9986823008464
 20
5.812836268958268
 10
-12.01142328346123
 20
5.810392079127241
 10
-12.024280312814282
 20
5.808659018788906
 10
-12.037213729108421
 20
5.80764243387657
 10
-12.073156611138725
 20
5.8058304306376725
 10
-12.108870565012744
 20
5.804444875673647
 10
-12.14436820529565
 20
5.8034639035578515
 10
-12.179662119088684
 20
5.802865270142305
 10
-12.214764872843277
 20
5.802626358365508
 10
-12.249689018853715
 20
5.802724183712282
 10
-12.284447101406874
 20
5.803135399332435
 10
-12.319051662568567
 20
5.803836300824121
 10
-12.353515247586705
 20
5.804802830687024
 10
-12.387850409892188
 20
5.806010582449813
 10
-12.422069715679031
 20
5.807434804475631
 10
-12.456185748045844
 20
5.8090504034487775
 10
-12.490211110681177
 20
5.810831947545279
 10
-12.524158431075929
 20
5.812753669289417
 10
-12.558040363246123
 20
5.814789468098077
 10
-12.591869589950047
 20
5.81691291251413
 10
-12.625658824383835
 20
5.819097242129921
 10
-12.65942081134008
 20
5.821315369201543
 10
-12.693168327814128
 20
5.8235398799544225
 10
-12.726914183043126
 20
5.825743035580413
 10
-12.760671217962965
 20
5.827896772926589
 10
-12.79445230406848
 20
5.82997270487571
 10
-12.82827034166241
 20
5.831942120418376
 10
-12.862138257478712
 20
5.833775984416787
 10
-12.896069001665952
 20
5.835444937060086
 10
-12.930075544116471
 20
5.836919293011406
 10
-12.96417087012714
 20
5.8381690402468145
 10
-12.998367975377466
 20
5.839163838586537
 10
-13.032679860210843
 20
5.839873017919092
 10
-13.06711952320459
 20
5.840265576119265
 10
-13.101699954014538
 20
5.8403101766610845
 10
-13.136434125479592
 20
5.839975145927593
 10
-13.171334984971823
 20
5.839228470219262
 10
-13.206415444977296
 20
5.838037792463833
 10
-13.24168837289287
 20
5.836370408630475
 10
-13.277166580023835
 20
5.8341932638522165
 10
-13.31286280976724
 20
5.831472948260778
 10
-13.348789724965384
 20
5.828175692539136
 10
-13.384959894413804
 20
5.824267363197522
 10
-13.421385778507817
 20
5.8197134575796845
 10
-13.458079714011356
 20
5.814479098607034
 10
-13.495053897931598
 20
5.808529029269217
 10
-13.53232037048257
 20
5.801827606870822
 10
-13.569890997120563
 20
5.794338797044915
 10
-13.607777449633938
 20
5.786026167545329
 10
-13.64599118626942
 20
5.776852881830898
 10
-13.684543430876841
 20
5.766781692455981
 10
-13.728287862120249
 20
5.6618559125751196
 10
-13.771227792284622
 20
5.55659833828284
 10
-13.813360705016828
 20
5.451015137852486
 10
-13.854684131256338
 20
5.345112498639651
 10
-13.895195649379902
 20
5.238896626719583
 10
-13.934892885343478
 20
5.132373746523504
 10
-13.973773512821344
 20
5.025550100473842
 10
-14.011835253342426
 20
4.918431948618418
 10
-14.04907587642383
 20
4.811025568263593
 10
-14.08549319970153
 20
4.703337253606414
 10
-14.121085089058289
 20
4.595373315365758
 10
-14.15584945874869
 20
4.487140080412509
 10
-14.189784271521395
 20
4.378643891398804
 10
-14.166725174515117
 20
4.346148007583295
 10
-14.143348228312046
 20
4.3145575466074995
 10
-14.119668777140932
 20
4.2838367607210595
 10
-14.095701721547792
 20
4.2539500662772864
 10
-14.07146153862044
 20
4.224862052075516
 10
-14.046962301336603
 20
4.1965374872209065
 10
-14.022217697040222
 20
4.168941328524306
 10
-13.997241045051135
 20
4.142038727463763
 10
-13.972045313413865
 20
4.115795036728033
 10
-13.94664313479176
 20
4.0901758163613025
 10
-13.921046821513139
 20
4.065146839527367
 10
-13.895268379776597
 20
4.040674097910439
 10
-13.869319523023009
 20
4.01672380676885
 10
-13.843211684482078
 20
3.9932624096571354
 10
-13.81695602890175
 20
3.970256582830942
 10
-13.790563463468954
 20
3.947673239348811
 10
-13.764044647930666
 20
3.925479532883775
 10
-13.737410003924264
 20
3.903642861257457
 10
-13.710669723526706
 20
3.8821308697084493
 10
-13.683833777032028
 20
3.8609114539065614
 10
-13.656911919967065
 20
3.839952762723669
 10
-13.629913699355379
 20
3.819223200771884
 10
-13.602848459239587
 20
3.7986914307191095
 10
-13.575725345472458
 20
3.7783263753919023
 10
-13.54855330978729
 20
3.7580972196752622
 10
-13.521341113158188
 20
3.737973412218801
 10
-13.49409732846103
 20
3.717924666958548
 10
-13.466830342445963
 20
3.6979209644636897
 10
-13.439548357032386
 20
3.67793255311738
 10
-13.41225938993755
 20
3.6579299501408564
 10
-13.3849712746498
 20
3.637883942470139
 10
-13.357691659757752
 20
3.617765587494771
 10
-13.330428007646617
 20
3.5975462136682115
 10
-13.30318759257304
 20
3.5771974209997235
 10
-13.275977498129794
 20
3.5566910814379367
 10
-13.248804614111771
 20
3.5359993391565734
 10
-13.22167563279473
 20
3.5150946107533594
 10
-13.19459704463833
 20
3.4939495853733704
 10
-13.16757513342496
 20
3.4725372247689177
 10
-13.140615970846008
 20
3.450830763308421
 10
-13.113725410547147
 20
3.428803707947532
 10
-13.086909081644356
 20
3.40642983817643
 10
-13.06017238172241
 20
3.38368320595809
 10
-13.033520469327595
 20
3.360538135673139
 10
-13.006958255966515
 20
3.3369692240880156
 10
-12.980490397622932
 20
3.3129513403640525
 10
-12.95412128580461
 20
3.2884596261264765
 10
-12.944867162307785
 20
3.279367437158632
 10
-12.936132096129183
 20
3.2697754967513446
 10
-12.927943032136325
 20
3.259713392953314
 10
-12.920325230955726
 20
3.2492121641159653
 10
-12.91330219105201
 20
3.238304203150124
 10
-12.906895576242704
 20
3.2270231576043127
 10
-12.90112514887233
 20
3.2154038258728947
 10
-12.89600870885194
 20
3.203482049854228
 10
-12.891562038752117
 20
3.1912946043899466
 10
-12.887798855118824
 20
3.1788790838264096
 10
-12.884730766162273
 20
3.1662737860482455
 10
-12.882367235949339
 20
3.1535175943417038
 10
-12.880715555209955
 20
3.140649857452233
 10
-12.879780818847559
 20
3.1277102682062674
 10
-12.879565910222956
 20
3.1147387410716325
 10
-12.880071492260079
 20
3.101775289034261
 10
-12.881296005401078
 20
3.0888599001710086
 10
-12.88323567241706
 20
3.076032414299311
 10
-12.885884510059624
 20
3.063332400084168
 10
-12.91309658107638
 20
2.9465168738348506
 10
-12.939249697062209
 20
2.829459714693866
 10
-12.964341713297328
 20
2.7121705220835373
 10
-12.988370572078791
 20
2.5946589144543903
 10
-13.011334302889246
 20
2.4769345284963777
 10
-13.033231022558526
 20
2.3590070183486134
 10
-13.054058935418075
 20
2.240886054807669
 10
-13.073816333448214
 20
2.12258132453451
 10
-13.0925015964182
 20
2.0041025292601296
 10
-13.110113192019103
 20
1.8854593849899426
 10
-13.12664967598946
 20
1.766661621207015
 10
-13.142109692233712
 20
1.6477189800741832
 10
-13.15649197293342
 20
1.5286412156351372
 10
-13.156491972933418
 20
1.5286412156351386
 10
-13.158346540429143
 20
1.5158011501631363
 10
-13.160911108203788
 20
1.5030838511554556
 10
-13.164177765391253
 20
1.490528547386088
 10
-13.168136435405584
 20
1.4781739679258583
 10
-13.172774907024008
 20
1.466058222675706
 10
-13.178078872054611
 20
1.4542186848099092
 10
-13.184031969472517
 20
1.442691875491871
 10
-13.190615835888378
 20
1.431513351218085
 10
-13.197810162193514
 20
1.4207175941377903
 10
-13.205592756206986
 20
1.410337905686639
 10
-13.213939611131327
 20
1.400406303862486
 10
-13.222824979605782
 20
1.3909534244601731
 10
-13.23222145312863
 20
1.382008426569961
 10
-13.242100046603596
 20
1.3735989026311233
 10
-13.25243028774953
 20
1.3657507933181516
 10
-13.2631803110976
 20
1.3584883075221257
 10
-13.274316956285993
 20
1.3518338476740752
 10
-13.285805870348973
 20
1.3458079406406926
 10
-13.297611613684708
 20
1.3404291744055556
 10
-13.330767133090891
 20
1.3264332586695813
 10
-13.363853384298011
 20
1.312916371271475
 10
-13.396874742703531
 20
1.2998536509957819
 10
-13.429835428366914
 20
1.2872198901386198
 10
-13.462739514399226
 20
1.274989537634674
 10
-13.49559093493161
 20
1.263136701967146
 10
-13.528393492644822
 20
1.2516351538743997
 10
-13.561150865842643
 20
1.2404583288657909
 10
-13.593866615052255
 20
1.2295793295583102
 10
-13.626544189135213
 20
1.2189709278447123
 10
-13.659186930892925
 20
1.2086055669030122
 10
-13.691798082150862
 20
1.198455363056428
 10
-13.724380788306078
 20
1.1884921074922707
 10
-13.756938102322843
 20
1.1786872678475055
 10
-13.789472988161465
 20
1.1690119896684072
 10
-13.821988323625556
 20
1.1594370977509496
 10
-13.854486902613257
 20
1.1499330973683624
 10
-13.886971436758062
 20
1.140470175391798
 10
-13.919444556445104
 20
1.1310182013097982
 10
-13.951908811188874
 20
1.1215467281519156
 10
-13.984366669358483
 20
1.112024993321695
 10
-14.016820517236741
 20
1.1024219193440268
 10
-14.049272657399388
 20
1.0927061145318688
 10
-14.081725306400942
 20
1.0828458735770672
 10
-14.114180591753732
 20
1.0728091780703495
 10
-14.14664054818671
 20
1.0625636969552796
 10
-14.179107113170799
 20
1.0520767869213365
 10
-14.211582121697502
 20
1.0413154927413046
 10
-14.244067300297647
 20
1.0302465475584341
 10
-14.276564260287111
 20
1.018836373129156
 10
-14.309074490226523
 20
1.0070510800273056
 10
-14.341599347581859
 20
0.9948564678165299
 10
-14.374140049573011
 20
0.9822180251975714
 10
-14.406697663197365
 20
0.9691009301380575
 10
-14.43927309441548
 20
0.9554700499926325
 10
-14.471867076486062
 20
0.9412899416222493
 10
-14.504480157437342
 20
0.9265248515217414
 10
-14.53711268666214
 20
0.9111387159659524
 10
-14.569764800623814
 20
0.895095161185174
 10
-14.60243640766046
 20
0.8783575035817379
 10
-14.635127171874682
 20
0.8608887500004901
 10
-14.667836496096399
 20
0.8426515980668295
 10
-14.700563503906078
 20
0.8236084366071629
 10
-14.73330702070611
 20
0.8037213461677265
 10
-14.766065553827824
 20
0.7829520996489131
 10
-14.798837271662023
 20
0.7612621630736236
 10
-14.831619981800884
 20
0.7386126965093207
 10
-14.836839570767378
 20
0.625053238781499
 10
-14.841189695634345
 20
0.5114571518680059
 10
-14.844670101477044
 20
0.39783109269324535
 10
-14.84728058433776
 20
0.2841817199380471
 10
-14.849020991237747
 20
0.17051569364945648
 10
-14.84989122018619
 20
0.056839674850444284
 10
-14.84989122018619
 20
-0.05683967485044065
 10
-14.849020991237747
 20
-0.17051569364945285
 10
-14.84728058433776
 20
-0.2841817199380434
 10
-14.844670101477044
 20
-0.3978310926932417
 10
-14.841189695634345
 20
-0.5114571518680022
 10
-14.83683957076738
 20
-0.6250532387814954
 10
-14.831619981800884
 20
-0.7386126965093172
 10
-14.798837271662023
 20
-0.7612621630736199
 10
-14.766065553827824
 20
-0.7829520996489095
 10
-14.73330702070611
 20
-0.8037213461677228
 10
-14.700563503906078
 20
-0.8236084366071593
 10
-14.667836496096399
 20
-0.842651598066826
 10
-14.635127171874682
 20
-0.8608887500004865
 10
-14.60243640766046
 20
-0.8783575035817343
 10
-14.569764800623814
 20
-0.8950951611851704
 10
-14.537112686662141
 20
-0.911138715965949
 10
-14.504480157437342
 20
-0.9265248515217378
 10
-14.471867076486062
 20
-0.9412899416222459
 10
-14.43927309441548
 20
-0.9554700499926292
 10
-14.406697663197365
 20
-0.969100930138054
 10
-14.374140049573013
 20
-0.9822180251975681
 10
-14.34159934758186
 20
-0.9948564678165263
 10
-14.309074490226523
 20
-1.007051080027302
 10
-14.276564260287111
 20
-1.0188363731291523
 10
-14.244067300297647
 20
-1.0302465475584308
 10
-14.211582121697504
 20
-1.0413154927413013
 10
-14.1791071131708
 20
-1.0520767869213332
 10
-14.14664054818671
 20
-1.062563696955276
 10
-14.114180591753732
 20
-1.0728091780703461
 10
-14.081725306400942
 20
-1.0828458735770636
 10
-14.049272657399388
 20
-1.0927061145318653
 10
-14.016820517236743
 20
-1.1024219193440232
 10
-13.984366669358483
 20
-1.1120249933216917
 10
-13.951908811188874
 20
-1.1215467281519123
 10
-13.919444556445104
 20
-1.1310182013097947
 10
-13.886971436758062
 20
-1.1404701753917945
 10
-13.854486902613257
 20
-1.149933097368359
 10
-13.821988323625558
 20
-1.1594370977509463
 10
-13.789472988161465
 20
-1.1690119896684037
 10
-13.756938102322843
 20
-1.178687267847502
 10
-13.724380788306078
 20
-1.1884921074922674
 10
-13.691798082150864
 20
-1.1984553630564247
 10
-13.659186930892925
 20
-1.208605566903009
 10
-13.626544189135213
 20
-1.2189709278447092
 10
-13.593866615052255
 20
-1.2295793295583068
 10
-13.561150865842643
 20
-1.2404583288657873
 10
-13.528393492644822
 20
-1.2516351538743964
 10
-13.49559093493161
 20
-1.263136701967143
 10
-13.462739514399226
 20
-1.274989537634671
 10
-13.429835428366914
 20
-1.2872198901386167
 10
-13.396874742703533
 20
-1.2998536509957785
 10
-13.363853384298011
 20
-1.312916371271472
 10
-13.330767133090891
 20
-1.326433258669578
 10
-13.29761161368471
 20
-1.340429174405552
 10
-13.285805870348975
 20
-1.3458079406406895
 10
-13.274316956285995
 20
-1.3518338476740723
 10
-13.263180311097601
 20
-1.3584883075221228
 10
-13.252430287749531
 20
-1.3657507933181492
 10
-13.242100046603598
 20
-1.3735989026311208
 10
-13.232221453128632
 20
-1.3820084265699588
 10
-13.222824979605782
 20
-1.3909534244601711
 10
-13.213939611131329
 20
-1.4004063038624843
 10
-13.205592756206988
 20
-1.4103379056866374
 10
-13.197810162193516
 20
-1.420717594137789
 10
-13.19061583588838
 20
-1.4315133512180838
 10
-13.18403196947252
 20
-1.4426918754918698
 10
-13.178078872054613
 20
-1.4542186848099083
 10
-13.172774907024008
 20
-1.4660582226757053
 10
-13.168136435405586
 20
-1.4781739679258576
 10
-13.164177765391255
 20
-1.4905285473860876
 10
-13.16091110820379
 20
-1.5030838511554552
 10
-13.158346540429145
 20
-1.515801150163136
 10
-13.15649197293342
 20
-1.5286412156351386
 10
-13.142109692233712
 20
-1.6477189800741832
 10
-13.12664967598946
 20
-1.766661621207015
 10
-13.110113192019103
 20
-1.8854593849899426
 10
-13.0925015964182
 20
-2.0041025292601238
 10
-13.073816333448214
 20
-2.1225813245345044
 10
-13.054058935418077
 20
-2.240886054807663
 10
-13.033231022558528
 20
-2.359007018348607
 10
-13.011334302889248
 20
-2.476934528496372
 10
-12.988370572078791
 20
-2.5946589144543846
 10
-12.964341713297332
 20
-2.712170522083526
 10
-12.939249697062213
 20
-2.8294597146938543
 10
-12.913096581076383
 20
-2.946516873834839
 10
-12.885884510059627
 20
-3.0633324000841573
 10
-12.885884510059627
 20
-3.063332400084156
 10
-12.883235672417063
 20
-3.0760324142992994
 10
-12.881296005401081
 20
-3.0888599001709975
 10
-12.880071492260083
 20
-3.1017752890342503
 10
-12.87956591022296
 20
-3.1147387410716223
 10
-12.879780818847562
 20
-3.127710268206257
 10
-12.880715555209958
 20
-3.1406498574522237
 10
-12.882367235949342
 20
-3.1535175943416944
 10
-12.884730766162274
 20
-3.1662737860482366
 10
-12.887798855118826
 20
-3.178879083826401
 10
-12.89156203875212
 20
-3.1912946043899386
 10
-12.896008708851943
 20
-3.2034820498542205
 10
-12.901125148872332
 20
-3.2154038258728876
 10
-12.906895576242706
 20
-3.227023157604306
 10
-12.913302191052011
 20
-3.238304203150118
 10
-12.920325230955727
 20
-3.24921216411596
 10
-12.927943032136326
 20
-3.259713392953309
 10
-12.936132096129187
 20
-3.26977549675134
 10
-12.944867162307787
 20
-3.279367437158628
 10
-12.954121285804613
 20
-3.2884596261264734
 10
-12.980490397622933
 20
-3.312951340364049
 10
-13.006958255966516
 20
-3.3369692240880124
 10
-13.033520469327595
 20
-3.3605381356731363
 10
-13.06017238172241
 20
-3.383683205958087
 10
-13.086909081644356
 20
-3.406429838176427
 10
-13.113725410547147
 20
-3.4288037079475293
 10
-13.140615970846008
 20
-3.4508307633084185
 10
-13.167575133424961
 20
-3.472537224768915
 10
-13.19459704463833
 20
-3.493949585373367
 10
-13.221675632794732
 20
-3.5150946107533563
 10
-13.248804614111773
 20
-3.5359993391565703
 10
-13.275977498129794
 20
-3.5566910814379327
 10
-13.303187592573043
 20
-3.577197420999721
 10
-13.330428007646619
 20
-3.5975462136682084
 10
-13.357691659757752
 20
-3.617765587494767
 10
-13.3849712746498
 20
-3.6378839424701357
 10
-13.412259389937551
 20
-3.6579299501408533
 10
-13.439548357032388
 20
-3.677932553117377
 10
-13.466830342445963
 20
-3.6979209644636866
 10
-13.49409732846103
 20
-3.717924666958545
 10
-13.521341113158188
 20
-3.737973412218797
 10
-13.54855330978729
 20
-3.758097219675259
 10
-13.57572534547246
 20
-3.778326375391899
 10
-13.602848459239587
 20
-3.7986914307191064
 10
-13.629913699355379
 20
-3.81922320077188
 10
-13.656911919967065
 20
-3.839952762723665
 10
-13.683833777032028
 20
-3.8609114539065574
 10
-13.710669723526706
 20
-3.8821308697084453
 10
-13.737410003924266
 20
-3.903642861257454
 10
-13.764044647930666
 20
-3.925479532883772
 10
-13.790563463468956
 20
-3.947673239348808
 10
-13.81695602890175
 20
-3.970256582830939
 10
-13.843211684482078
 20
-3.9932624096571323
 10
-13.86931952302301
 20
-4.016723806768847
 10
-13.8952683797766
 20
-4.0406740979104345
 10
-13.92104682151314
 20
-4.065146839527363
 10
-13.946643134791762
 20
-4.090175816361299
 10
-13.972045313413865
 20
-4.11579503672803
 10
-13.997241045051135
 20
-4.142038727463759
 10
-14.022217697040224
 20
-4.168941328524302
 10
-14.046962301336604
 20
-4.196537487220903
 10
-14.071461538620442
 20
-4.224862052075512
 10
-14.095701721547792
 20
-4.253950066277284
 10
-14.119668777140932
 20
-4.283836760721057
 10
-14.143348228312048
 20
-4.314557546607495
 10
-14.166725174515118
 20
-4.346148007583292
 10
-14.189784271521395
 20
-4.3786438913988
 10
-14.155849458748692
 20
-4.487140080412506
 10
-14.12108508905829
 20
-4.595373315365754
 10
-14.085493199701531
 20
-4.703337253606411
 10
-14.04907587642383
 20
-4.81102556826359
 10
-14.011835253342428
 20
-4.918431948618413
 10
-13.973773512821344
 20
-5.025550100473838
 10
-13.93489288534348
 20
-5.1323737465235
 10
-13.895195649379904
 20
-5.23889662671958
 10
-13.854684131256338
 20
-5.345112498639647
 10
-13.81336070501683
 20
-5.451015137852482
 10
-13.771227792284623
 20
-5.556598338282837
 10
-13.728287862120249
 20
-5.661855912575117
 10
-13.684543430876843
 20
-5.766781692455978
 10
-13.645991186269422
 20
-5.776852881830894
 10
-13.60777744963394
 20
-5.786026167545326
 10
-13.569890997120565
 20
-5.794338797044912
 10
-13.53232037048257
 20
-5.801827606870819
 10
-13.4950538979316
 20
-5.808529029269215
 10
-13.458079714011358
 20
-5.8144790986070305
 10
-13.421385778507819
 20
-5.819713457579682
 10
-13.384959894413804
 20
-5.824267363197519
 10
-13.348789724965384
 20
-5.828175692539133
 10
-13.312862809767243
 20
-5.831472948260775
 10
-13.277166580023836
 20
-5.834193263852212
 10
-13.241688372892872
 20
-5.836370408630471
 10
-13.206415444977296
 20
-5.83803779246383
 10
-13.171334984971825
 20
-5.839228470219259
 10
-13.136434125479594
 20
-5.839975145927589
 10
-13.10169995401454
 20
-5.840310176661082
 10
-13.06711952320459
 20
-5.84026557611926
 10
-13.032679860210845
 20
-5.839873017919088
 10
-12.998367975377468
 20
-5.8391638385865345
 10
-12.964170870127141
 20
-5.838169040246812
 10
-12.930075544116473
 20
-5.836919293011403
 10
-12.896069001665953
 20
-5.835444937060084
 10
-12.862138257478714
 20
-5.833775984416785
 10
-12.828270341662412
 20
-5.831942120418374
 10
-12.794452304068482
 20
-5.829972704875708
 10
-12.760671217962967
 20
-5.827896772926586
 10
-12.726914183043128
 20
-5.825743035580411
 10
-12.69316832781413
 20
-5.82353987995442
 10
-12.659420811340082
 20
-5.821315369201541
 10
-12.625658824383837
 20
-5.819097242129918
 10
-12.591869589950049
 20
-5.816912912514128
 10
-12.558040363246125
 20
-5.814789468098074
 10
-12.52415843107593
 20
-5.812753669289414
 10
-12.490211110681178
 20
-5.810831947545276
 10
-12.456185748045845
 20
-5.809050403448774
 10
-12.422069715679033
 20
-5.807434804475628
 10
-12.38785040989219
 20
-5.80601058244981
 10
-12.353515247586706
 20
-5.804802830687022
 10
-12.319051662568569
 20
-5.803836300824118
 10
-12.284447101406876
 20
-5.803135399332432
 10
-12.249689018853717
 20
-5.802724183712279
 10
-12.21476487284328
 20
-5.8026263583655044
 10
-12.179662119088686
 20
-5.802865270142302
 10
-12.144368205295653
 20
-5.803463903557848
 10
-12.108870565012744
 20
-5.804444875673643
 10
-12.073156611138726
 20
-5.80583043063767
 10
-12.037213729108423
 20
-5.807642433876566
 10
-12.024280312814284
 20
-5.8086590187889025
 10
-12.011423283461234
 20
-5.810392079127237
 10
-11.998682300846403
 20
-5.812836268958264
 10
-11.986096666800089
 20
-5.815984048743092
 10
-11.973705203952258
 20
-5.819825708594291
 10
-11.961546135977228
 20
-5.824349398227776
 10
-11.949656969685938
 20
-5.829541163517113
 10
-11.93807437932951
 20
-5.835384989537511
 10
-11.926834093470987
 20
-5.841862849966709
 10
-11.915970784774215
 20
-5.848954762690379
 10
-11.905517963049842
 20
-5.856638851440515
 10
-11.895507871888329
 20
-5.864891413276679
 10
-11.88597138919886
 20
-5.873686991701941
 10
-11.876937931960924
 20
-5.882998455187984
 10
-11.868435365482414
 20
-5.892797080867129
 10
-11.860489917444102
 20
-5.9030526431331385
 10
-11.853126096995709
 20
-5.913733506877486
 10
-11.846366619153049
 20
-5.92480672507348
 10
-11.84023233472952
 20
-5.936238140407233
 10
-11.785990417625591
 20
-6.043215607244023
 10
-11.730781975275852
 20
-6.149697492441655
 10
-11.674611535119357
 20
-6.255675063816695
 10
-11.617483703485028
 20
-6.361139630542608
 10
-11.559403165213892
 20
-6.466082543862476
 10
-11.500374683274911
 20
-6.57049519779822
 10
-11.44040309837438
 20
-6.674369029856369
 10
-11.379493328558963
 20
-6.77769552173023
 10
-11.317650368812378
 20
-6.880466199998442
 10
-11.254879290645784
 20
-6.9826726368198475
 10
-11.191185241681866
 20
-7.084306450624645
 10
-11.126573445232728
 20
-7.185359306801703
 10
-11.061049199871526
 20
-7.285822918382072
 10
-11.061049199871526
 20
-7.285822918382073
 10
-11.054216446003048
 20
-7.296851072193763
 10
-11.048006496665002
 20
-7.308241560819823
 10
-11.042438507552232
 20
-7.319959248269213
 10
-11.037529654118929
 20
-7.331967989247844
 10
-11.03329507859787
 20
-7.344230740655173
 10
-11.029747843291513
 20
-7.356709675850247
 10
-11.026898890278993
 20
-7.3693663013347095
 10
-11.02475700766333
 20
-7.38216157549286
 10
-11.023328802462965
 20
-7.395056029022466
 10
-11.022618680231231
 20
-7.408009886684857
 10
-11.022628831466635
 20
-7.420983189998736
 10
-11.023359224855888
 20
-7.433935920499231
 10
-11.024807607370482
 20
-7.446828123181974
 10
-11.026969511216562
 20
-7.459620029751434
 10
-11.02983826761664
 20
-7.472272181293307
 10
-11.033405027380617
 20
-7.484745549992563
 10
-11.037658788202691
 20
-7.497001659521696
 10
-11.042586428599927
 20
-7.509002703727806
 10
-11.04817274838781
 20
-7.52071166325242
 10
-11.064574948566337
 20
-7.552745113795339
 10
-11.08123199970616
 20
-7.584367082601838
 10
-11.098131273074932
 20
-7.615599426919136
 10
-11.11525979822603
 20
-7.6464641695706534
 10
-11.132604271435357
 20
-7.676983501953319
 10
-11.150151063676017
 20
-7.707179786930448
 10
-11.167886228126081
 20
-7.737075561598243
 10
-11.185795507204277
 20
-7.76669353990524
 10
-11.203864339128137
 20
-7.7960566151049795
 10
-11.22207786398892
 20
-7.8251878620231965
 10
-11.24042092933733
 20
-7.854110539121562
 10
-11.258878095273808
 20
-7.882848090340978
 10
-11.277433639037008
 20
-7.911424146707905
 10
-11.296071559083812
 20
-7.939862527688101
 10
-11.314775578654203
 20
-7.968187242272461
 10
-11.33352914881399
 20
-7.9964224897804135
 10
-11.3523154509684
 20
-8.024592660366608
 10
-11.371117398839369
 20
-8.052722335217144
 10
-11.389917639899377
 20
-8.080836286421864
 10
-11.408698556254475
 20
-8.108959476509613
 10
-11.427442264969262
 20
-8.137117057633542
 10
-11.446130617826487
 20
-8.165334370393786
 10
-11.464745200514008
 20
-8.193636942284936
 10
-11.483267331231868
 20
-8.22205048575588
 10
-11.501678058712299
 20
-8.250600895869692
 10
-11.519958159645622
 20
-8.279314247551056
 10
-11.538088135505129
 20
-8.308216792408901
 10
-11.556048208764135
 20
-8.337334955121714
 10
-11.573818318498654
 20
-8.366695329372867
 10
-11.591378115369341
 20
-8.396324673323141
 10
-11.608706955976555
 20
-8.426249904607456
 10
-11.625783896582828
 20
-8.456498094842344
 10
-11.64258768619714
 20
-8.48709646363069
 10
-11.659096759015954
 20
-8.518072372049588
 10
-11.675289226216194
 20
-8.549453315607012
 10
-11.691142867095987
 20
-8.581266916652286
 10
-11.706635119559193
 20
-8.613540916225118
 10
-11.72174306994055
 20
-8.646303165327138
 10
-11.736443442168566
 20
-8.679581615599467
 10
-11.75071258626409
 20
-8.713404309389109
 10
-11.764526466173017
 20
-8.747799369186327
 10
-11.77786064693231
 20
-8.782794986414363
 10
-11.790690281169294
 20
-8.818419409552135
 10
-11.802990094934945
 20
-8.854700931569692
 10
-11.814734372872744
 20
-8.891667876655342
 10
-11.825896942725613
 20
-8.929348586212413
 10
-11.836451159184325
 20
-8.96777140410281
 10
-11.767454983917307
 20
-9.058118082774131
 10
-11.697769215721651
 20
-9.14793394027935
 10
-11.627397938302204
 20
-9.23721371325605
 10
-11.556345275535826
 20
-9.325952169757295
 10
-11.484615391229715
 20
-9.41414410955821
 10
-11.412212488877412
 20
-9.501784364460732
 10
-11.33914081141246
 20
-9.588867798596473
 10
-11.265404640959764
 20
-9.675389308727695
 10
-11.191008298584652
 20
-9.761343824546362
 10
-11.115956144039655
 20
-9.84672630897127
 10
-11.040252575509012
 20
-9.931531758443237
 10
-10.963902029350931
 20
-10.015755203218305
 10
-10.886908979837616
 20
-10.099391707658986
 10
-10.84723717043182
 20
-10.095669885770976
 10
-10.808190555607982
 20
-10.09122008698411
 10
-10.769745849020547
 20
-10.086073473665474
 10
-10.731879684600527
 20
-10.080260741889786
 10
-10.694568633892475
 20
-10.073812134783202
 10
-10.657789222535323
 20
-10.066757455349363
 10
-10.62151794590901
 20
-10.059126078770404
 10
-10.585731283968158
 20
-10.050946964176642
 10
-10.550405715283318
 20
-10.042248665879695
 10
-10.515517730309526
 20
-10.03305934406485
 10
-10.481043843901295
 20
-10.023406774939307
 10
-10.446960607092512
 20
-10.013318360333948
 10
-10.41324461815907
 20
-10.002821136756971
 10
-10.379872532981585
 20
-9.991941783898481
 10
-10.346821074724872
 20
-9.980706632585996
 10
-10.314067042850558
 20
-9.969141672191219
 10
-10.281587321478558
 20
-9.957272557489306
 10
-10.249358887112866
 20
-9.945124614972165
 10
-10.21735881574665
 20
-9.932722848618065
 10
-10.18556428936141
 20
-9.920091945120019
 10
-10.153952601834472
 20
-9.907256278576153
 10
-10.122501164269059
 20
-9.894239914645349
 10
-10.0911875097608
 20
-9.881066614171933
 10
-10.059989297614399
 20
-9.867759836283467
 10
-10.028884317024094
 20
-9.854342740965894
 10
-9.99785049023138
 20
-9.840838191120547
 10
-9.96686587517342
 20
-9.8272687541077
 10
-9.935908667635593
 20
-9.813656702781445
 10
-9.904957202921608
 20
-9.80002401602077
 10
-9.873989957054706
 20
-9.786392378761864
 10
-9.842985547523533
 20
-9.772783181536633
 10
-9.811922733586485
 20
-9.759217519522347
 10
-9.780780416148502
 20
-9.745716191107443
 10
-9.749537637224462
 20
-9.732299695978337
 10
-9.718173579003702
 20
-9.718988232732006
 10
-9.686667562530468
 20
-9.70580169601899
 10
-9.65499904601555
 20
-9.692759673221246
 10
-9.623147622794614
 20
-9.679881440669183
 10
-9.59109301894948
 20
-9.667185959401822
 10
-9.558815090608945
 20
-9.654691870473943
 10
-9.526293820946417
 20
-9.642417489813576
 10
-9.493509316892284
 20
-9.630380802633072
 10
-9.460441805579688
 20
-9.618599457396474
 10
-9.427071630543136
 20
-9.607090759345603
 10
-9.39337924769033
 20
-9.595871663586728
 10
-9.359345221068445
 20
-9.584958767739398
 10
-9.324950218447317
 20
-9.574368304148289
 10
-9.312449090076742
 20
-9.5709000925942
 10
-9.299774692923144
 20
-9.568131273583438
 10
-9.286966123422102
 20
-9.56607038803142
 10
-9.274062891887706
 20
-9.564723793106717
 10
-9.26110480063594
 20
-9.56409564262123
 10
-9.248131821207364
 20
-9.564187874217014
 10
-9.235183971067771
 20
-9.565000203389285
 10
-9.222301190167183
 20
-9.566530124364023
 10
-9.209523217737965
 20
-9.568772917827468
 10
-9.196889469712088
 20
-9.571721665483699
 10
-9.184438917135655
 20
-9.575367271395336
 10
-9.172209965955778
 20
-9.579698490041595
 10
-9.16024033855059
 20
-9.584701961007083
 10
-9.14856695736785
 20
-9.59036225019439
 10
-9.137225831031076
 20
-9.596661897433309
 10
-9.126251943264531
 20
-9.60358147033984
 10
-9.1156791449797
 20
-9.611099624258838
 10
-9.105540049856115
 20
-9.619193168105411
 10
-9.09586593373866
 20
-9.627837135901943
 10
-9.008306755958683
 20
-9.709811243816695
 10
-8.920008840440667
 20
-9.790989086219039
 10
-8.830979428168321
 20
-9.871364006015982
 10
-8.741225820112662
 20
-9.950929411959251
 10
-8.650755376633333
 20
-10.029678779185776
 10
-8.559575516874965
 20
-10.107605649752799
 10
-8.467693718158786
 20
-10.184703633167448
 10
-8.375117515369437
 20
-10.260966406910804
 10
-8.281854500337047
 20
-10.336387716956393
 10
-8.187912321214656
 20
-10.410961378283046
 10
-8.093298681851039
 20
-10.48468127538211
 10
-7.998021341158917
 20
-10.557541362758966
 10
-7.902088112478704
 20
-10.629535665428794
 10
-7.902088112478703
 20
-10.629535665428795
 10
-7.891895573341555
 20
-10.637561800729127
 10
-7.882164353220702
 20
-10.646141431075538
 10
-7.87292446979793
 20
-10.655248091070021
 10
-7.864204425139462
 20
-10.664853689597749
 10
-7.85603111777626
 20
-10.674928596479113
 10
-7.848429759730712
 20
-10.6854417338693
 10
-7.841423798745664
 20
-10.696360672123431
 10
-7.835034845955673
 20
-10.707651729831582
 10
-7.829282609223619
 20
-10.719280077715093
 10
-7.824184832348289
 20
-10.731209846063678
 10
-7.819757240330469
 20
-10.743404235381938
 10
-7.816013490866381
 20
-10.755825629903958
 10
-7.812965132218082
 20
-10.768435713625841
 10
-7.810621567590796
 20
-10.781195588498239
 10
-7.808990026127051
 20
-10.794065894414326
 10
-7.808075540607102
 20
-10.807006930623043
 10
-7.807880931924422
 20
-10.819978778193153
 10
-7.808406800384157
 20
-10.832941423150283
 10
-7.809651523851376
 20
-10.845854879907158
 10
-7.8141084649778865
 20
-10.881566359856564
 10
-7.818945622714589
 20
-10.916978337616984
 10
-7.824143654316064
 20
-10.952107033001484
 10
-7.82968283930012
 20
-10.986968704540704
 10
-7.8355430863506195
 20
-11.021579655184967
 10
-7.84170393982185
 20
-11.05595623775018
 10
-7.84814458584729
 20
-11.0901148600853
 10
-7.854843858055096
 20
-11.124071989940163
 10
-7.86178024289186
 20
-11.157844159513274
 10
-7.868931884555819
 20
-11.191447969659961
 10
-7.876276589539769
 20
-11.224900093742166
 10
-7.883791830784005
 20
-11.258217281101487
 10
-7.891454751438655
 20
-11.291416360138026
 10
-7.899242168234638
 20
-11.324514240977914
 10
-7.907130574462173
 20
-11.357527917712932
 10
-7.915096142555211
 20
-11.390474470196137
 10
-7.923114726280154
 20
-11.423371065377683
 10
-7.931161862526825
 20
-11.456234958165464
 10
-7.9392127726994275
 20
-11.489083491795572
 10
-7.9472423637053184
 20
-11.521934097697551
 10
-7.955225228539054
 20
-11.554804294839974
 10
-7.963135646459102
 20
-11.587711688541937
 10
-7.97094758275489
 20
-11.620673968736037
 10
-7.978634688101373
 20
-11.653708907668884
 10
-7.986170297498895
 20
-11.686834357024834
 10
-7.993527428795741
 20
-11.720068244459066
 10
-8.000678780791183
 20
-11.75342856952588
 10
-8.007596730917035
 20
-11.786933398988134
 10
-8.014253332495649
 20
-11.820600861493766
 10
-8.02062031157301
 20
-11.85444914160505
 10
-8.026669063325464
 20
-11.888496473166382
 10
-8.032370648039299
 20
-11.922761131995959
 10
-8.03769578666259
 20
-11.957261427886749
 10
-8.042614855929369
 20
-11.992015695901799
 10
-8.047097883056551
 20
-12.027042286948628
 10
-8.051114540014668
 20
-12.06235955761744
 10
-8.054634137374114
 20
-12.097985859267176
 10
-8.057625617729117
 20
-12.133939526343491
 10
-8.0600575487028
 20
-12.170238863911951
 10
-8.0618981155367
 20
-12.206902134389864
 10
-8.063115113270001
 20
-12.243947543459136
 10
-8.063675938513631
 20
-12.28139322514259
 10
-8.063547580826038
 20
-12.319257226025456
 10
-8.062696613698137
 20
-12.357557488603248
 10
-8.061089185156245
 20
-12.396311833736767
 10
-8.058691007992673
 20
-12.435537942194486
 10
-8.055467349635236
 20
-12.475253335261797
 10
-7.959731768886207
 20
-12.536553360768009
 10
-7.8635297342821
 20
-12.597118722869181
 10
-7.766866883426193
 20
-12.65694587233182
 10
-7.669748880926383
 20
-12.716031303182943
 10
-7.572181418063225
 20
-12.774371552915547
 10
-7.474170212456425
 20
-12.831963202691515
 10
-7.375721007729776
 20
-12.88880287754195
 10
-7.276839573174533
 20
-12.944887246564996
 10
-7.177531703411391
 20
-13.000213023120981
 10
-7.077803218050864
 20
-13.054776965025056
 10
-6.9776599613522565
 20
-13.10857587473718
 10
-6.877107801881184
 20
-13.161606599549499
 10
-6.776152632165657
 20
-13.213866031771111
 10
-6.740146263669364
 20
-13.196800105268116
 10
-6.7049763686715895
 20
-13.179263933385686
 10
-6.6706104070079855
 20
-13.161278834770973
 10
-6.637015923080053
 20
-13.142865662632625
 10
-6.604160557582778
 20
-13.12404482320942
 10
-6.5720120586046935
 20
-13.104836293459623
 10
-6.54053829212377
 20
-13.085259637971602
 10
-6.509707251921027
 20
-13.065334025097123
 10
-6.479487068933035
 20
-13.045078242309435
 10
-6.44984602006324
 20
-13.024510710788922
 10
-6.420752536471404
 20
-13.003649499239682
 10
-6.39217521135894
 20
-12.982512336941259
 10
-6.36408280726801
 20
-12.961116626039848
 10
-6.336444262910432
 20
-12.939479453084322
 10
-6.309228699542572
 20
-12.91761759981248
 10
-6.2824054269010725
 20
-12.895547553193682
 10
-6.255943948714113
 20
-12.873285514734206
 10
-6.229813967802008
 20
-12.850847409052205
 10
-6.203985390780479
 20
-12.828248891729437
 10
-6.178428332379627
 20
-12.80550535644721
 10
-6.15311311939098
 20
-12.782631941414344
 10
-6.128010294254846
 20
-12.759643535095183
 10
-6.103090618299579
 20
-12.736554781245957
 10
-6.078325074644509
 20
-12.713380083267912
 10
-6.053684870777652
 20
-12.690133607885963
 10
-6.02914144081944
 20
-12.66682928816167
 10
-6.004666447483565
 20
-12.643480825849466
 10
-5.980231783745686
 20
-12.620101693105376
 10
-5.955809574231247
 20
-12.596705133557261
 10
-5.931372176333115
 20
-12.573304162746037
 10
-5.906892181070356
 20
-12.549911567947094
 10
-5.882342413699301
 20
-12.526539907381345
 10
-5.857695934088217
 20
-12.50320150882542
 10
-5.832926036867434
 20
-12.479908467630295
 10
-5.80800625136687
 20
-12.456672644157916
 10
-5.782910341353169
 20
-12.433505660645176
 10
-5.757612304579405
 20
-12.410418897504673
 10
-5.7320863721604045
 20
-12.387423489071578
 10
-5.706307007787557
 20
-12.36453031880596
 10
-5.6802489067975435
 20
-12.341750013959702
 10
-5.6538869951097706
 20
-12.319092939717326
 10
-5.627196428048617
 20
-12.296569192819641
 10
-5.600152589066805
 20
-12.274188594679323
 10
-5.57273108838748
 20
-12.25196068399726
 10
-5.544907761583434
 20
-12.229894708888457
 10
-5.516658668113013
 20
-12.207999618526152
 10
-5.487960089833343
 20
-12.186284054312718
 10
-5.477399069964826
 20
-12.178749363790983
 10
-5.466436024361581
 20
-12.171812625867238
 10
-5.4551047704905065
 20
-12.16549523814518
 10
-5.443440261622487
 20
-12.15981668773249
 10
-5.4314784790128074
 20
-12.15479449112938
 10
-5.419256320910556
 20
-12.15044414019582
 10
-5.406811488739407
 20
-12.146779054364153
 10
-5.3941823708008645
 20
-12.143810539244447
 10
-5.3814079238587045
 20
-12.141547751750341
 10
-5.368527552969901
 20
-12.13999767185291
 10
-5.355580989932711
 20
-12.139165081049695
 10
-5.34260817072686
 20
-12.139052547615332
 10
-5.329649112323905
 20
-12.139660418679242
 10
-5.316743789247753
 20
-12.140986819154852
 10
-5.303932010266127
 20
-12.143027657523643
 10
-5.291253295593328
 20
-12.145776638456146
 10
-5.278746754983091
 20
-12.149225282231033
 10
-5.266450967087593
 20
-12.153362950892303
 10
-5.25440386045472
 20
-12.158176881063975
 10
-5.144088351074797
 20
-12.20526034283319
 10
-5.033350994138431
 20
-12.25134289658916
 10
-4.92220087080446
 20
-12.296420763273018
 10
-4.810647096081173
 20
-12.340490246216548
 10
-4.698698818078795
 20
-12.383547731445336
 10
-4.5863652172593135
 20
-12.425589687975132
 10
-4.47365550568359
 20
-12.466612668101423
 10
-4.360578926255948
 20
-12.50661330768216
 10
-4.247144751966163
 20
-12.545588326413643
 10
-4.133362285129049
 20
-12.583534528099516
 10
-4.019240856621585
 20
-12.620448800912897
 10
-3.904789825117748
 20
-12.656328117651537
 10
-3.790018576321018
 20
-12.691169535986099
 10
-3.7900185763210192
 20
-12.691169535986097
 10
-3.777695622560999
 20
-12.69522558240471
 10
-3.765616860421429
 20
-12.699959524429834
 10
-3.7538195489955966
 20
-12.705356759374089
 10
-3.7423400791919286
 20
-12.71140063850493
 10
-3.731213861479755
 20
-12.718072518400646
 10
-3.7204752166594086
 20
-12.725351818459306
 10
-3.7101572699936023
 20
-12.733216084383288
 10
-3.7002918490266574
 20
-12.741641057443573
 10
-3.690909385406773
 20
-12.750600749310099
 10
-3.6820388210141872
 20
-12.760067522217406
 10
-3.673707518684791
 20
-12.770012174218245
 10
-3.66594117780459
 20
-12.780404029262174
 10
-3.658763755035367
 20
-12.791211031821321
 10
-3.652197390416096
 20
-12.802399845771347
 10
-3.646262339068043
 20
-12.813935957222679
 10
-3.6409769087142423
 20
-12.825783780984732
 10
-3.6363574032060595
 20
-12.837906770334781
 10
-3.6324180722310593
 20
-12.850267529752834
 10
-3.629171067357307
 20
-12.862827930274767
 10
-3.6211451765544975
 20
-12.897910108103453
 10
-3.613579008276191
 20
-12.932840887674747
 10
-3.606448838784458
 20
-12.967628895018747
 10
-3.5997305761427274
 20
-13.002282663354567
 10
-3.593399764752076
 20
-13.036810640809504
 10
-3.5874315896007327
 20
-13.071221197761112
 10
-3.5818008802370676
 20
-13.105522633782368
 10
-3.5764821144754917
 20
-13.139723184170743
 10
-3.5714494218437163
 20
-13.173831026042556
 10
-3.5666765867791845
 20
-13.20785428397461
 10
-3.5621370515813076
 20
-13.241801035175566
 10
-3.557803919126098
 20
-13.275679314169945
 10
-3.5536499553485843
 20
-13.309497116978063
 10
-3.549647591498119
 20
-13.343262404775658
 10
-3.5457689261712773
 20
-13.376983107017118
 10
-3.54198572712628
 20
-13.410667124006775
 10
-3.538269432882844
 20
-13.444322328902725
 10
-3.5345911541107844
 20
-13.477956569138152
 10
-3.53092167481037
 20
-13.51157766724514
 10
-3.527231453287616
 20
-13.545193421066253
 10
-3.5234906229268135
 20
-13.57881160333935
 10
-3.519668992763195
 20
-13.612439960641161
 10
-3.51573604785807
 20
-13.646086211675371
 10
-3.511660949478797
 20
-13.679758044891043
 10
-3.5074125350863246
 20
-13.713463115417236
 10
-3.502959318132598
 20
-13.747209041299824
 10
-3.498269487670616
 20
-13.781003399026584
 10
-3.4933109077800615
 20
-13.814853718326518
 10
-3.4880511168114094
 20
-13.848767476229625
 10
-3.482457326452114
 20
-13.882752090373085
 10
-3.476496420618396
 20
-13.916814911540035
 10
-3.470134954176878
 20
-13.950963215416943
 10
-3.4633391515005005
 20
-13.985204193555619
 10
-3.4560749048639394
 20
-14.019544943525826
 10
-3.4483077726840907
 20
-14.05399245824439
 10
-3.440002977611843
 20
-14.088553614466676
 10
-3.4311254044822457
 20
-14.123235160426152
 10
-3.421639598130544
 20
-14.158043702607733
 10
-3.4115097610829817
 20
-14.192985691640407
 10
-3.400699751131217
 20
-14.228067407294713
 10
-3.389173078801284
 20
-14.263294942570273
 10
-3.376892904727971
 20
-14.29867418685872
 10
-3.363822036947277
 20
-14.334210808167073
 10
-3.3499229281203906
 20
-14.369910234386538
 10
-3.3351576727040753
 20
-14.405777633591613
 10
-3.319488004083311
 20
-14.441817893354273
 10
-3.3028752916837774
 20
-14.478035599057794
 10
-3.191947429397759
 20
-14.502895283630819
 10
-3.0808325135492747
 20
-14.526905073808999
 10
-2.9695370556618728
 20
-14.55006356257769
 10
-2.858067577839173
 20
-14.572369392809959
 10
-2.746430612382661
 20
-14.593821257346118
 10
-2.6346327014088824
 20
-14.614417899070318
 10
-2.522680396466078
 20
-14.634158110984238
 10
-2.410580258150199
 20
-14.653040736277795
 10
-2.2983388557205244
 20
-14.671064668396948
 10
-2.185962766714636
 20
-14.688228851108539
 10
-2.0734585765629823
 20
-14.704532278562192
 10
-1.9608328782029534
 20
-14.719973995349255
 10
-1.84809227169253
 20
-14.734553096558795
 10
-1.8200942435438046
 20
-14.706201468043314
 10
-1.7930430767611925
 20
-14.677694044200676
 10
-1.7669009021856226
 20
-14.64903972861461
 10
-1.7416300893132723
 20
-14.620247016422963
 10
-1.7171932509992933
 20
-14.591324015683584
 10
-1.693553247838345
 20
-14.562278467793364
 10
-1.670673192243733
 20
-14.533117766968799
 10
-1.648516452245242
 20
-14.503848978796992
 10
-1.6270466550248444
 20
-14.474478857866279
 10
-1.6062276902080448
 20
-14.445013864485901
 10
-1.5860237129278594
 20
-14.415460180504503
 10
-1.5663991466766811
 20
-14.385823724237492
 10
-1.5473186859613528
 20
-14.356110164513424
 10
-1.5287472987746862
 20
-14.326324933849957
 10
-1.510650228896776
 20
-14.296473240769938
 10
-1.4929929980379957
 20
-14.266560081268542
 10
-1.4757414078352542
 20
-14.23659024944241
 10
-1.4588615417121873
 20
-14.206568347291963
 10
-1.4423197666133358
 20
-14.176498793708255
 10
-1.4260827346220215
 20
-14.146385832655719
 10
-1.4101173844708546
 20
-14.116233540562465
 10
-1.3943909429536587
 20
-14.086045832929782
 10
-1.378870926246842
 20
-14.055826470172672
 10
-1.3635251411484006
 20
-14.025579062703317
 10
-1.348321686242005
 20
-13.995307075269501
 10
-1.3332289529937078
 20
-13.965013830560135
 10
-1.318215626788656
 20
-13.934702512090029
 10
-1.3032506879147623
 20
-13.90437616637629
 10
-1.2883034125007167
 20
-13.87403770441869
 10
-1.2733433734154482
 20
-13.843689902496532
 10
-1.2583404411360541
 20
-13.813335402294548
 10
-1.2432647845919196
 20
-13.782976710370543
 10
-1.2280868719921216
 20
-13.752616196977522
 10
-1.2127774716441742
 20
-13.722256094253188
 10
-1.1973076527720399
 20
-13.69189849378976
 10
-1.1816487863417078
 20
-13.661545343597197
 10
-1.1657725459032728
 20
-13.631198444473013
 10
-1.1496509084585778
 20
-13.600859445792008
 10
-1.133256155364287
 20
-13.570529840729366
 10
-1.116560873280797
 20
-13.540210960930683
 10
-1.099537955177704
 20
-13.509903970642734
 10
-1.0821606014079244
 20
-13.479609860318831
 10
-1.0644023208626592
 20
-13.449329439712962
 10
-1.0462369322207312
 20
-13.419063330476991
 10
-1.0276385653065876
 20
-13.388811958275486
 10
-1.0085816625723867
 20
-13.358575544433014
 10
-0.9890409807206102
 20
-13.328354097128994
 10
-0.9816938842143503
 20
-13.317661722516718
 10
-0.9737644952585334
 20
-13.30739373864894
 10
-0.9652772734657744
 20
-13.297581818950835
 10
-0.9562583991834352
 20
-13.288256230036406
 10
-0.9467356927356798
 20
-13.279445738345734
 10
-0.9367385286067282
 20
-13.271177521409758
 10
-0.926297744830029
 20
-13.263477084016353
 10
-0.9154455478628514
 20
-13.256368179536256
 10
-0.9042154132397313
 20
-13.249872736651575
 10
-0.8926419823112232
 20
-13.244010791712855
 10
-0.8807609553864825
 20
-13.238800426933384
 10
-0.8686089816093046
 20
-13.234257714611399
 10
-0.856223545907312
 20
-13.2303966675522
 10
-0.8436428533630184
 20
-13.227229195843169
 10
-0.8309057113634469
 20
-13.224765070114984
 10
-0.8180514098918319
 20
-13.223011891402363
 10
-0.805119600330668
 20
-13.221975067697322
 10
-0.7921501731499574
 20
-13.221657797267255
 10
-0.7791831348579505
 20
-13.222061058789318
 10
-0.6594169723928262
 20
-13.228574914045739
 10
-0.5395967335939581
 20
-13.234003943066313
 10
-0.41973224447355306
 20
-13.238347700636556
 10
-0.2998333346726321
 20
-13.241605830541063
 10
-0.17990983665491928
 20
-13.243778065592718
 10
-0.05997158490052966
 20
-13.2448642276546
 10
0.0599715849005254
 20
-13.2448642276546
 10
0.179909836654915
 20
-13.243778065592718
 10
0.29983333467262785
 20
-13.241605830541063
 10
0.4197322444735488
 20
-13.238347700636556
 10
0.5395967335939538
 20
-13.234003943066313
 10
0.6594169723928219
 20
-13.22857491404574
 10
0.7791831348579457
 20
-13.22206105878932
 10
0.779183134857945
 20
-13.222061058789318
 10
0.7921501731499518
 20
-13.221657797267255
 10
0.8051196003306624
 20
-13.221975067697322
 10
0.8180514098918265
 20
-13.223011891402363
 10
0.8309057113634414
 20
-13.224765070114984
 10
0.8436428533630128
 20
-13.227229195843169
 10
0.8562235459073064
 20
-13.2303966675522
 10
0.868608981609299
 20
-13.234257714611399
 10
0.8807609553864769
 20
-13.238800426933386
 10
0.8926419823112176
 20
-13.244010791712855
 10
0.9042154132397259
 20
-13.249872736651575
 10
0.9154455478628458
 20
-13.256368179536256
 10
0.9262977448300236
 20
-13.263477084016353
 10
0.9367385286067228
 20
-13.271177521409758
 10
0.9467356927356744
 20
-13.279445738345734
 10
0.9562583991834299
 20
-13.288256230036406
 10
0.9652772734657691
 20
-13.297581818950835
 10
0.973764495258528
 20
-13.30739373864894
 10
0.981693884214345
 20
-13.317661722516718
 10
0.9890409807206049
 20
-13.328354097128994
 10
1.0085816625723818
 20
-13.358575544433016
 10
1.0276385653065827
 20
-13.388811958275488
 10
1.0462369322207263
 20
-13.419063330476991
 10
1.064402320862654
 20
-13.449329439712962
 10
1.0821606014079193
 20
-13.479609860318831
 10
1.099537955177699
 20
-13.509903970642734
 10
1.116560873280792
 20
-13.540210960930683
 10
1.1332561553642821
 20
-13.570529840729366
 10
1.1496509084585727
 20
-13.600859445792008
 10
1.1657725459032677
 20
-13.631198444473013
 10
1.1816487863417027
 20
-13.661545343597197
 10
1.1973076527720348
 20
-13.69189849378976
 10
1.212777471644169
 20
-13.722256094253188
 10
1.2280868719921167
 20
-13.752616196977522
 10
1.2432647845919145
 20
-13.782976710370543
 10
1.258340441136049
 20
-13.81333540229455
 10
1.2733433734154433
 20
-13.843689902496534
 10
1.2883034125007118
 20
-13.874037704418692
 10
1.303250687914757
 20
-13.90437616637629
 10
1.318215626788651
 20
-13.934702512090029
 10
1.333228952993703
 20
-13.965013830560137
 10
1.3483216862419998
 20
-13.995307075269501
 10
1.3635251411483953
 20
-14.025579062703317
 10
1.3788709262468368
 20
-14.055826470172672
 10
1.3943909429536534
 20
-14.086045832929782
 10
1.4101173844708494
 20
-14.116233540562465
 10
1.4260827346220164
 20
-14.14638583265572
 10
1.4423197666133307
 20
-14.176498793708255
 10
1.4588615417121822
 20
-14.206568347291963
 10
1.4757414078352487
 20
-14.23659024944241
 10
1.4929929980379906
 20
-14.266560081268544
 10
1.510650228896771
 20
-14.29647324076994
 10
1.5287472987746809
 20
-14.326324933849957
 10
1.5473186859613475
 20
-14.356110164513424
 10
1.5663991466766758
 20
-14.385823724237493
 10
1.586023712927854
 20
-14.415460180504505
 10
1.6062276902080392
 20
-14.445013864485901
 10
1.627046655024839
 20
-14.47447885786628
 10
1.648516452245237
 20
-14.503848978796993
 10
1.6706731922437277
 20
-14.5331177669688
 10
1.6935532478383397
 20
-14.562278467793364
 10
1.7171932509992878
 20
-14.591324015683584
 10
1.741630089313267
 20
-14.620247016422963
 10
1.7669009021856172
 20
-14.649039728614612
 10
1.7930430767611871
 20
-14.677694044200676
 10
1.8200942435437992
 20
-14.706201468043316
 10
1.8480922716925245
 20
-14.734553096558795
 10
1.960832878202948
 20
-14.719973995349255
 10
2.0734585765629765
 20
-14.704532278562192
 10
2.185962766714631
 20
-14.688228851108539
 10
2.2983388557205187
 20
-14.671064668396948
 10
2.4105802581501936
 20
-14.653040736277797
 10
2.5226803964660727
 20
-14.63415811098424
 10
2.634632701408877
 20
-14.61441789907032
 10
2.746430612382656
 20
-14.593821257346118
 10
2.8580675778391678
 20
-14.57236939280996
 10
2.9695370556618674
 20
-14.550063562577693
 10
3.0808325135492693
 20
-14.526905073809
 10
3.1919474293977537
 20
-14.502895283630819
 10
3.302875291683772
 20
-14.478035599057796
 10
3.3194880040833055
 20
-14.441817893354274
 10
3.33515767270407
 20
-14.405777633591613
 10
3.3499229281203853
 20
-14.369910234386538
 10
3.3638220369472718
 20
-14.334210808167075
 10
3.3768929047279657
 20
-14.298674186858722
 10
3.389173078801279
 20
-14.263294942570274
 10
3.4006997511312123
 20
-14.228067407294715
 10
3.4115097610829763
 20
-14.192985691640407
 10
3.4216395981305388
 20
-14.158043702607735
 10
3.4311254044822403
 20
-14.123235160426153
 10
3.4400029776118375
 20
-14.088553614466678
 10
3.448307772684086
 20
-14.05399245824439
 10
3.456074904863934
 20
-14.019544943525826
 10
3.463339151500495
 20
-13.985204193555619
 10
3.470134954176873
 20
-13.950963215416945
 10
3.4764964206183913
 20
-13.916814911540037
 10
3.482457326452109
 20
-13.882752090373085
 10
3.4880511168114046
 20
-13.848767476229625
 10
3.4933109077800566
 20
-13.814853718326518
 10
3.498269487670611
 20
-13.781003399026586
 10
3.5029593181325933
 20
-13.747209041299826
 10
3.50741253508632
 20
-13.713463115417238
 10
3.511660949478792
 20
-13.679758044891045
 10
3.5157360478580646
 20
-13.646086211675373
 10
3.5196689927631897
 20
-13.612439960641163
 10
3.5234906229268077
 20
-13.578811603339352
 10
3.527231453287611
 20
-13.545193421066255
 10
3.5309216748103642
 20
-13.511577667245142
 10
3.534591154110779
 20
-13.477956569138152
 10
3.5382694328828395
 20
-13.444322328902727
 10
3.5419857271262756
 20
-13.410667124006775
 10
3.545768926171273
 20
-13.376983107017118
 10
3.549647591498114
 20
-13.343262404775658
 10
3.55364995534858
 20
-13.309497116978065
 10
3.5578039191260937
 20
-13.275679314169945
 10
3.5621370515813027
 20
-13.241801035175568
 10
3.56667658677918
 20
-13.20785428397461
 10
3.571449421843711
 20
-13.173831026042558
 10
3.5764821144754864
 20
-13.139723184170743
 10
3.581800880237063
 20
-13.10552263378237
 10
3.5874315896007283
 20
-13.071221197761114
 10
3.5933997647520717
 20
-13.036810640809506
 10
3.5997305761427225
 20
-13.002282663354569
 10
3.606448838784453
 20
-12.967628895018748
 10
3.6135790082761865
 20
-12.932840887674748
 10
3.621145176554493
 20
-12.897910108103453
 10
3.629171067357302
 20
-12.862827930274767
 10
3.6324180722310535
 20
-12.850267529752834
 10
3.636357403206053
 20
-12.837906770334783
 10
3.6409769087142356
 20
-12.825783780984732
 10
3.646262339068036
 20
-12.813935957222679
 10
3.6521973904160885
 20
-12.80239984577135
 10
3.6587637550353596
 20
-12.791211031821321
 10
3.665941177804582
 20
-12.780404029262176
 10
3.673707518684783
 20
-12.770012174218245
 10
3.6820388210141783
 20
-12.760067522217408
 10
3.6909093854067643
 20
-12.7506007493101
 10
3.7002918490266485
 20
-12.741641057443573
 10
3.710157269993593
 20
-12.73321608438329
 10
3.720475216659399
 20
-12.725351818459306
 10
3.731213861479745
 20
-12.718072518400646
 10
3.742340079191919
 20
-12.71140063850493
 10
3.7538195489955863
 20
-12.705356759374089
 10
3.7656168604214186
 20
-12.699959524429836
 10
3.777695622560988
 20
-12.69522558240471
 10
3.790018576321009
 20
-12.691169535986099
 10
3.904789825117735
 20
-12.65632811765154
 10
4.019240856621573
 20
-12.6204488009129
 10
4.133362285129034
 20
-12.583534528099523
 10
4.24714475196615
 20
-12.545588326413647
 10
4.360578926255933
 20
-12.506613307682166
 10
4.473655505683575
 20
-12.46661266810143
 10
4.586365217259296
 20
-12.425589687975137
 10
4.698698818078777
 20
-12.383547731445342
 10
4.810647096081151
 20
-12.340490246216557
 10
4.922200870804442
 20
-12.296420763273026
 10
5.03335099413841
 20
-12.251342896589168
 10
5.144088351074776
 20
-12.2052603428332
 10
5.254403860454696
 20
-12.158176881063985
 10
5.254403860454695
 20
-12.158176881063985
 10
5.266450967087569
 20
-12.153362950892314
 10
5.278746754983067
 20
-12.149225282231043
 10
5.291253295593304
 20
-12.145776638456157
 10
5.303932010266105
 20
-12.143027657523653
 10
5.316743789247731
 20
-12.140986819154863
 10
5.3296491123238825
 20
-12.13966041867925
 10
5.342608170726838
 20
-12.139052547615341
 10
5.355580989932689
 20
-12.139165081049706
 10
5.368527552969881
 20
-12.13999767185292
 10
5.381407923858684
 20
-12.14154775175035
 10
5.394182370800845
 20
-12.143810539244456
 10
5.406811488739388
 20
-12.14677905436416
 10
5.419256320910537
 20
-12.150444140195829
 10
5.431478479012789
 20
-12.154794491129387
 10
5.443440261622469
 20
-12.1598166877325
 10
5.455104770490489
 20
-12.165495238145189
 10
5.466436024361564
 20
-12.171812625867245
 10
5.47739906996481
 20
-12.17874936379099
 10
5.487960089833328
 20
-12.186284054312726
 10
5.516658668112998
 20
-12.207999618526157
 10
5.544907761583418
 20
-12.229894708888464
 10
5.572731088387464
 20
-12.251960683997266
 10
5.60015258906679
 20
-12.27418859467933
 10
5.6271964280486015
 20
-12.296569192819648
 10
5.653886995109755
 20
-12.319092939717335
 10
5.680248906797528
 20
-12.341750013959707
 10
5.706307007787541
 20
-12.364530318805967
 10
5.732086372160389
 20
-12.387423489071585
 10
5.75761230457939
 20
-12.41041889750468
 10
5.782910341353153
 20
-12.433505660645183
 10
5.808006251366854
 20
-12.456672644157921
 10
5.832926036867418
 20
-12.479908467630302
 10
5.8576959340882
 20
-12.503201508825425
 10
5.882342413699286
 20
-12.526539907381352
 10
5.906892181070341
 20
-12.5499115679471
 10
5.9313721763331
 20
-12.573304162746044
 10
5.955809574231231
 20
-12.596705133557268
 10
5.9802317837456815
 20
-12.62010169310538
 10
6.004666447483549
 20
-12.643480825849473
 10
6.029141440819425
 20
-12.666829288161676
 10
6.053684870777635
 20
-12.69013360788597
 10
6.078325074644493
 20
-12.71338008326792
 10
6.1030906182995635
 20
-12.736554781245964
 10
6.12801029425483
 20
-12.75964353509519
 10
6.153113119390965
 20
-12.782631941414353
 10
6.178428332379611
 20
-12.805505356447219
 10
6.2039853907804625
 20
-12.828248891729446
 10
6.229813967801992
 20
-12.850847409052212
 10
6.255943948714096
 20
-12.873285514734214
 10
6.2824054269010565
 20
-12.895547553193689
 10
6.309228699542556
 20
-12.917617599812488
 10
6.336444262910416
 20
-12.939479453084328
 10
6.364082807267993
 20
-12.961116626039855
 10
6.392175211358924
 20
-12.982512336941268
 10
6.420752536471388
 20
-13.00364949923969
 10
6.449846020063223
 20
-13.024510710788931
 10
6.479487068933018
 20
-13.045078242309444
 10
6.50970725192101
 20
-13.065334025097131
 10
6.540538292123754
 20
-13.08525963797161
 10
6.5720120586046775
 20
-13.104836293459632
 10
6.6041605575827615
 20
-13.124044823209429
 10
6.637015923080037
 20
-13.142865662632634
 10
6.670610407007969
 20
-13.16127883477098
 10
6.704976368671573
 20
-13.179263933385696
 10
6.740146263669347
 20
-13.196800105268125
 10
6.776152632165641
 20
-13.21386603177112
 10
6.877107801881167
 20
-13.161606599549508
 10
6.977659961352241
 20
-13.108575874737188
 10
7.077803218050847
 20
-13.054776965025066
 10
7.177531703411374
 20
-13.00021302312099
 10
7.276839573174517
 20
-12.944887246565006
 10
7.3757210077297595
 20
-12.88880287754196
 10
7.474170212456411
 20
-12.831963202691522
 10
7.572181418063209
 20
-12.774371552915557
 10
7.669748880926367
 20
-12.716031303182952
 10
7.766866883426176
 20
-12.656945872331828
 10
7.863529734282084
 20
-12.59711872286919
 10
7.959731768886192
 20
-12.536553360768018
 10
8.055467349635222
 20
-12.475253335261808
 10
8.058691007992655
 20
-12.435537942194497
 10
8.061089185156229
 20
-12.396311833736778
 10
8.062696613698122
 20
-12.357557488603257
 10
8.063547580826024
 20
-12.319257226025467
 10
8.063675938513615
 20
-12.281393225142603
 10
8.063115113269985
 20
-12.243947543459145
 10
8.061898115536685
 20
-12.206902134389875
 10
8.060057548702783
 20
-12.17023886391196
 10
8.057625617729103
 20
-12.1339395263435
 10
8.054634137374098
 20
-12.097985859267185
 10
8.051114540014654
 20
-12.062359557617452
 10
8.047097883056537
 20
-12.027042286948637
 10
8.04261485592935
 20
-11.992015695901808
 10
8.037695786662576
 20
-11.957261427886761
 10
8.032370648039285
 20
-11.922761131995967
 10
8.026669063325448
 20
-11.888496473166393
 10
8.020620311572994
 20
-11.85444914160506
 10
8.014253332495635
 20
-11.820600861493775
 10
8.00759673091702
 20
-11.786933398988145
 10
8.00067878079117
 20
-11.75342856952589
 10
7.993527428795725
 20
-11.720068244459075
 10
7.986170297498881
 20
-11.686834357024845
 10
7.978634688101358
 20
-11.653708907668893
 10
7.970947582754874
 20
-11.620673968736048
 10
7.9631356464590874
 20
-11.587711688541948
 10
7.95522522853904
 20
-11.554804294839986
 10
7.947242363705305
 20
-11.52193409769756
 10
7.9392127726994035
 20
-11.48908349179559
 10
7.931161862526812
 20
-11.456234958165474
 10
7.923114726280139
 20
-11.423371065377692
 10
7.915096142555196
 20
-11.390474470196148
 10
7.90713057446216
 20
-11.357527917712943
 10
7.899242168234624
 20
-11.324514240977924
 10
7.891454751438641
 20
-11.291416360138035
 10
7.8837918307839905
 20
-11.258217281101498
 10
7.876276589539755
 20
-11.224900093742175
 10
7.868931884555805
 20
-11.191447969659972
 10
7.861780242891847
 20
-11.157844159513283
 10
7.854843858055083
 20
-11.124071989940173
 10
7.848144585847277
 20
-11.090114860085311
 10
7.841703939821835
 20
-11.05595623775019
 10
7.835543086350606
 20
-11.021579655184977
 10
7.829682839300106
 20
-10.986968704540713
 10
7.824143654316049
 20
-10.952107033001493
 10
7.818945622714575
 20
-10.916978337616992
 10
7.814108464977872
 20
-10.881566359856574
 10
7.809651523851362
 20
-10.845854879907167
 10
7.808406800384144
 20
-10.832941423150292
 10
7.807880931924409
 20
-10.81997877819316
 10
7.8080755406070885
 20
-10.80700693062305
 10
7.808990026127038
 20
-10.794065894414333
 10
7.8106215675907835
 20
-10.781195588498248
 10
7.81296513221807
 20
-10.768435713625848
 10
7.81601349086637
 20
-10.755825629903965
 10
7.819757240330458
 20
-10.743404235381945
 10
7.824184832348277
 20
-10.731209846063685
 10
7.829282609223608
 20
-10.7192800777151
 10
7.835034845955662
 20
-10.70765172983159
 10
7.841423798745654
 20
-10.696360672123438
 10
7.848429759730703
 20
-10.685441733869306
 10
7.85603111777625
 20
-10.67492859647912
 10
7.8642044251394525
 20
-10.664853689597754
 10
7.872924469797921
 20
-10.655248091070028
 10
7.882164353220693
 20
-10.646141431075543
 10
7.891895573341546
 20
-10.637561800729133
 10
7.902088112478694
 20
-10.6295356654288
 10
7.998021341158908
 20
-10.557541362758975
 10
8.093298681851024
 20
-10.48468127538212
 10
8.187912321214641
 20
-10.410961378283057
 10
8.28185450033703
 20
-10.336387716956407
 10
8.37511751536942
 20
-10.26096640691082
 10
8.467693718158769
 20
-10.184703633167462
 10
8.559575516874942
 20
-10.107605649752816
 10
8.65075537663331
 20
-10.029678779185796
 10
8.74122582011264
 20
-9.95092941195927
 10
8.830979428168295
 20
-9.871364006016005
 10
8.92000884044064
 20
-9.790989086219062
 10
9.008306755958653
 20
-9.709811243816723
 10
9.095865933738628
 20
-9.627837135901972
 10
9.095865933738628
 20
-9.62783713590197
 10
9.105540049856085
 20
-9.619193168105438
 10
9.115679144979671
 20
-9.611099624258864
 10
9.126251943264503
 20
-9.603581470339865
 10
9.137225831031047
 20
-9.596661897433334
 10
9.148566957367823
 20
-9.590362250194413
 10
9.160240338550564
 20
-9.584701961007106
 10
9.172209965955753
 20
-9.579698490041617
 10
9.18443891713563
 20
-9.575367271395358
 10
9.196889469712064
 20
-9.571721665483718
 10
9.209523217737944
 20
-9.568772917827488
 10
9.222301190167162
 20
-9.566530124364041
 10
9.23518397106775
 20
-9.565000203389303
 10
9.248131821207345
 20
-9.56418787421703
 10
9.261104800635922
 20
-9.564095642621245
 10
9.274062891887688
 20
-9.564723793106731
 10
9.286966123422086
 20
-9.566070388031434
 10
9.299774692923128
 20
-9.568131273583452
 10
9.312449090076727
 20
-9.570900092594213
 10
9.324950218447304
 20
-9.5743683041483
 10
9.359345221068432
 20
-9.58495876773941
 10
9.393379247690323
 20
-9.595871663586736
 10
9.42707163054313
 20
-9.607090759345606
 10
9.460441805579679
 20
-9.618599457396483
 10
9.493509316892276
 20
-9.630380802633079
 10
9.52629382094641
 20
-9.642417489813585
 10
9.558815090608938
 20
-9.654691870473952
 10
9.591093018949467
 20
-9.667185959401834
 10
9.62314762279461
 20
-9.679881440669185
 10
9.654999046015543
 20
-9.692759673221255
 10
9.68666756253046
 20
-9.705801696018998
 10
9.718173579003693
 20
-9.718988232732013
 10
9.749537637224455
 20
-9.732299695978346
 10
9.780780416148495
 20
-9.74571619110745
 10
9.811922733586472
 20
-9.759217519522359
 10
9.84298554752352
 20
-9.772783181536646
 10
9.8739899570547
 20
-9.786392378761867
 10
9.904957202921599
 20
-9.800024016020776
 10
9.93590866763558
 20
-9.813656702781458
 10
9.966865875173413
 20
-9.827268754107712
 10
9.997850490231372
 20
-9.840838191120556
 10
10.02888431702409
 20
-9.8543427409659
 10
10.059989297614386
 20
-9.867759836283481
 10
10.091187509760786
 20
-9.881066614171946
 10
10.122501164269051
 20
-9.894239914645356
 10
10.153952601834463
 20
-9.907256278576162
 10
10.185564289361407
 20
-9.920091945120022
 10
10.217358815746643
 20
-9.932722848618074
 10
10.249358887112855
 20
-9.945124614972178
 10
10.281587321478549
 20
-9.957272557489315
 10
10.314067042850555
 20
-9.969141672191222
 10
10.346821074724867
 20
-9.980706632586
 10
10.379872532981576
 20
-9.991941783898488
 10
10.413244618159066
 20
-10.002821136756975
 10
10.446960607092505
 20
-10.013318360333955
 10
10.481043843901292
 20
-10.023406774939309
 10
10.515517730309513
 20
-10.033059344064862
 10
10.550405715283315
 20
-10.042248665879699
 10
10.58573128396815
 20
-10.05094696417665
 10
10.621517945909003
 20
-10.059126078770412
 10
10.657789222535316
 20
-10.06675745534937
 10
10.694568633892464
 20
-10.073812134783212
 10
10.731879684600512
 20
-10.080260741889798
 10
10.76974584902054
 20
-10.086073473665481
 10
10.80819055560797
 20
-10.091220086984125
 10
10.847237170431805
 20
-10.095669885770988
 10
10.886908979837612
 20
-10.09939170765899
 10
10.963902029350928
 20
-10.015755203218308
 10
11.040252575509008
 20
-9.93153175844324
 10
11.115956144039652
 20
-9.846726308971276
 10
11.19100829858465
 20
-9.761343824546367
 10
11.265404640959762
 20
-9.675389308727699
 10
11.339140811412456
 20
-9.588867798596478
 10
11.4122124888774
 20
-9.501784364460745
 10
11.484615391229703
 20
-9.414144109558224
 10
11.556345275535815
 20
-9.32595216975731
 10
11.627397938302193
 20
-9.237213713256065
 10
11.697769215721639
 20
-9.147933940279364
 10
11.767454983917295
 20
-9.058118082774147
 10
11.836451159184312
 20
-8.967771404102823
 10
11.825896942725612
 20
-8.929348586212416
 10
11.81473437287274
 20
-8.891667876655346
 10
11.802990094934938
 20
-8.854700931569703
 10
11.79069028116929
 20
-8.81841940955214
 10
11.777860646932304
 20
-8.782794986414372
 10
11.76452646617301
 20
-8.747799369186337
 10
11.750712586264084
 20
-8.71340430938912
 10
11.736443442168559
 20
-8.679581615599476
 10
11.72174306994054
 20
-8.646303165327156
 10
11.706635119559191
 20
-8.613540916225123
 10
11.691142867095978
 20
-8.5812669166523
 10
11.675289226216186
 20
-8.549453315607023
 10
11.659096759015943
 20
-8.518072372049604
 10
11.642587686197135
 20
-8.4870964636307
 10
11.625783896582819
 20
-8.456498094842358
 10
11.608706955976544
 20
-8.42624990460747
 10
11.591378115369334
 20
-8.39632467332315
 10
11.573818318498653
 20
-8.36669532937287
 10
11.556048208764128
 20
-8.337334955121722
 10
11.538088135505118
 20
-8.308216792408915
 10
11.519958159645615
 20
-8.279314247551063
 10
11.501678058712292
 20
-8.2506008958697
 10
11.483267331231865
 20
-8.222050485755883
 10
11.464745200514006
 20
-8.193636942284938
 10
11.446130617826475
 20
-8.1653343703938
 10
11.427442264969256
 20
-8.137117057633551
 10
11.408698556254468
 20
-8.108959476509622
 10
11.389917639899375
 20
-8.080836286421867
 10
11.371117398839363
 20
-8.052722335217153
 10
11.352315450968389
 20
-8.024592660366624
 10
11.333529148813987
 20
-7.996422489780418
 10
11.3147755786542
 20
-7.9681872422724656
 10
11.296071559083806
 20
-7.93986252768811
 10
11.277433639037
 20
-7.9114241467079145
 10
11.258878095273802
 20
-7.882848090340987
 10
11.240420929337324
 20
-7.854110539121571
 10
11.222077863988913
 20
-7.825187862023205
 10
11.203864339128128
 20
-7.796056615104994
 10
11.185795507204276
 20
-7.766693539905242
 10
11.167886228126076
 20
-7.737075561598252
 10
11.150151063676011
 20
-7.707179786930457
 10
11.132604271435351
 20
-7.676983501953329
 10
11.115259798226024
 20
-7.646464169570662
 10
11.098131273074921
 20
-7.61559942691915
 10
11.081231999706153
 20
-7.5843670826018466
 10
11.064574948566333
 20
-7.552745113795344
 10
11.048172748387806
 20
-7.520711663252423
 10
11.042586428599924
 20
-7.509002703727808
 10
11.03765878820269
 20
-7.497001659521695
 10
11.033405027380617
 20
-7.48474554999256
 10
11.029838267616642
 20
-7.472272181293302
 10
11.026969511216564
 20
-7.459620029751428
 10
11.024807607370484
 20
-7.446828123181965
 10
11.023359224855893
 20
-7.433935920499221
 10
11.02262883146664
 20
-7.420983189998725
 10
11.022618680231236
 20
-7.408009886684843
 10
11.023328802462972
 20
-7.39505602902245
 10
11.02475700766334
 20
-7.382161575492843
 10
11.026898890279002
 20
-7.369366301334692
 10
11.029747843291524
 20
-7.356709675850228
 10
11.033295078597883
 20
-7.344230740655153
 10
11.037529654118941
 20
-7.331967989247822
 10
11.042438507552246
 20
-7.319959248269189
 10
11.048006496665016
 20
-7.308241560819798
 10
11.054216446003064
 20
-7.296851072193737
 10
11.061049199871542
 20
-7.2858229183820455
 10
11.126573445232742
 20
-7.185359306801683
 10
11.191185241681875
 20
-7.084306450624631
 10
11.254879290645789
 20
-6.982672636819838
 10
11.317650368812386
 20
-6.880466199998432
 10
11.379493328558967
 20
-6.777695521730227
 10
11.440403098374379
 20
-6.67436902985637
 10
11.500374683274908
 20
-6.570495197798226
 10
11.559403165213887
 20
-6.4660825438624885
 10
11.61748370348502
 20
-6.361139630542626
 10
11.674611535119348
 20
-6.255675063816715
 10
11.730781975275839
 20
-6.149697492441679
 10
11.785990417625575
 20
-6.043215607244052
 10
11.840232334729501
 20
-5.936238140407268
 10
11.840232334729501
 20
-5.936238140407268
 10
11.846366619153029
 20
-5.9248067250735135
 10
11.853126096995691
 20
-5.913733506877519
 10
11.860489917444085
 20
-5.9030526431331705
 10
11.868435365482396
 20
-5.892797080867158
 10
11.876937931960908
 20
-5.882998455188012
 10
11.885971389198843
 20
-5.873686991701968
 10
11.895507871888313
 20
-5.864891413276704
 10
11.905517963049828
 20
-5.85663885144054
 10
11.915970784774203
 20
-5.848954762690402
 10
11.926834093470974
 20
-5.841862849966731
 10
11.938074379329498
 20
-5.83538498953753
 10
11.949656969685927
 20
-5.82954116351713
 10
11.961546135977217
 20
-5.824349398227791
 10
11.973705203952248
 20
-5.819825708594305
 10
11.986096666800082
 20
-5.815984048743104
 10
11.998682300846395
 20
-5.812836268958275
 10
12.011423283461227
 20
-5.810392079127245
 10
12.024280312814279
 20
-5.808659018788909
 10
12.03721372910842
 20
-5.807642433876571
 10
12.073156611138725
 20
-5.805830430637674
 10
12.108870565012746
 20
-5.804444875673643
 10
12.144368205295656
 20
-5.803463903557843
 10
12.179662119088688
 20
-5.802865270142301
 10
12.21476487284328
 20
-5.8026263583655044
 10
12.249689018853717
 20
-5.802724183712277
 10
12.284447101406876
 20
-5.803135399332431
 10
12.319051662568565
 20
-5.8038363008241225
 10
12.353515247586708
 20
-5.804802830687015
 10
12.38785040989219
 20
-5.806010582449809
 10
12.422069715679035
 20
-5.807434804475626
 10
12.456185748045845
 20
-5.809050403448773
 10
12.490211110681178
 20
-5.810831947545275
 10
12.52415843107593
 20
-5.812753669289413
 10
12.558040363246123
 20
-5.814789468098079
 10
12.591869589950047
 20
-5.816912912514132
 10
12.62565882438384
 20
-5.819097242129911
 10
12.659420811340082
 20
-5.82131536920154
 10
12.693168327814133
 20
-5.823539879954414
 10
12.726914183043128
 20
-5.825743035580409
 10
12.760671217962967
 20
-5.827896772926585
 10
12.794452304068484
 20
-5.829972704875701
 10
12.82827034166241
 20
-5.831942120418378
 10
12.86213825747871
 20
-5.833775984416789
 10
12.896069001665955
 20
-5.835444937060083
 10
12.930075544116473
 20
-5.836919293011403
 10
12.964170870127145
 20
-5.838169040246805
 10
12.998367975377468
 20
-5.839163838586534
 10
13.032679860210843
 20
-5.839873017919093
 10
13.067119523204592
 20
-5.8402655761192594
 10
13.101699954014544
 20
-5.840310176661075
 10
13.136434125479598
 20
-5.839975145927582
 10
13.171334984971825
 20
-5.8392284702192585
 10
13.2064154449773
 20
-5.8380377924638225
 10
13.241688372892872
 20
-5.83637040863047
 10
13.27716658002384
 20
-5.834193263852206
 10
13.31286280976724
 20
-5.83147294826078
 10
13.348789724965387
 20
-5.8281756925391255
 10
13.384959894413806
 20
-5.824267363197518
 10
13.421385778507819
 20
-5.819713457579681
 10
13.458079714011358
 20
-5.814479098607029
 10
13.4950538979316
 20
-5.808529029269214
 10
13.532320370482568
 20
-5.801827606870824
 10
13.569890997120565
 20
-5.794338797044911
 10
13.607777449633938
 20
-5.786026167545331
 10
13.64599118626942
 20
-5.776852881830899
 10
13.684543430876847
 20
-5.766781692455971
 10
13.728287862120252
 20
-5.661855912575109
 10
13.771227792284625
 20
-5.5565983382828295
 10
13.813360705016834
 20
-5.451015137852475
 10
13.854684131256342
 20
-5.34511249863964
 10
13.895195649379906
 20
-5.238896626719573
 10
13.934892885343482
 20
-5.132373746523493
 10
13.973773512821344
 20
-5.025550100473843
 10
14.011835253342426
 20
-4.9184319486184185
 10
14.049075876423828
 20
-4.811025568263595
 10
14.08549319970153
 20
-4.703337253606416
 10
14.121085089058287
 20
-4.595373315365759
 10
14.15584945874869
 20
-4.4871400804125114
 10
14.189784271521393
 20
-4.378643891398806
 10
14.16672517451512
 20
-4.346148007583285
 10
14.14334822831205
 20
-4.314557546607488
 10
14.119668777140934
 20
-4.283836760721056
 10
14.095701721547794
 20
-4.253950066277276
 10
14.071461538620442
 20
-4.224862052075511
 10
14.046962301336604
 20
-4.196537487220902
 10
14.022217697040224
 20
-4.168941328524301
 10
13.997241045051135
 20
-4.142038727463758
 10
13.972045313413863
 20
-4.115795036728035
 10
13.946643134791762
 20
-4.090175816361292
 10
13.921046821513139
 20
-4.065146839527369
 10
13.8952683797766
 20
-4.040674097910434
 10
13.869319523023009
 20
-4.0167238067688515
 10
13.84321168448208
 20
-3.9932624096571305
 10
13.816956028901748
 20
-3.970256582830944
 10
13.790563463468954
 20
-3.9476732393488123
 10
13.764044647930668
 20
-3.9254795328837706
 10
13.737410003924268
 20
-3.9036428612574468
 10
13.710669723526706
 20
-3.8821308697084445
 10
13.683833777032028
 20
-3.860911453906563
 10
13.656911919967067
 20
-3.8399527627236645
 10
13.62991369935538
 20
-3.819223200771879
 10
13.602848459239588
 20
-3.7986914307190993
 10
13.575725345472462
 20
-3.778326375391892
 10
13.54855330978729
 20
-3.7580972196752644
 10
13.521341113158188
 20
-3.737973412218796
 10
13.494097328461033
 20
-3.7179246669585444
 10
13.466830342445963
 20
-3.697920964463691
 10
13.439548357032388
 20
-3.6779325531173765
 10
13.41225938993755
 20
-3.657929950140858
 10
13.384971274649804
 20
-3.6378839424701286
 10
13.357691659757753
 20
-3.61776558749476
 10
13.330428007646619
 20
-3.5975462136682075
 10
13.303187592573043
 20
-3.577197420999719
 10
13.275977498129796
 20
-3.556691081437932
 10
13.248804614111773
 20
-3.5359993391565694
 10
13.221675632794732
 20
-3.515094610753356
 10
13.194597044638328
 20
-3.493949585373372
 10
13.167575133424963
 20
-3.472537224768908
 10
13.140615970846008
 20
-3.4508307633084176
 10
13.113725410547147
 20
-3.4288037079475275
 10
13.086909081644357
 20
-3.406429838176426
 10
13.060172381722412
 20
-3.383683205958086
 10
13.033520469327593
 20
-3.3605381356731407
 10
13.006958255966516
 20
-3.3369692240880116
 10
12.980490397622935
 20
-3.3129513403640423
 10
12.954121285804614
 20
-3.2884596261264676
 10
12.944867162307789
 20
-3.27936743715862
 10
12.936132096129187
 20
-3.269775496751329
 10
12.927943032136328
 20
-3.2597133929532958
 10
12.92032523095573
 20
-3.249212164115945
 10
12.913302191052015
 20
-3.2383042031501006
 10
12.906895576242709
 20
-3.2270231576042865
 10
12.901125148872335
 20
-3.215403825872866
 10
12.896008708851948
 20
-3.203482049854197
 10
12.891562038752125
 20
-3.1912946043899133
 10
12.887798855118831
 20
-3.1788790838263745
 10
12.884730766162281
 20
-3.166273786048208
 10
12.882367235949348
 20
-3.1535175943416642
 10
12.880715555209964
 20
-3.1406498574521913
 10
12.87978081884757
 20
-3.127710268206224
 10
12.879565910222967
 20
-3.1147387410715868
 10
12.88007149226009
 20
-3.1017752890342134
 10
12.881296005401088
 20
-3.0888599001709593
 10
12.883235672417072
 20
-3.0760324142992594
 10
12.885884510059636
 20
-3.0633324000841147
 10
12.913096581076392
 20
-2.9465168738347995
 10
12.93924969706222
 20
-2.8294597146938187
 10
12.964341713297337
 20
-2.712170522083494
 10
12.988370572078798
 20
-2.5946589144543504
 10
13.011334302889255
 20
-2.4769345284963418
 10
13.033231022558532
 20
-2.3590070183485805
 10
13.05405893541808
 20
-2.24088605480764
 10
13.073816333448217
 20
-2.122581324534485
 10
13.092501596418204
 20
-2.0041025292601082
 10
13.110113192019107
 20
-1.8854593849899246
 10
13.12664967598946
 20
-1.766661621207001
 10
13.142109692233714
 20
-1.6477189800741727
 10
13.15649197293342
 20
-1.5286412156351303
 10
13.15649197293342
 20
-1.5286412156351303
  0
CIRCLE
  5
8E
330
17
100
AcDbEntity
  8
REFERENCE
  6
DASHED
100
AcDbCircle
 10
0.0
 20
0.0
 30
0.0
 40
14.85
  0
CIRCLE
  5
8F
330
17
100
AcDbEntity
  8
REFERENCE
  6
DASHED
100
AcDbCircle
 10
0.0
 20
0.0
 30
0.0
 40
15.0
  0
CIRCLE
  5
90
330
17
100
AcDbEntity
  8
REFERENCE
  6
DASHED
100
AcDbCircle
 10
0.0
 20
0.0
 30
0.0
 40
13.5
  0
CIRCLE
  5
91
330
17
100
AcDbEntity
  8
REFERENCE
  6
DASHED
100
AcDbCircle
 10
0.0
 20
0.0
 30
0.0
 40
11.691342951089922
  0
CIRCLE
  5
92
330
17
100
AcDbEntity
  8
REFERENCE
  6
DASHED
100
AcDbCircle
 10
0.0
 20
0.0
 30
0.0
 40
13.365
  0
CIRCLE
  5
93
330
17
100
AcDbEntity
  8
REFERENCE
  6
DASHED
100
AcDbCircle
 10
0.0
 20
0.0
 30
0.0
 40
13.245
  0
LINE
  5
94
330
17
100
AcDbEntity
  8
AXIS
  6
CENTER
100
AcDbLine
 10
-16.85
 20
0.0
 30
0.0
 11
16.85
 21
0.0
 31
0.0
  0
LINE
  5
95
330
17
100
AcDbEntity
  8
AXIS
  6
CENTER
100
AcDbLine
 10
0.0
 20
-16.85
 30
0.0
 11
0.0
 21
16.85
 31
0.0
  0
ENDSEC
  0
SECTION
  2
OBJECTS
  0
DICTIONARY
  5
A
330
0
100
AcDbDictionary
281
1
  3
ACAD_COLOR
350
B
  3
ACAD_GROUP
350
C
  3
ACAD_LAYOUT
350
D
  3
ACAD_MATERIAL
350
E
  3
ACAD_MLEADERSTYLE
350
F
  3
ACAD_MLINESTYLE
350
10
  3
ACAD_PLOTSETTINGS
350
11
  3
ACAD_PLOTSTYLENAME
350
12
  3
ACAD_SCALELIST
350
14
  3
ACAD_TABLESTYLE
350
15
  3
ACAD_VISUALSTYLE
350
16
  3
EZDXF_META
350
2D
  0
DICTIONARY
  5
B
330
A
100
AcDbDictionary
281
1
  0
DICTIONARY
  5
C
330
A
100
AcDbDictionary
281
1
  0
DICTIONARY
  5
D
330
A
100
AcDbDictionary
281
1
  3
Model
350
1A
  3
Layout1
350
1E
  0
DICTIONARY
  5
E
330
A
100
AcDbDictionary
281
1
  3
ByBlock
350
1F
  3
ByLayer
350
20
  3
Global
350
21
  0
DICTIONARY
  5
F
330
A
100
AcDbDictionary
281
1
  3
Standard
350
2C
  0
DICTIONARY
  5
10
330
A
100
AcDbDictionary
281
1
  3
Standard
350
22
  0
DICTIONARY
  5
11
330
A
100
AcDbDictionary
281
1
  0
ACDBDICTIONARYWDFLT
  5
12
330
A
100
AcDbDictionary
281
1
  3
Normal
350
13
100
AcDbDictionaryWithDefault
340
13
  0
ACDBPLACEHOLDER
  5
13
330
12
  0
DICTIONARY
  5
14
330
A
100
AcDbDictionary
281
1
  0
DICTIONARY
  5
15
330
A
100
AcDbDictionary
281
1
  0
DICTIONARY
  5
16
330
A
100
AcDbDictionary
281
1
  3
2dWireframe
350
5A
  3
Basic
350
5B
  3
Brighten
350
5C
  3
ColorChange
350
5D
  3
Conceptual
350
5E
  3
Dim
350
5F
  3
EdgeColorOff
350
60
  3
Facepattern
350
61
  3
Flat
350
62
  3
FlatWithEdges
350
63
  3
Gouraud
350
64
  3
GouraudWithEdges
350
65
  3
Hidden
350
66
  3
JitterOff
350
67
  3
Linepattern
350
68
  3
Modeling
350
69
  3
OverhangOff
350
6A
  3
Realistic
350
6B
  3
Shaded
350
6C
  3
Shaded with edges
350
6D
  3
Shades of Gray
350
6E
  3
Sketchy
350
6F
  3
Thicken
350
70
  3
Wireframe
350
71
  3
X-Ray
350
72
  0
LAYOUT
  5
1A
330
D
100
AcDbPlotSettings
  1

  4
A3
  6

 40
7.5
 41
20.0
 42
7.5
 43
20.0
 44
420.0
 45
297.0
 46
0.0
 47
0.0
 48
0.0
 49
0.0
140
0.0
141
0.0
142
1.0
143
1.0
 70
1024
 72
1
 73
0
 74
5
  7

 75
16
 76
0
 77
2
 78
300
147
1.0
148
0.0
149
0.0
100
AcDbLayout
  1
Model
 70
1
 71
0
 10
0.0
 20
0.0
 11
420.0
 21
297.0
 12
0.0
 22
0.0
 32
0.0
 14
1e+20
 24
1e+20
 34
1e+20
 15
-1e+20
 25
-1e+20
 35
-1e+20
146
0.0
 13
0.0
 23
0.0
 33
0.0
 16
1.0
 26
0.0
 36
0.0
 17
0.0
 27
1.0
 37
0.0
 76
1
330
17
  0
LAYOUT
  5
1E
330
D
100
AcDbPlotSettings
  1

  4
A3
  6

 40
7.5
 41
20.0
 42
7.5
 43
20.0
 44
420.0
 45
297.0
 46
0.0
 47
0.0
 48
0.0
 49
0.0
140
0.0
141
0.0
142
1.0
143
1.0
 70
0
 72
1
 73
0
 74
5
  7

 75
16
 76
0
 77
2
 78
300
147
1.0
148
0.0
149
0.0
100
AcDbLayout
  1
Layout1
 70
1
 71
1
 10
0.0
 20
0.0
 11
420.0
 21
297.0
 12
0.0
 22
0.0
 32
0.0
 14
1e+20
 24
1e+20
 34
1e+20
 15
-1e+20
 25
-1e+20
 35
-1e+20
146
0.0
 13
0.0
 23
0.0
 33
0.0
 16
1.0
 26
0.0
 36
0.0
 17
0.0
 27
1.0
 37
0.0
 76
1
330
1B
  0
MATERIAL
  5
1F
102
{ACAD_REACTORS
330
E
102
}
330
E
100
AcDbMaterial
  1
ByBlock
  2

 70
0
 40
1.0
 71
1
 41
1.0
 91
-1023410177
 42
1.0
 72
1
  3

 73
1
 74
1
 75
1
 44
0.5
 73
0
 45
1.0
 46
1.0
 77
1
  4

 78
1
 79
1
170
1
 48
1.0
171
1
  6

172
1
173
1
174
1
140
1.0
141
1.0
175
1
  7

176
1
177
1
178
1
143
1.0
179
1
  8

270
1
271
1
272
1
145
1.0
146
1.0
273
1
  9

274
1
275
1
276
1
 42
1.0
 72
1
  3

 73
1
 74
1
 75
1
 94
63
  0
MATERIAL
  5
20
102
{ACAD_REACTORS
330
E
102
}
330
E
100
AcDbMaterial
  1
ByLayer
  2

 70
0
 40
1.0
 71
1
 41
1.0
 91
-1023410177
 42
1.0
 72
1
  3

 73
1
 74
1
 75
1
 44
0.5
 73
0
 45
1.0
 46
1.0
 77
1
  4

 78
1
 79
1
170
1
 48
1.0
171
1
  6

172
1
173
1
174
1
140
1.0
141
1.0
175
1
  7

176
1
177
1
178
1
143
1.0
179
1
  8

270
1
271
1
272
1
145
1.0
146
1.0
273
1
  9

274
1
275
1
276
1
 42
1.0
 72
1
  3

 73
1
 74
1
 75
1
 94
63
  0
MATERIAL
  5
21
102
{ACAD_REACTORS
330
E
102
}
330
E
100
AcDbMaterial
  1
Global
  2

 70
0
 40
1.0
 71
1
 41
1.0
 91
-1023410177
 42
1.0
 72
1
  3

 73
1
 74
1
 75
1
 44
0.5
 73
0
 45
1.0
 46
1.0
 77
1
  4

 78
1
 79
1
170
1
 48
1.0
171
1
  6

172
1
173
1
174
1
140
1.0
141
1.0
175
1
  7

176
1
177
1
178
1
143
1.0
179
1
  8

270
1
271
1
272
1
145
1.0
146
1.0
273
1
  9

274
1
275
1
276
1
 42
1.0
 72
1
  3

 73
1
 74
1
 75
1
 94
63
  0
MLINESTYLE
  5
22
102
{ACAD_REACTORS
330
10
102
}
330
10
100
AcDbMlineStyle
  2
Standard
 70
0
  3

 62
256
 51
90.0
 52
90.0
 71
2
 49
0.5
 62
256
  6
BYLAYER
 49
-0.5
 62
256
  6
BYLAYER
  0
MLEADERSTYLE
  5
2C
102
{ACAD_REACTORS
330
F
102
}
330
F
100
AcDbMLeaderStyle
179
2
170
2
171
1
172
0
 90
2
 40
0.0
 41
0.0
173
1
 91
-1056964608
 92
-2
290
1
 42
2.0
291
1
 43
8.0
  3
Standard
 44
4.0
300

342
29
174
1
175
1
176
0
178
1
 93
-1056964608
 45
4.0
292
0
297
0
 46
4.0
 94
-1056964608
 47
1.0
 49
1.0
140
1.0
294
1
141
0.0
177
0
142
1.0
295
0
296
0
143
3.75
271
0
272
9
273
9
  0
DICTIONARY
  5
2D
330
A
100
AcDbDictionary
280
1
281
1
  3
CREATED_BY_EZDXF
350
2E
  3
WRITTEN_BY_EZDXF
350
98
  0
DICTIONARYVAR
  5
2E
330
2D
100
DictionaryVariables
280
0
  1
1.4.4 @ 2026-05-26T16:38:15.811789+00:00
  0
VISUALSTYLE
  5
5A
102
{ACAD_REACTORS
330
16
102
}
330
16
100
AcDbVisualStyle
  2
2dWireframe
 70
4
 90
0
 40
0.6
 62
7
290
0
291
0
  0
VISUALSTYLE
  5
5B
102
{ACAD_REACTORS
330
16
102
}
330
16
100
AcDbVisualStyle
  2
Basic
 70
7
 90
1
 40
0.6
 62
7
290
0
291
1
  0
VISUALSTYLE
  5
5C
102
{ACAD_REACTORS
330
16
102
}
330
16
100
AcDbVisualStyle
  2
Brighten
 70
12
 90
2
 40
0.6
 62
7
290
0
291
1
  0
VISUALSTYLE
  5
5D
102
{ACAD_REACTORS
330
16
102
}
330
16
100
AcDbVisualStyle
  2
ColorChange
 70
16
 90
2
 40
0.6
 62
8
290
0
291
1
  0
VISUALSTYLE
  5
5E
102
{ACAD_REACTORS
330
16
102
}
330
16
100
AcDbVisualStyle
  2
Conceptual
 70
9
 90
3
 40
0.6
 62
7
290
0
291
0
  0
VISUALSTYLE
  5
5F
102
{ACAD_REACTORS
330
16
102
}
330
16
100
AcDbVisualStyle
  2
Dim
 70
11
 90
2
 40
0.6
 62
7
290
0
291
1
  0
VISUALSTYLE
  5
60
102
{ACAD_REACTORS
330
16
102
}
330
16
100
AcDbVisualStyle
  2
EdgeColorOff
 70
22
 90
2
 40
0.6
 62
7
290
0
291
1
  0
VISUALSTYLE
  5
61
102
{ACAD_REACTORS
330
16
102
}
330
16
100
AcDbVisualStyle
  2
Facepattern
 70
15
 90
2
 40
0.6
 62
7
290
0
291
1
  0
VISUALSTYLE
  5
62
102
{ACAD_REACTORS
330
16
102
}
330
16
100
AcDbVisualStyle
  2
Flat
 70
0
 90
2
 40
0.6
 62
7
290
0
291
1
  0
VISUALSTYLE
  5
63
102
{ACAD_REACTORS
330
16
102
}
330
16
100
AcDbVisualStyle
  2
FlatWithEdges
 70
1
 90
2
 40
0.6
 62
7
290
0
291
1
  0
VISUALSTYLE
  5
64
102
{ACAD_REACTORS
330
16
102
}
330
16
100
AcDbVisualStyle
  2
Gouraud
 70
2
 90
2
 40
0.6
 62
7
290
0
291
1
  0
VISUALSTYLE
  5
65
102
{ACAD_REACTORS
330
16
102
}
330
16
100
AcDbVisualStyle
  2
GouraudWithEdges
 70
3
 90
2
 40
0.6
 62
7
290
0
291
1
  0
VISUALSTYLE
  5
66
102
{ACAD_REACTORS
330
16
102
}
330
16
100
AcDbVisualStyle
  2
Hidden
 70
6
 90
1
 40
0.6
 62
7
290
0
291
0
  0
VISUALSTYLE
  5
67
102
{ACAD_REACTORS
330
16
102
}
330
16
100
AcDbVisualStyle
  2
JitterOff
 70
20
 90
2
 40
0.6
 62
7
290
0
291
1
  0
VISUALSTYLE
  5
68
102
{ACAD_REACTORS
330
16
102
}
330
16
100
AcDbVisualStyle
  2
Linepattern
 70
14
 90
2
 40
0.6
 62
7
290
0
291
1
  0
VISUALSTYLE
  5
69
102
{ACAD_REACTORS
330
16
102
}
330
16
100
AcDbVisualStyle
  2
Modeling
 70
10
 90
2
 40
0.6
 62
7
290
0
291
0
  0
VISUALSTYLE
  5
6A
102
{ACAD_REACTORS
330
16
102
}
330
16
100
AcDbVisualStyle
  2
OverhangOff
 70
21
 90
2
 40
0.6
 62
7
290
0
291
1
  0
VISUALSTYLE
  5
6B
102
{ACAD_REACTORS
330
16
102
}
330
16
100
AcDbVisualStyle
  2
Realistic
 70
8
 90
2
 40
0.6
 62
7
290
0
291
0
  0
VISUALSTYLE
  5
6C
102
{ACAD_REACTORS
330
16
102
}
330
16
100
AcDbVisualStyle
  2
Shaded
 70
27
 90
2
 40
0.6
 62
7
290
0
291
0
  0
VISUALSTYLE
  5
6D
102
{ACAD_REACTORS
330
16
102
}
330
16
100
AcDbVisualStyle
  2
Shaded with edges
 70
26
 90
2
 40
0.6
 62
7
290
0
291
0
  0
VISUALSTYLE
  5
6E
102
{ACAD_REACTORS
330
16
102
}
330
16
100
AcDbVisualStyle
  2
Shades of Gray
 70
23
 90
2
 40
0.6
 62
7
290
0
291
0
  0
VISUALSTYLE
  5
6F
102
{ACAD_REACTORS
330
16
102
}
330
16
100
AcDbVisualStyle
  2
Sketchy
 70
24
 90
1
 40
0.6
 62
7
290
0
291
0
  0
VISUALSTYLE
  5
70
102
{ACAD_REACTORS
330
16
102
}
330
16
100
AcDbVisualStyle
  2
Thicken
 70
13
 90
2
 40
0.6
 62
7
290
0
291
1
  0
VISUALSTYLE
  5
71
102
{ACAD_REACTORS
330
16
102
}
330
16
100
AcDbVisualStyle
  2
Wireframe
 70
5
 90
0
 40
0.6
 62
7
290
0
291
0
  0
VISUALSTYLE
  5
72
102
{ACAD_REACTORS
330
16
102
}
330
16
100
AcDbVisualStyle
  2
X-Ray
 70
25
 90
2
 40
0.5
 62
7
290
0
291
0
  0
DICTIONARYVAR
  5
98
330
2D
100
DictionaryVariables
280
0
  1
1.4.4 @ 2026-05-26T16:38:15.829406+00:00
  0
ENDSEC
  0
EOF
