  0
SECTION
  2
HEADER
  9
$ACADVER
  1
AC1024
  9
$ACADMAINTVER
 70
6
  9
$DWGCODEPAGE
  3
ANSI_1252
  9
$LASTSAVEDBY
  1
ezdxf
  9
$INSBASE
 10
0.0
 20
0.0
 30
0.0
  9
$EXTMIN
 10
1e+20
 20
1e+20
 30
1e+20
  9
$EXTMAX
 10
-1e+20
 20
-1e+20
 30
-1e+20
  9
$LIMMIN
 10
0.0
 20
0.0
  9
$LIMMAX
 10
420.0
 20
297.0
  9
$ORTHOMODE
 70
0
  9
$REGENMODE
 70
1
  9
$FILLMODE
 70
1
  9
$QTEXTMODE
 70
0
  9
$MIRRTEXT
 70
1
  9
$LTSCALE
 40
1.0
  9
$ATTMODE
 70
1
  9
$TEXTSIZE
 40
2.5
  9
$TRACEWID
 40
1.0
  9
$TEXTSTYLE
  7
OpenSans
  9
$CLAYER
  8
0
  9
$CELTYPE
  6
ByLayer
  9
$CECOLOR
 62
256
  9
$CELTSCALE
 40
1.0
  9
$DISPSILH
 70
0
  9
$DIMSCALE
 40
1.0
  9
$DIMASZ
 40
0.175
  9
$DIMEXO
 40
0.125
  9
$DIMDLI
 40
3.75
  9
$DIMRND
 40
0.0
  9
$DIMDLE
 40
0.0
  9
$DIMEXE
 40
0.375
  9
$DIMTP
 40
0.0
  9
$DIMTM
 40
0.0
  9
$DIMTXT
 40
0.25
  9
$DIMCEN
 40
2.5
  9
$DIMTSZ
 40
0.0
  9
$DIMTOL
 70
0
  9
$DIMLIM
 70
0
  9
$DIMTIH
 70
0
  9
$DIMTOH
 70
0
  9
$DIMSE1
 70
0
  9
$DIMSE2
 70
0
  9
$DIMTAD
 70
1
  9
$DIMZIN
 70
12
  9
$DIMBLK
  1
ARCHTICK
  9
$DIMASO
 70
1
  9
$DIMSHO
 70
1
  9
$DIMPOST
  1

  9
$DIMAPOST
  1

  9
$DIMALT
 70
0
  9
$DIMALTD
 70
3
  9
$DIMALTF
 40
0.03937007874
  9
$DIMLFAC
 40
100.0
  9
$DIMTOFL
 70
1
  9
$DIMTVP
 40
0.0
  9
$DIMTIX
 70
0
  9
$DIMSOXD
 70
0
  9
$DIMSAH
 70
0
  9
$DIMBLK1
  1

  9
$DIMBLK2
  1

  9
$DIMSTYLE
  2
EZDXF
  9
$DIMCLRD
 70
0
  9
$DIMCLRE
 70
0
  9
$DIMCLRT
 70
0
  9
$DIMTFAC
 40
0.5
  9
$DIMGAP
 40
0.1
  9
$DIMJUST
 70
0
  9
$DIMSD1
 70
0
  9
$DIMSD2
 70
0
  9
$DIMTOLJ
 70
0
  9
$DIMTZIN
 70
8
  9
$DIMALTZ
 70
0
  9
$DIMALTTZ
 70
0
  9
$DIMUPT
 70
1
  9
$DIMDEC
 70
2
  9
$DIMTDEC
 70
2
  9
$DIMALTU
 70
2
  9
$DIMALTTD
 70
3
  9
$DIMTXSTY
  7
OpenSansCondensed-Light
  9
$DIMAUNIT
 70
0
  9
$DIMADEC
 70
2
  9
$DIMALTRND
 40
0.0
  9
$DIMAZIN
 70
3
  9
$DIMDSEP
 70
46
  9
$DIMATFIT
 70
3
  9
$DIMFRAC
 70
0
  9
$DIMLDRBLK
  1

  9
$DIMLUNIT
 70
2
  9
$DIMLWD
 70
-2
  9
$DIMLWE
 70
-2
  9
$DIMTMOVE
 70
2
  9
$DIMFXL
 40
1.0
  9
$DIMFXLON
 70
0
  9
$DIMJOGANG
 40
0.785398163397
  9
$DIMTFILL
 70
0
  9
$DIMTFILLCLR
 70
0
  9
$DIMARCSYM
 70
0
  9
$DIMLTYPE
  6

  9
$DIMLTEX1
  6

  9
$DIMLTEX2
  6

  9
$DIMTXTDIRECTION
 70
0
  9
$LUNITS
 70
2
  9
$LUPREC
 70
4
  9
$SKETCHINC
 40
1.0
  9
$FILLETRAD
 40
10.0
  9
$AUNITS
 70
0
  9
$AUPREC
 70
2
  9
$MENU
  1
.
  9
$ELEVATION
 40
0.0
  9
$PELEVATION
 40
0.0
  9
$THICKNESS
 40
0.0
  9
$LIMCHECK
 70
0
  9
$CHAMFERA
 40
0.0
  9
$CHAMFERB
 40
0.0
  9
$CHAMFERC
 40
0.0
  9
$CHAMFERD
 40
0.0
  9
$SKPOLY
 70
0
  9
$TDCREATE
 40
2461187.6924305554
  9
$TDUCREATE
 40
2458532.153996898
  9
$TDUPDATE
 40
2461187.6924305554
  9
$TDUUPDATE
 40
2458532.1544311
  9
$TDINDWG
 40
0.0
  9
$TDUSRTIMER
 40
0.0
  9
$USRTIMER
 70
1
  9
$ANGBASE
 50
0.0
  9
$ANGDIR
 70
0
  9
$PDMODE
 70
0
  9
$PDSIZE
 40
0.0
  9
$PLINEWID
 40
0.0
  9
$SPLFRAME
 70
0
  9
$SPLINETYPE
 70
6
  9
$SPLINESEGS
 70
8
  9
$HANDSEED
  5
9D
  9
$SURFTAB1
 70
6
  9
$SURFTAB2
 70
6
  9
$SURFTYPE
 70
6
  9
$SURFU
 70
6
  9
$SURFV
 70
6
  9
$UCSBASE
  2

  9
$UCSNAME
  2

  9
$UCSORG
 10
0.0
 20
0.0
 30
0.0
  9
$UCSXDIR
 10
1.0
 20
0.0
 30
0.0
  9
$UCSYDIR
 10
0.0
 20
1.0
 30
0.0
  9
$UCSORTHOREF
  2

  9
$UCSORTHOVIEW
 70
0
  9
$UCSORGTOP
 10
0.0
 20
0.0
 30
0.0
  9
$UCSORGBOTTOM
 10
0.0
 20
0.0
 30
0.0
  9
$UCSORGLEFT
 10
0.0
 20
0.0
 30
0.0
  9
$UCSORGRIGHT
 10
0.0
 20
0.0
 30
0.0
  9
$UCSORGFRONT
 10
0.0
 20
0.0
 30
0.0
  9
$UCSORGBACK
 10
0.0
 20
0.0
 30
0.0
  9
$PUCSBASE
  2

  9
$PUCSNAME
  2

  9
$PUCSORG
 10
0.0
 20
0.0
 30
0.0
  9
$PUCSXDIR
 10
1.0
 20
0.0
 30
0.0
  9
$PUCSYDIR
 10
0.0
 20
1.0
 30
0.0
  9
$PUCSORTHOREF
  2

  9
$PUCSORTHOVIEW
 70
0
  9
$PUCSORGTOP
 10
0.0
 20
0.0
 30
0.0
  9
$PUCSORGBOTTOM
 10
0.0
 20
0.0
 30
0.0
  9
$PUCSORGLEFT
 10
0.0
 20
0.0
 30
0.0
  9
$PUCSORGRIGHT
 10
0.0
 20
0.0
 30
0.0
  9
$PUCSORGFRONT
 10
0.0
 20
0.0
 30
0.0
  9
$PUCSORGBACK
 10
0.0
 20
0.0
 30
0.0
  9
$USERI1
 70
0
  9
$USERI2
 70
0
  9
$USERI3
 70
0
  9
$USERI4
 70
0
  9
$USERI5
 70
0
  9
$USERR1
 40
0.0
  9
$USERR2
 40
0.0
  9
$USERR3
 40
0.0
  9
$USERR4
 40
0.0
  9
$USERR5
 40
0.0
  9
$WORLDVIEW
 70
1
  9
$SHADEDGE
 70
3
  9
$SHADEDIF
 70
70
  9
$TILEMODE
 70
1
  9
$MAXACTVP
 70
64
  9
$PINSBASE
 10
0.0
 20
0.0
 30
0.0
  9
$PLIMCHECK
 70
0
  9
$PEXTMIN
 10
1e+20
 20
1e+20
 30
1e+20
  9
$PEXTMAX
 10
-1e+20
 20
-1e+20
 30
-1e+20
  9
$PLIMMIN
 10
0.0
 20
0.0
  9
$PLIMMAX
 10
420.0
 20
297.0
  9
$UNITMODE
 70
0
  9
$VISRETAIN
 70
1
  9
$PLINEGEN
 70
0
  9
$PSLTSCALE
 70
1
  9
$TREEDEPTH
 70
3020
  9
$CMLSTYLE
  2
Standard
  9
$CMLJUST
 70
0
  9
$CMLSCALE
 40
20.0
  9
$PROXYGRAPHICS
 70
1
  9
$MEASUREMENT
 70
1
  9
$CELWEIGHT
370
-1
  9
$ENDCAPS
280
0
  9
$JOINSTYLE
280
0
  9
$LWDISPLAY
290
0
  9
$INSUNITS
 70
4
  9
$HYPERLINKBASE
  1

  9
$STYLESHEET
  1

  9
$XEDIT
290
1
  9
$CEPSNTYPE
380
0
  9
$PSTYLEMODE
290
1
  9
$FINGERPRINTGUID
  2
{F01392E9-22C1-47A6-8C4E-4C521F5005C9}
  9
$VERSIONGUID
  2
{E817123F-E3C0-4688-863C-B9E24E0687F7}
  9
$EXTNAMES
290
1
  9
$PSVPSCALE
 40
0.0
  9
$OLESTARTUP
290
0
  9
$SORTENTS
280
127
  9
$INDEXCTL
280
0
  9
$HIDETEXT
280
1
  9
$XCLIPFRAME
280
1
  9
$HALOGAP
280
0
  9
$OBSCOLOR
 70
257
  9
$OBSLTYPE
280
0
  9
$INTERSECTIONDISPLAY
280
0
  9
$INTERSECTIONCOLOR
 70
257
  9
$DIMASSOC
280
2
  9
$PROJECTNAME
  1

  9
$CAMERADISPLAY
290
0
  9
$LENSLENGTH
 40
50.0
  9
$CAMERAHEIGHT
 40
0.0
  9
$STEPSPERSEC
 40
24.0
  9
$STEPSIZE
 40
100.0
  9
$3DDWFPREC
 40
2.0
  9
$PSOLWIDTH
 40
0.005
  9
$PSOLHEIGHT
 40
0.08
  9
$LOFTANG1
 40
1.570796326795
  9
$LOFTANG2
 40
1.570796326795
  9
$LOFTMAG1
 40
0.0
  9
$LOFTMAG2
 40
0.0
  9
$LOFTPARAM
 70
7
  9
$LOFTNORMALS
280
1
  9
$LATITUDE
 40
37.795
  9
$LONGITUDE
 40
-122.394
  9
$NORTHDIRECTION
 40
0.0
  9
$TIMEZONE
 70
-8000
  9
$LIGHTGLYPHDISPLAY
280
1
  9
$TILEMODELIGHTSYNCH
280
1
  9
$CMATERIAL
347
20
  9
$SOLIDHIST
280
0
  9
$SHOWHIST
280
1
  9
$DWFFRAME
280
2
  9
$DGNFRAME
280
2
  9
$REALWORLDSCALE
290
1
  9
$INTERFERECOLOR
 62
256
  9
$CSHADOW
280
0
  9
$SHADOWPLANELOCATION
 40
0.0
  0
ENDSEC
  0
SECTION
  2
CLASSES
  0
CLASS
  1
ACDBDICTIONARYWDFLT
  2
AcDbDictionaryWithDefault
  3
ObjectDBX Classes
 90
0
 91
0
280
0
281
0
  0
CLASS
  1
SUN
  2
AcDbSun
  3
SCENEOE
 90
1153
 91
0
280
0
281
0
  0
CLASS
  1
VISUALSTYLE
  2
AcDbVisualStyle
  3
ObjectDBX Classes
 90
4095
 91
0
280
0
281
0
  0
CLASS
  1
MATERIAL
  2
AcDbMaterial
  3
ObjectDBX Classes
 90
1153
 91
0
280
0
281
0
  0
CLASS
  1
SCALE
  2
AcDbScale
  3
ObjectDBX Classes
 90
1153
 91
0
280
0
281
0
  0
CLASS
  1
TABLESTYLE
  2
AcDbTableStyle
  3
ObjectDBX Classes
 90
4095
 91
0
280
0
281
0
  0
CLASS
  1
MLEADERSTYLE
  2
AcDbMLeaderStyle
  3
ACDB_MLEADERSTYLE_CLASS
 90
4095
 91
0
280
0
281
0
  0
CLASS
  1
DICTIONARYVAR
  2
AcDbDictionaryVar
  3
ObjectDBX Classes
 90
0
 91
0
280
0
281
0
  0
CLASS
  1
CELLSTYLEMAP
  2
AcDbCellStyleMap
  3
ObjectDBX Classes
 90
1152
 91
0
280
0
281
0
  0
CLASS
  1
MENTALRAYRENDERSETTINGS
  2
AcDbMentalRayRenderSettings
  3
SCENEOE
 90
1024
 91
0
280
0
281
0
  0
CLASS
  1
ACDBDETAILVIEWSTYLE
  2
AcDbDetailViewStyle
  3
ObjectDBX Classes
 90
1025
 91
0
280
0
281
0
  0
CLASS
  1
ACDBSECTIONVIEWSTYLE
  2
AcDbSectionViewStyle
  3
ObjectDBX Classes
 90
1025
 91
0
280
0
281
0
  0
CLASS
  1
RASTERVARIABLES
  2
AcDbRasterVariables
  3
ISM
 90
0
 91
0
280
0
281
0
  0
CLASS
  1
LAYOUT
  2
AcDbLayout
  3
ObjectDBX Classes
 90
0
 91
0
280
0
281
0
  0
CLASS
  1
ACDBPLACEHOLDER
  2
AcDbPlaceHolder
  3
ObjectDBX Classes
 90
0
 91
0
280
0
281
0
  0
ENDSEC
  0
SECTION
  2
TABLES
  0
TABLE
  2
VPORT
  5
8
330
0
100
AcDbSymbolTable
 70
1
  0
VPORT
  5
23
330
8
100
AcDbSymbolTableRecord
100
AcDbViewportTableRecord
  2
*Active
 70
0
 10
0.0
 20
0.0
 11
1.0
 21
1.0
 12
0.0
 22
0.0
 13
0.0
 23
0.0
 14
0.5
 24
0.5
 15
0.5
 25
0.5
 16
0.0
 26
0.0
 36
1.0
 17
0.0
 27
0.0
 37
0.0
 40
1000.0
 41
1.34
 42
50.0
 43
0.0
 44
0.0
 50
0.0
 51
0.0
 71
0
 72
1000
 73
1
 74
3
 75
0
 76
0
 77
0
 78
0
281
0
 65
0
146
0.0
  0
ENDTAB
  0
TABLE
  2
LTYPE
  5
2
330
0
100
AcDbSymbolTable
 70
21
  0
LTYPE
  5
24
330
2
100
AcDbSymbolTableRecord
100
AcDbLinetypeTableRecord
  2
ByBlock
 70
0
  3

 72
65
 73
0
 40
0.0
  0
LTYPE
  5
25
330
2
100
AcDbSymbolTableRecord
100
AcDbLinetypeTableRecord
  2
ByLayer
 70
0
  3

 72
65
 73
0
 40
0.0
  0
LTYPE
  5
26
330
2
100
AcDbSymbolTableRecord
100
AcDbLinetypeTableRecord
  2
Continuous
 70
0
  3

 72
65
 73
0
 40
0.0
  0
LTYPE
  5
2F
330
2
100
AcDbSymbolTableRecord
100
AcDbLinetypeTableRecord
  2
CENTER
 70
0
  3
Center ____ _ ____ _ ____ _ ____ _ ____ _ ____
 72
65
 73
4
 40
5.08
 49
3.175
 74
0
 49
-0.635
 74
0
 49
0.635
 74
0
 49
-0.635
 74
0
  0
LTYPE
  5
30
330
2
100
AcDbSymbolTableRecord
100
AcDbLinetypeTableRecord
  2
CENTERX2
 70
0
  3
Center (2x) ________  __  ________  __  ________
 72
65
 73
4
 40
8.89
 49
6.35
 74
0
 49
-0.635
 74
0
 49
1.27
 74
0
 49
-0.635
 74
0
  0
LTYPE
  5
31
330
2
100
AcDbSymbolTableRecord
100
AcDbLinetypeTableRecord
  2
CENTER2
 70
0
  3
Center (.5x) ____ _ ____ _ ____ _ ____ _ ____
 72
65
 73
4
 40
2.54
 49
1.587
 74
0
 49
-0.318
 74
0
 49
0.318
 74
0
 49
-0.318
 74
0
  0
LTYPE
  5
32
330
2
100
AcDbSymbolTableRecord
100
AcDbLinetypeTableRecord
  2
DASHED
 70
0
  3
Dashed __ __ __ __ __ __ __ __ __ __ __ __ __ _
 72
65
 73
2
 40
1.524
 49
1.27
 74
0
 49
-0.254
 74
0
  0
LTYPE
  5
33
330
2
100
AcDbSymbolTableRecord
100
AcDbLinetypeTableRecord
  2
DASHEDX2
 70
0
  3
Dashed (2x) ____  ____  ____  ____  ____  ____
 72
65
 73
2
 40
3.048
 49
2.54
 74
0
 49
-0.508
 74
0
  0
LTYPE
  5
34
330
2
100
AcDbSymbolTableRecord
100
AcDbLinetypeTableRecord
  2
DASHED2
 70
0
  3
Dashed (.5x) _ _ _ _ _ _ _ _ _ _ _ _ _ _
 72
65
 73
2
 40
0.762
 49
0.635
 74
0
 49
-0.127
 74
0
  0
LTYPE
  5
35
330
2
100
AcDbSymbolTableRecord
100
AcDbLinetypeTableRecord
  2
PHANTOM
 70
0
  3
Phantom ______  __  __  ______  __  __  ______
 72
65
 73
6
 40
6.35
 49
3.175
 74
0
 49
-0.635
 74
0
 49
0.635
 74
0
 49
-0.635
 74
0
 49
0.635
 74
0
 49
-0.635
 74
0
  0
LTYPE
  5
36
330
2
100
AcDbSymbolTableRecord
100
AcDbLinetypeTableRecord
  2
PHANTOMX2
 70
0
  3
Phantom (2x)____________    ____    ____    ____________
 72
65
 73
6
 40
10.795
 49
6.35
 74
0
 49
-0.635
 74
0
 49
1.27
 74
0
 49
-0.635
 74
0
 49
1.27
 74
0
 49
-0.635
 74
0
  0
LTYPE
  5
37
330
2
100
AcDbSymbolTableRecord
100
AcDbLinetypeTableRecord
  2
PHANTOM2
 70
0
  3
Phantom (.5x) ___ _ _ ___ _ _ ___ _ _ ___ _ _ ___
 72
65
 73
6
 40
3.175
 49
1.587
 74
0
 49
-0.318
 74
0
 49
0.318
 74
0
 49
-0.318
 74
0
 49
0.318
 74
0
 49
-0.318
 74
0
  0
LTYPE
  5
38
330
2
100
AcDbSymbolTableRecord
100
AcDbLinetypeTableRecord
  2
DASHDOT
 70
0
  3
Dash dot __ . __ . __ . __ . __ . __ . __ . __
 72
65
 73
4
 40
3.556
 49
2.54
 74
0
 49
-0.508
 74
0
 49
0.0
 74
0
 49
-0.508
 74
0
  0
LTYPE
  5
39
330
2
100
AcDbSymbolTableRecord
100
AcDbLinetypeTableRecord
  2
DASHDOTX2
 70
0
  3
Dash dot (2x) ____  .  ____  .  ____  .  ____
 72
65
 73
4
 40
6.096
 49
5.08
 74
0
 49
-0.508
 74
0
 49
0.0
 74
0
 49
-0.508
 74
0
  0
LTYPE
  5
3A
330
2
100
AcDbSymbolTableRecord
100
AcDbLinetypeTableRecord
  2
DASHDOT2
 70
0
  3
Dash dot (.5x) _ . _ . _ . _ . _ . _ . _ . _
 72
65
 73
4
 40
1.778
 49
1.27
 74
0
 49
-0.254
 74
0
 49
0.0
 74
0
 49
-0.254
 74
0
  0
LTYPE
  5
3B
330
2
100
AcDbSymbolTableRecord
100
AcDbLinetypeTableRecord
  2
DOT
 70
0
  3
Dot .  .  .  .  .  .  .  .  .  .  .  .  .  .  .  .
 72
65
 73
2
 40
0.508
 49
0.0
 74
0
 49
-0.508
 74
0
  0
LTYPE
  5
3C
330
2
100
AcDbSymbolTableRecord
100
AcDbLinetypeTableRecord
  2
DOTX2
 70
0
  3
Dot (2x) .    .    .    .    .    .    .    . 
 72
65
 73
2
 40
1.016
 49
0.0
 74
0
 49
-1.016
 74
0
  0
LTYPE
  5
3D
330
2
100
AcDbSymbolTableRecord
100
AcDbLinetypeTableRecord
  2
DOT2
 70
0
  3
Dot (.5) . . . . . . . . . . . . . . . . . . . 
 72
65
 73
2
 40
0.254
 49
0.0
 74
0
 49
-0.254
 74
0
  0
LTYPE
  5
3E
330
2
100
AcDbSymbolTableRecord
100
AcDbLinetypeTableRecord
  2
DIVIDE
 70
0
  3
Divide __ . . __ . . __ . . __ . . __ . . __
 72
65
 73
6
 40
4.064
 49
2.54
 74
0
 49
-0.508
 74
0
 49
0.0
 74
0
 49
-0.508
 74
0
 49
0.0
 74
0
 49
-0.508
 74
0
  0
LTYPE
  5
3F
330
2
100
AcDbSymbolTableRecord
100
AcDbLinetypeTableRecord
  2
DIVIDEX2
 70
0
  3
Divide (2x) ____  . .  ____  . .  ____  . .  ____
 72
65
 73
6
 40
6.604
 49
5.08
 74
0
 49
-0.508
 74
0
 49
0.0
 74
0
 49
-0.508
 74
0
 49
0.0
 74
0
 49
-0.508
 74
0
  0
LTYPE
  5
40
330
2
100
AcDbSymbolTableRecord
100
AcDbLinetypeTableRecord
  2
DIVIDE2
 70
0
  3
Divide(.5x) _ . _ . _ . _ . _ . _ . _ . _
 72
65
 73
6
 40
2.032
 49
1.27
 74
0
 49
-0.254
 74
0
 49
0.0
 74
0
 49
-0.254
 74
0
 49
0.0
 74
0
 49
-0.254
 74
0
  0
ENDTAB
  0
TABLE
  2
LAYER
  5
1
330
0
100
AcDbSymbolTable
 70
6
  0
LAYER
  5
27
330
1
100
AcDbSymbolTableRecord
100
AcDbLayerTableRecord
  2
0
 70
0
 62
7
  6
Continuous
370
-3
390
13
347
21
  0
LAYER
  5
28
330
1
100
AcDbSymbolTableRecord
100
AcDbLayerTableRecord
  2
Defpoints
 70
0
 62
7
  6
Continuous
290
0
370
-3
390
13
347
21
  0
LAYER
  5
8A
330
1
100
AcDbSymbolTableRecord
100
AcDbLayerTableRecord
  2
PROFILE
 70
0
 62
7
  6
Continuous
370
-3
390
13
347
21
  0
LAYER
  5
8B
330
1
100
AcDbSymbolTableRecord
100
AcDbLayerTableRecord
  2
CENTER
 70
0
 62
1
  6
Continuous
370
-3
390
13
347
21
  0
LAYER
  5
8C
330
1
100
AcDbSymbolTableRecord
100
AcDbLayerTableRecord
  2
REFERENCE
 70
0
 62
8
  6
Continuous
370
-3
390
13
347
21
  0
LAYER
  5
8D
330
1
100
AcDbSymbolTableRecord
100
AcDbLayerTableRecord
  2
TEXT
 70
0
 62
2
  6
Continuous
370
-3
390
13
347
21
  0
ENDTAB
  0
TABLE
  2
STYLE
  5
5
330
0
100
AcDbSymbolTable
 70
26
  0
STYLE
  5
29
330
5
100
AcDbSymbolTableRecord
100
AcDbTextStyleTableRecord
  2
Standard
 70
0
 40
0.0
 41
1.0
 50
0.0
 71
0
 42
2.5
  3
txt
  4

  0
STYLE
  5
41
330
5
100
AcDbSymbolTableRecord
100
AcDbTextStyleTableRecord
  2
OpenSans-Light
 70
0
 40
0.0
 41
1.0
 50
0.0
 71
0
 42
2.5
  3
OpenSans-Light.ttf
  4

  0
STYLE
  5
42
330
5
100
AcDbSymbolTableRecord
100
AcDbTextStyleTableRecord
  2
OpenSans-Light-Italic
 70
0
 40
0.0
 41
1.0
 50
0.0
 71
0
 42
2.5
  3
OpenSans-LightItalic.ttf
  4

  0
STYLE
  5
43
330
5
100
AcDbSymbolTableRecord
100
AcDbTextStyleTableRecord
  2
OpenSans
 70
0
 40
0.0
 41
1.0
 50
0.0
 71
0
 42
2.5
  3
OpenSans-Regular.ttf
  4

  0
STYLE
  5
44
330
5
100
AcDbSymbolTableRecord
100
AcDbTextStyleTableRecord
  2
OpenSans-Italic
 70
0
 40
0.0
 41
1.0
 50
0.0
 71
0
 42
2.5
  3
OpenSans-Italic.ttf
  4

  0
STYLE
  5
45
330
5
100
AcDbSymbolTableRecord
100
AcDbTextStyleTableRecord
  2
OpenSans-SemiBold
 70
0
 40
0.0
 41
1.0
 50
0.0
 71
0
 42
2.5
  3
OpenSans-SemiBold.ttf
  4

  0
STYLE
  5
46
330
5
100
AcDbSymbolTableRecord
100
AcDbTextStyleTableRecord
  2
OpenSans-SemiBoldItalic
 70
0
 40
0.0
 41
1.0
 50
0.0
 71
0
 42
2.5
  3
OpenSans-SemiBoldItalic.ttf
  4

  0
STYLE
  5
47
330
5
100
AcDbSymbolTableRecord
100
AcDbTextStyleTableRecord
  2
OpenSans-Bold
 70
0
 40
0.0
 41
1.0
 50
0.0
 71
0
 42
2.5
  3
OpenSans-Bold.ttf
  4

  0
STYLE
  5
48
330
5
100
AcDbSymbolTableRecord
100
AcDbTextStyleTableRecord
  2
OpenSans-BoldItalic
 70
0
 40
0.0
 41
1.0
 50
0.0
 71
0
 42
2.5
  3
OpenSans-BoldItalic.ttf
  4

  0
STYLE
  5
49
330
5
100
AcDbSymbolTableRecord
100
AcDbTextStyleTableRecord
  2
OpenSans-ExtraBold
 70
0
 40
0.0
 41
1.0
 50
0.0
 71
0
 42
2.5
  3
OpenSans-ExtraBold.ttf
  4

  0
STYLE
  5
4A
330
5
100
AcDbSymbolTableRecord
100
AcDbTextStyleTableRecord
  2
OpenSans-ExtraBoldItalic
 70
0
 40
0.0
 41
1.0
 50
0.0
 71
0
 42
2.5
  3
OpenSans-ExtraBoldItalic.ttf
  4

  0
STYLE
  5
4B
330
5
100
AcDbSymbolTableRecord
100
AcDbTextStyleTableRecord
  2
OpenSansCondensed-Bold
 70
0
 40
0.0
 41
1.0
 50
0.0
 71
0
 42
2.5
  3
OpenSansCondensed-Bold.ttf
  4

  0
STYLE
  5
4C
330
5
100
AcDbSymbolTableRecord
100
AcDbTextStyleTableRecord
  2
OpenSansCondensed-Light
 70
0
 40
0.0
 41
1.0
 50
0.0
 71
0
 42
2.5
  3
OpenSansCondensed-Light.ttf
  4

  0
STYLE
  5
4D
330
5
100
AcDbSymbolTableRecord
100
AcDbTextStyleTableRecord
  2
OpenSansCondensed-Italic
 70
0
 40
0.0
 41
1.0
 50
0.0
 71
0
 42
2.5
  3
OpenSansCondensed-LightItalic.ttf
  4

  0
STYLE
  5
4E
330
5
100
AcDbSymbolTableRecord
100
AcDbTextStyleTableRecord
  2
LiberationSans
 70
0
 40
0.0
 41
1.0
 50
0.0
 71
0
 42
2.5
  3
LiberationSans-Regular.ttf
  4

  0
STYLE
  5
4F
330
5
100
AcDbSymbolTableRecord
100
AcDbTextStyleTableRecord
  2
LiberationSans-Bold
 70
0
 40
0.0
 41
1.0
 50
0.0
 71
0
 42
2.5
  3
LiberationSans-Bold.ttf
  4

  0
STYLE
  5
50
330
5
100
AcDbSymbolTableRecord
100
AcDbTextStyleTableRecord
  2
LiberationSans-BoldItalic
 70
0
 40
0.0
 41
1.0
 50
0.0
 71
0
 42
2.5
  3
LiberationSans-BoldItalic.ttf
  4

  0
STYLE
  5
51
330
5
100
AcDbSymbolTableRecord
100
AcDbTextStyleTableRecord
  2
LiberationSans-Italic
 70
0
 40
0.0
 41
1.0
 50
0.0
 71
0
 42
2.5
  3
LiberationSans-Italic.ttf
  4

  0
STYLE
  5
52
330
5
100
AcDbSymbolTableRecord
100
AcDbTextStyleTableRecord
  2
LiberationSerif
 70
0
 40
0.0
 41
1.0
 50
0.0
 71
0
 42
2.5
  3
LiberationSerif-Regular.ttf
  4

  0
STYLE
  5
53
330
5
100
AcDbSymbolTableRecord
100
AcDbTextStyleTableRecord
  2
LiberationSerif-Bold
 70
0
 40
0.0
 41
1.0
 50
0.0
 71
0
 42
2.5
  3
LiberationSerif-Bold.ttf
  4

  0
STYLE
  5
54
330
5
100
AcDbSymbolTableRecord
100
AcDbTextStyleTableRecord
  2
LiberationSerif-BoldItalic
 70
0
 40
0.0
 41
1.0
 50
0.0
 71
0
 42
2.5
  3
LiberationSerif-BoldItalic.ttf
  4

  0
STYLE
  5
55
330
5
100
AcDbSymbolTableRecord
100
AcDbTextStyleTableRecord
  2
LiberationSerif-Italic
 70
0
 40
0.0
 41
1.0
 50
0.0
 71
0
 42
2.5
  3
LiberationSerif-Italic.ttf
  4

  0
STYLE
  5
56
330
5
100
AcDbSymbolTableRecord
100
AcDbTextStyleTableRecord
  2
LiberationMono
 70
0
 40
0.0
 41
1.0
 50
0.0
 71
0
 42
2.5
  3
LiberationMono-Regular.ttf
  4

  0
STYLE
  5
57
330
5
100
AcDbSymbolTableRecord
100
AcDbTextStyleTableRecord
  2
LiberationMono-Bold
 70
0
 40
0.0
 41
1.0
 50
0.0
 71
0
 42
2.5
  3
LiberationMono-Bold.ttf
  4

  0
STYLE
  5
58
330
5
100
AcDbSymbolTableRecord
100
AcDbTextStyleTableRecord
  2
LiberationMono-BoldItalic
 70
0
 40
0.0
 41
1.0
 50
0.0
 71
0
 42
2.5
  3
LiberationMono-BoldItalic.ttf
  4

  0
STYLE
  5
59
330
5
100
AcDbSymbolTableRecord
100
AcDbTextStyleTableRecord
  2
LiberationMono-Italic
 70
0
 40
0.0
 41
1.0
 50
0.0
 71
0
 42
2.5
  3
LiberationMono-Italic.ttf
  4

  0
ENDTAB
  0
TABLE
  2
VIEW
  5
7
330
0
100
AcDbSymbolTable
 70
0
  0
ENDTAB
  0
TABLE
  2
UCS
  5
6
330
0
100
AcDbSymbolTable
 70
0
  0
ENDTAB
  0
TABLE
  2
APPID
  5
3
330
0
100
AcDbSymbolTable
 70
3
  0
APPID
  5
2A
330
3
100
AcDbSymbolTableRecord
100
AcDbRegAppTableRecord
  2
ACAD
 70
0
  0
APPID
  5
9A
330
3
100
AcDbSymbolTableRecord
100
AcDbRegAppTableRecord
  2
HATCHBACKGROUNDCOLOR
 70
0
  0
APPID
  5
9B
330
3
100
AcDbSymbolTableRecord
100
AcDbRegAppTableRecord
  2
EZDXF
 70
0
  0
ENDTAB
  0
TABLE
  2
DIMSTYLE
  5
4
330
0
100
AcDbSymbolTable
 70
12
100
AcDbDimStyleTable
  0
DIMSTYLE
105
2B
330
4
100
AcDbSymbolTableRecord
100
AcDbDimStyleTableRecord
  2
Standard
 70
0
 40
1.0
 41
2.5
 42
0.625
 43
3.75
 44
1.25
 45
0.0
 46
0.0
 47
0.0
 48
0.0
 49
2.5
140
2.5
141
2.5
142
0.0
143
0.03937007874
144
1.0
145
0.0
146
1.0
147
0.625
148
0.0
 69
0
 70
0
 71
0
 72
0
 73
0
 74
0
 75
0
 76
0
 77
1
 78
8
 79
3
170
0
171
3
172
1
173
0
174
0
175
0
176
0
177
0
178
0
179
2
271
2
272
2
273
2
274
3
275
0
276
0
277
2
278
44
279
0
280
0
281
0
282
0
283
0
284
8
285
0
286
0
288
0
289
3
290
0
371
-2
372
-2
  0
DIMSTYLE
105
73
330
4
100
AcDbSymbolTableRecord
100
AcDbDimStyleTableRecord
  2
EZDXF
 70
0
 40
1.0
 41
0.175
 42
0.125
 43
3.75
 44
0.375
 45
0.0
 46
0.0
 47
0.0
 48
0.0
 49
2.5
140
0.25
141
2.5
142
0.0
143
0.03937007874
144
100.0
145
0.0
146
0.5
147
0.1
148
0.0
 69
0
 70
0
 71
0
 72
0
 73
0
 74
0
 75
0
 76
0
 77
1
 78
12
 79
3
170
0
171
3
172
1
173
0
174
0
175
0
176
0
177
0
178
0
179
2
271
2
272
2
273
2
274
3
275
0
276
0
277
2
278
46
279
2
280
0
281
0
282
0
283
0
284
8
285
0
286
0
288
1
289
3
290
0
340
4C
342
74
371
-2
372
-2
  0
DIMSTYLE
105
7C
330
4
100
AcDbSymbolTableRecord
100
AcDbDimStyleTableRecord
  2
EZ_M_100_H25_CM
 70
0
 40
1.0
 41
0.25
 42
0.125
 43
3.75
 44
0.375
 45
0.0
 46
0.0
 47
0.0
 48
0.0
 49
2.5
140
0.25
141
2.5
142
0.125
143
0.03937007874
144
100.0
145
0.0
146
0.5
147
0.1
148
0.0
 69
0
 70
0
 71
0
 72
0
 73
0
 74
0
 75
0
 76
0
 77
1
 78
12
 79
3
170
0
171
3
172
1
173
0
174
0
175
0
176
0
177
0
178
0
179
2
271
2
272
2
273
2
274
3
275
0
276
0
277
2
278
46
279
2
280
0
281
0
282
0
283
0
284
8
285
0
286
0
288
1
289
3
290
0
340
4C
371
-2
372
-2
  0
DIMSTYLE
105
7D
330
4
100
AcDbSymbolTableRecord
100
AcDbDimStyleTableRecord
  2
EZ_M_50_H25_CM
 70
0
 40
1.0
 41
0.125
 42
0.0625
 43
3.75
 44
0.1875
 45
0.0
 46
0.0
 47
0.0
 48
0.0
 49
2.5
140
0.125
141
2.5
142
0.0625
143
0.03937007874
144
100.0
145
0.0
146
0.5
147
0.05
148
0.0
 69
0
 70
0
 71
0
 72
0
 73
0
 74
0
 75
0
 76
0
 77
1
 78
12
 79
3
170
0
171
3
172
1
173
0
174
0
175
0
176
0
177
0
178
0
179
2
271
2
272
2
273
2
274
3
275
0
276
0
277
2
278
46
279
2
280
0
281
0
282
0
283
0
284
8
285
0
286
0
288
1
289
3
290
0
340
4C
371
-2
372
-2
  0
DIMSTYLE
105
7E
330
4
100
AcDbSymbolTableRecord
100
AcDbDimStyleTableRecord
  2
EZ_M_25_H25_CM
 70
0
 40
1.0
 41
0.0625
 42
0.03125
 43
3.75
 44
0.09375
 45
0.0
 46
0.0
 47
0.0
 48
0.0
 49
2.5
140
0.0625
141
2.5
142
0.03125
143
0.03937007874
144
100.0
145
0.0
146
0.5
147
0.025
148
0.0
 69
0
 70
0
 71
0
 72
0
 73
0
 74
0
 75
0
 76
0
 77
1
 78
12
 79
3
170
0
171
3
172
1
173
0
174
0
175
0
176
0
177
0
178
0
179
2
271
2
272
2
273
2
274
3
275
0
276
0
277
2
278
46
279
2
280
0
281
0
282
0
283
0
284
8
285
0
286
0
288
1
289
3
290
0
340
4C
371
-2
372
-2
  0
DIMSTYLE
105
7F
330
4
100
AcDbSymbolTableRecord
100
AcDbDimStyleTableRecord
  2
EZ_M_20_H25_CM
 70
0
 40
1.0
 41
0.05
 42
0.025
 43
3.75
 44
0.07500000000000001
 45
0.0
 46
0.0
 47
0.0
 48
0.0
 49
2.5
140
0.05
141
2.5
142
0.025
143
0.03937007874
144
100.0
145
0.0
146
0.5
147
0.020000000000000004
148
0.0
 69
0
 70
0
 71
0
 72
0
 73
0
 74
0
 75
0
 76
0
 77
1
 78
12
 79
3
170
0
171
3
172
1
173
0
174
0
175
0
176
0
177
0
178
0
179
2
271
2
272
2
273
2
274
3
275
0
276
0
277
2
278
46
279
2
280
0
281
0
282
0
283
0
284
8
285
0
286
0
288
1
289
3
290
0
340
4C
371
-2
372
-2
  0
DIMSTYLE
105
80
330
4
100
AcDbSymbolTableRecord
100
AcDbDimStyleTableRecord
  2
EZ_M_10_H25_CM
 70
0
 40
1.0
 41
0.025
 42
0.0125
 43
3.75
 44
0.037500000000000006
 45
0.0
 46
0.0
 47
0.0
 48
0.0
 49
2.5
140
0.025
141
2.5
142
0.0125
143
0.03937007874
144
100.0
145
0.0
146
0.5
147
0.010000000000000002
148
0.0
 69
0
 70
0
 71
0
 72
0
 73
0
 74
0
 75
0
 76
0
 77
1
 78
12
 79
3
170
0
171
3
172
1
173
0
174
0
175
0
176
0
177
0
178
0
179
2
271
2
272
2
273
2
274
3
275
0
276
0
277
2
278
46
279
2
280
0
281
0
282
0
283
0
284
8
285
0
286
0
288
1
289
3
290
0
340
4C
371
-2
372
-2
  0
DIMSTYLE
105
81
330
4
100
AcDbSymbolTableRecord
100
AcDbDimStyleTableRecord
  2
EZ_M_5_H25_CM
 70
0
 40
1.0
 41
0.0125
 42
0.00625
 43
3.75
 44
0.018750000000000003
 45
0.0
 46
0.0
 47
0.0
 48
0.0
 49
2.5
140
0.0125
141
2.5
142
0.00625
143
0.03937007874
144
100.0
145
0.0
146
0.5
147
0.005000000000000001
148
0.0
 69
0
 70
0
 71
0
 72
0
 73
0
 74
0
 75
0
 76
0
 77
1
 78
12
 79
3
170
0
171
3
172
1
173
0
174
0
175
0
176
0
177
0
178
0
179
2
271
2
272
2
273
2
274
3
275
0
276
0
277
2
278
46
279
2
280
0
281
0
282
0
283
0
284
8
285
0
286
0
288
1
289
3
290
0
340
4C
371
-2
372
-2
  0
DIMSTYLE
105
82
330
4
100
AcDbSymbolTableRecord
100
AcDbDimStyleTableRecord
  2
EZ_M_1_H25_CM
 70
0
 40
1.0
 41
0.0025
 42
0.00125
 43
3.75
 44
0.00375
 45
0.0
 46
0.0
 47
0.0
 48
0.0
 49
2.5
140
0.0025
141
2.5
142
0.00125
143
0.03937007874
144
100.0
145
0.0
146
0.5
147
0.001
148
0.0
 69
0
 70
0
 71
0
 72
0
 73
0
 74
0
 75
0
 76
0
 77
1
 78
12
 79
3
170
0
171
3
172
1
173
0
174
0
175
0
176
0
177
0
178
0
179
2
271
2
272
2
273
2
274
3
275
0
276
0
277
2
278
46
279
2
280
0
281
0
282
0
283
0
284
8
285
0
286
0
288
1
289
3
290
0
340
4C
371
-2
372
-2
  0
DIMSTYLE
105
83
330
4
100
AcDbSymbolTableRecord
100
AcDbDimStyleTableRecord
  2
EZ_RADIUS
 70
0
 40
1.0
 41
0.25
 42
0.125
 43
3.75
 44
0.375
 45
0.0
 46
0.0
 47
0.0
 48
0.0
 49
2.5
140
0.25
141
0.0
142
0.0
143
0.03937007874
144
100.0
145
0.0
146
0.5
147
0.1
148
0.0
 69
0
 70
0
 71
0
 72
0
 73
0
 74
0
 75
0
 76
0
 77
1
 78
12
 79
3
170
0
171
3
172
0
173
0
174
0
175
0
176
0
177
0
178
0
179
2
271
2
272
2
273
2
274
3
275
0
276
0
277
2
278
46
279
1
280
0
281
0
282
0
283
0
284
8
285
0
286
0
288
1
289
3
290
0
340
4C
342
84
371
-2
372
-2
  0
DIMSTYLE
105
88
330
4
100
AcDbSymbolTableRecord
100
AcDbDimStyleTableRecord
  2
EZ_RADIUS_INSIDE
 70
0
 40
1.0
 41
0.25
 42
0.125
 43
3.75
 44
0.375
 45
0.0
 46
0.0
 47
0.0
 48
0.0
 49
2.5
140
0.25
141
0.0
142
0.0
143
0.03937007874
144
100.0
145
0.0
146
0.5
147
0.1
148
0.0
 69
0
 70
0
 71
0
 72
0
 73
0
 74
0
 75
0
 76
0
 77
0
 78
12
 79
3
170
0
171
3
172
0
173
0
174
1
175
0
176
0
177
0
178
0
179
2
271
2
272
2
273
2
274
3
275
0
276
0
277
2
278
46
279
0
280
0
281
0
282
0
283
0
284
8
285
0
286
0
288
1
289
0
290
0
340
4C
342
84
371
-2
372
-2
  0
DIMSTYLE
105
89
330
4
100
AcDbSymbolTableRecord
100
AcDbDimStyleTableRecord
  2
EZ_CURVED
 70
0
 40
1.0
 41
0.25
 42
0.125
 43
3.75
 44
0.375
 45
0.0
 46
0.0
 47
0.0
 48
0.0
 49
2.5
140
0.25
141
2.5
142
0.0
143
0.03937007874
144
100.0
145
0.0
146
0.5
147
0.1
148
0.0
 69
0
 70
0
 71
0
 72
0
 73
0
 74
0
 75
0
 76
0
 77
1
 78
12
 79
2
 90
2
170
0
171
3
172
1
173
0
174
0
175
0
176
0
177
0
178
0
179
2
271
2
272
2
273
2
274
3
275
0
276
0
277
2
278
46
279
2
280
0
281
0
282
0
283
0
284
8
285
0
286
0
288
1
289
3
290
0
340
4C
371
-2
372
-2
  0
ENDTAB
  0
TABLE
  2
BLOCK_RECORD
  5
9
330
0
100
AcDbSymbolTable
 70
5
  0
BLOCK_RECORD
  5
17
330
9
100
AcDbSymbolTableRecord
100
AcDbBlockTableRecord
  2
*Model_Space
340
1A
 70
0
280
1
281
0
  0
BLOCK_RECORD
  5
1B
330
9
100
AcDbSymbolTableRecord
100
AcDbBlockTableRecord
  2
*Paper_Space
340
1E
 70
0
280
1
281
0
  0
BLOCK_RECORD
  5
74
330
9
100
AcDbSymbolTableRecord
100
AcDbBlockTableRecord
  2
_ARCHTICK
340
0
 70
0
280
1
281
0
  0
BLOCK_RECORD
  5
78
330
9
100
AcDbSymbolTableRecord
100
AcDbBlockTableRecord
  2
_CLOSEDFILLED
340
0
 70
0
280
1
281
0
  0
BLOCK_RECORD
  5
84
330
9
100
AcDbSymbolTableRecord
100
AcDbBlockTableRecord
  2
_CLOSEDBLANK
340
0
 70
0
280
1
281
0
  0
ENDTAB
  0
ENDSEC
  0
SECTION
  2
BLOCKS
  0
BLOCK
  5
18
330
17
100
AcDbEntity
  8
0
100
AcDbBlockBegin
  2
*Model_Space
 70
0
 10
0.0
 20
0.0
 30
0.0
  3
*Model_Space
  1

  0
ENDBLK
  5
19
330
17
100
AcDbEntity
  8
0
100
AcDbBlockEnd
  0
BLOCK
  5
1C
330
1B
100
AcDbEntity
  8
0
100
AcDbBlockBegin
  2
*Paper_Space
 70
0
 10
0.0
 20
0.0
 30
0.0
  3
*Paper_Space
  1

  0
ENDBLK
  5
1D
330
1B
100
AcDbEntity
  8
0
100
AcDbBlockEnd
  0
BLOCK
  5
75
330
74
100
AcDbEntity
  8
0
100
AcDbBlockBegin
  2
_ARCHTICK
 70
0
 10
0.0
 20
0.0
 30
0.0
  3
_ARCHTICK
  1

  0
LWPOLYLINE
  5
77
330
74
100
AcDbEntity
  8
0
  6
BYBLOCK
 62
0
100
AcDbPolyline
 90
2
 70
0
 43
0.15
 10
-0.5
 20
-0.5
 10
0.5
 20
0.5
  0
ENDBLK
  5
76
330
74
100
AcDbEntity
  8
0
100
AcDbBlockEnd
  0
BLOCK
  5
79
330
78
100
AcDbEntity
  8
0
100
AcDbBlockBegin
  2
_CLOSEDFILLED
 70
0
 10
0.0
 20
0.0
 30
0.0
  3
_CLOSEDFILLED
  1

  0
SOLID
  5
7B
330
78
100
AcDbEntity
  8
0
  6
BYBLOCK
 62
0
100
AcDbTrace
 10
-1.0
 20
0.16439898372402537
 30
0.0
 11
0.0
 21
0.0
 31
0.0
 12
-1.0
 22
-0.16439898372402537
 32
0.0
 13
-1.0
 23
-0.16439898372402537
 33
0.0
  0
ENDBLK
  5
7A
330
78
100
AcDbEntity
  8
0
100
AcDbBlockEnd
  0
BLOCK
  5
85
330
84
100
AcDbEntity
  8
0
100
AcDbBlockBegin
  2
_CLOSEDBLANK
 70
0
 10
0.0
 20
0.0
 30
0.0
  3
_CLOSEDBLANK
  1

  0
LWPOLYLINE
  5
87
330
84
100
AcDbEntity
  8
0
  6
BYBLOCK
 62
0
100
AcDbPolyline
 90
3
 70
1
 10
-1.0
 20
0.16439898372402537
 10
0.0
 20
0.0
 10
-1.0
 20
-0.16439898372402537
  0
ENDBLK
  5
86
330
84
100
AcDbEntity
  8
0
100
AcDbBlockEnd
  0
ENDSEC
  0
SECTION
  2
ENTITIES
  0
LWPOLYLINE
  5
8E
330
17
100
AcDbEntity
  8
PROFILE
370
35
100
AcDbPolyline
 90
469
 70
1
 10
12.796017292132957
 20
-1.6346074328212137
 10
12.885669816572213
 20
-1.6460599558581817
 10
12.902065546050473
 20
-1.6475972038831963
 10
12.951408276567896
 20
-1.6500034111947735
 10
13.033743668468437
 20
-1.6499615426114997
 10
13.148866880443089
 20
-1.6441563713984124
 10
13.296323078969534
 20
-1.6292912877454742
 10
13.475409004510942
 20
-1.6021050498945164
 10
13.685175589456081
 20
-1.5593884141711487
 10
13.924431619047148
 20
-1.4980005805648438
 10
14.191748422833253
 20
-1.4148853911013732
 10
14.485465580519
 20
-1.3070872190653415
 10
14.803697622460385
 20
-1.1717664881539775
 10
14.803697622460385
 20
1.1717664881539775
 10
14.485465580519
 20
1.3070872190653415
 10
14.191748422833253
 20
1.4148853911013732
 10
13.924431619047148
 20
1.4980005805648438
 10
13.685175589456081
 20
1.5593884141711487
 10
13.475409004510942
 20
1.6021050498945164
 10
13.296323078969534
 20
1.6292912877454742
 10
13.148866880443089
 20
1.6441563713984124
 10
13.033743668468437
 20
1.6499615426114997
 10
12.951408276567896
 20
1.6500034111947735
 10
12.902065546050473
 20
1.6475972038831963
 10
12.885669816572213
 20
1.6460599558581817
 10
12.796017292132957
 20
1.6346074328212137
 10
12.583391693320937
 20
2.8404671257491576
 10
12.671554502541877
 20
2.86036824362016
 10
12.687487218334843
 20
2.86453137274082
 10
12.73467718946107
 20
2.8791464852496986
 10
12.812032829760673
 20
2.9073461913870413
 10
12.918227777044095
 20
2.9521757253980603
 10
13.051707120647011
 20
3.016577324968365
 10
13.210694602398616
 20
3.1033750259851223
 10
13.393200764486528
 20
3.2152599308070435
 10
13.597032014323307
 20
3.354776006585188
 10
13.819800573240348
 20
3.524306468343517
 10
14.058935272665847
 20
3.7260607995088737
 10
14.31169315839456
 20
3.962062460381251
 10
13.510157673949282
 20
6.164263104786274
 10
13.164834956658092
 20
6.182581228467425
 10
12.851961964732576
 20
6.1834211908950065
 10
12.57233926778986
 20
6.170096189564768
 10
12.32651626665612
 20
6.145951502278381
 10
12.114790204823217
 20
6.114347612204555
 10
11.937206241139071
 20
6.078643325378749
 10
11.793558581453102
 20
6.042178944640508
 10
11.68339266318902
 20
6.008259563732162
 10
11.606008383091712
 20
5.980138544792309
 10
11.56046435470464
 20
5.96100124177389
 10
11.54558317849136
 20
5.953949031402383
 10
11.465254356411506
 20
5.912524210756942
 10
10.853023345211803
 20
6.972939428124096
 10
10.929062703277895
 20
7.021793818378608
 10
10.942610684719092
 20
7.0311551898317495
 10
10.981956089486502
 20
7.061028823896424
 10
11.04500174631737
 20
7.113985066844336
 10
11.129459750996679
 20
7.1924318602380986
 10
11.232862660892248
 20
7.298602192351209
 10
11.352575462149476
 20
7.434542272793507
 10
11.485808264728272
 20
7.602100475947127
 10
11.629629677851586
 20
7.802917096120282
 10
11.78098081598039
 20
8.038414954482272
 10
11.936689883142638
 20
8.309790894861601
 10
12.09348728133069
 20
8.61800820238022
 10
10.587093321268119
 20
10.413258616147008
 10
10.256330944752964
 20
10.312364696535289
 10
9.962039218927478
 20
10.206145137489129
 10
9.703837252870937
 20
10.097987137181686
 10
9.48109716209236
 20
9.991222134626975
 10
9.292948911172617
 20
9.889109614322603
 10
9.138286156226215
 20
9.794821266750377
 10
9.01577306315252
 20
9.711425564094931
 10
8.923852074217448
 20
9.641872808999448
 10
8.860752592173451
 20
9.588980712442652
 10
8.82450054789848
 20
9.555420554897927
 10
8.812928814424273
 20
9.54370398283027
 10
8.751612536173806
 20
9.477303309311434
 10
7.813620208104516
 20
10.264372325841496
 10
7.868364646211585
 20
10.336287428000812
 10
7.8778938067922955
 20
10.349717922230056
 10
7.904649008709605
 20
10.391246876694446
 10
7.945780445403139
 20
10.462572352002498
 10
7.998314625646614
 20
10.565174563744351
 10
8.05916918483701
 20
10.700307919440204
 10
8.125168174995459
 20
10.868993999344788
 10
8.193057775767386
 20
11.07201550863407
 10
8.259522367176569
 20
11.309911225071687
 10
8.321200903553898
 20
11.58297196274065
 10
8.374703526932043
 20
11.891237568841884
 10
8.416628357274817
 20
12.234494966917
 10
6.3870692651855725
 20
13.406261455070977
 10
6.11076205358696
 20
13.198324787907225
 10
5.870547519279358
 20
12.997857353842026
 10
5.664909251870584
 20
12.807911805636532
 10
5.492117813688698
 20
12.63140392280522
 10
5.350240829515486
 20
12.471099049239307
 10
5.237153894132526
 20
12.329599207185678
 10
5.150552254796478
 20
12.209330935142765
 10
5.087963223065302
 20
12.112533894613998
 10
5.046759267858295
 20
12.04125028788922
 10
5.024171739258181
 20
11.997315126113254
 10
5.017305170360631
 20
11.982347383858993
 10
4.982397084028444
 20
11.898979758662708
 10
3.8317791571471305
 20
12.317770435060593
 10
3.8586256881176046
 20
12.404072226450431
 10
3.8629866704363613
 20
12.419951927638746
 10
3.873924597287618
 20
12.468127197692352
 10
3.8881807555432237
 20
12.54921900038649
 10
3.902454713891574
 20
12.663601289492993
 10
3.913420964420796
 20
12.811398591718742
 10
3.917745691226
 20
12.992484640307726
 10
3.9121036023941684
 20
13.206482065434018
 10
3.89319476145237
 20
13.452763143766873
 10
3.857761354312871
 20
13.730451605832648
 10
3.802604327912883
 20
14.038425496044164
 10
3.7245998371264406
 20
14.37532107652826
 10
1.4166703926185915
 20
14.782271307166495
 10
1.2281450735154538
 20
14.492372123329028
 10
1.0709811487521859
 20
14.221836145377278
 10
0.942709589938276
 20
13.973013285685052
 10
0.8407080019278494
 20
13.748051978225506
 10
0.7622147426737396
 20
13.548889884998065
 10
0.7043435802468216
 20
13.377245517729957
 10
0.6640988304564226
 20
13.234610804878608
 10
0.6383909168716488
 20
13.1222446305765
 10
0.624052293605212
 20
13.041167368688734
 10
0.6178536699855468
 20
12.99215643160564
 10
0.6165204752134639
 20
12.975742849780993
 10
0.6122310111997042
 20
12.88546363888104
 10
-0.6122310111997029
 20
12.88546363888104
 10
-0.6165204752134625
 20
12.975742849780993
 10
-0.6178536699855455
 20
12.99215643160564
 10
-0.6240522936052106
 20
13.041167368688734
 10
-0.6383909168716475
 20
13.1222446305765
 10
-0.6640988304564213
 20
13.234610804878608
 10
-0.7043435802468203
 20
13.377245517729957
 10
-0.7622147426737382
 20
13.548889884998065
 10
-0.8407080019278477
 20
13.748051978225506
 10
-0.9427095899382743
 20
13.97301328568505
 10
-1.070981148752184
 20
14.221836145377278
 10
-1.2281450735154524
 20
14.492372123329028
 10
-1.4166703926185902
 20
14.782271307166495
 10
-3.7245998371264397
 20
14.37532107652826
 10
-3.802604327912882
 20
14.038425496044164
 10
-3.8577613543128693
 20
13.730451605832648
 10
-3.893194761452368
 20
13.452763143766875
 10
-3.9121036023941667
 20
13.206482065434018
 10
-3.9177456912259987
 20
12.992484640307726
 10
-3.913420964420795
 20
12.811398591718742
 10
-3.902454713891573
 20
12.663601289492993
 10
-3.888180755543223
 20
12.54921900038649
 10
-3.873924597287617
 20
12.468127197692352
 10
-3.86298667043636
 20
12.419951927638746
 10
-3.858625688117603
 20
12.404072226450431
 10
-3.831779157147129
 20
12.317770435060593
 10
-4.98239708402844
 20
11.89897975866271
 10
-5.017305170360626
 20
11.982347383858995
 10
-5.024171739258176
 20
11.997315126113252
 10
-5.046759267858291
 20
12.041250287889222
 10
-5.087963223065296
 20
12.112533894614
 10
-5.150552254796474
 20
12.209330935142766
 10
-5.237153894132522
 20
12.329599207185678
 10
-5.3502408295154815
 20
12.471099049239307
 10
-5.492117813688694
 20
12.631403922805221
 10
-5.664909251870579
 20
12.807911805636532
 10
-5.870547519279353
 20
12.997857353842026
 10
-6.110762053586955
 20
13.198324787907225
 10
-6.387069265185567
 20
13.406261455070979
 10
-8.416628357274812
 20
12.234494966917001
 10
-8.374703526932038
 20
11.891237568841884
 10
-8.321200903553894
 20
11.582971962740654
 10
-8.259522367176563
 20
11.30991122507169
 10
-8.193057775767382
 20
11.072015508634072
 10
-8.125168174995455
 20
10.868993999344791
 10
-8.059169184837007
 20
10.700307919440204
 10
-7.99831462564661
 20
10.565174563744353
 10
-7.945780445403136
 20
10.4625723520025
 10
-7.9046490087096
 20
10.391246876694447
 10
-7.877893806792291
 20
10.349717922230058
 10
-7.868364646211581
 20
10.336287428000814
 10
-7.813620208104512
 20
10.264372325841498
 10
-8.751612536173804
 20
9.477303309311438
 10
-8.812928814424271
 20
9.543703982830273
 10
-8.82450054789848
 20
9.555420554897928
 10
-8.86075259217345
 20
9.588980712442655
 10
-8.923852074217448
 20
9.641872808999452
 10
-9.015773063152519
 20
9.711425564094935
 10
-9.138286156226213
 20
9.794821266750379
 10
-9.292948911172616
 20
9.889109614322606
 10
-9.481097162092357
 20
9.991222134626977
 10
-9.703837252870935
 20
10.09798713718169
 10
-9.962039218927476
 20
10.206145137489132
 10
-10.256330944752962
 20
10.312364696535292
 10
-10.587093321268117
 20
10.413258616147012
 10
-12.093487281330688
 20
8.618008202380224
 10
-11.936689883142636
 20
8.309790894861605
 10
-11.780980815980389
 20
8.038414954482276
 10
-11.629629677851584
 20
7.802917096120287
 10
-11.48580826472827
 20
7.602100475947129
 10
-11.352575462149474
 20
7.434542272793512
 10
-11.232862660892247
 20
7.298602192351211
 10
-11.129459750996677
 20
7.192431860238102
 10
-11.04500174631737
 20
7.113985066844339
 10
-10.9819560894865
 20
7.061028823896428
 10
-10.942610684719092
 20
7.031155189831751
 10
-10.929062703277893
 20
7.021793818378612
 10
-10.8530233452118
 20
6.9729394281241
 10
-11.465254356411505
 20
5.912524210756943
 10
-11.545583178491357
 20
5.953949031402385
 10
-11.560464354704637
 20
5.961001241773892
 10
-11.606008383091712
 20
5.980138544792311
 10
-11.683392663189018
 20
6.008259563732165
 10
-11.7935585814531
 20
6.04217894464051
 10
-11.93720624113907
 20
6.078643325378751
 10
-12.114790204823215
 20
6.114347612204558
 10
-12.32651626665612
 20
6.145951502278383
 10
-12.572339267789859
 20
6.170096189564772
 10
-12.851961964732574
 20
6.183421190895009
 10
-13.16483495665809
 20
6.182581228467427
 10
-13.51015767394928
 20
6.164263104786276
 10
-14.311693158394558
 20
3.962062460381253
 10
-14.058935272665845
 20
3.726060799508876
 10
-13.819800573240347
 20
3.52430646834352
 10
-13.597032014323306
 20
3.354776006585191
 10
-13.393200764486528
 20
3.2152599308070458
 10
-13.210694602398615
 20
3.103375025985125
 10
-13.05170712064701
 20
3.0165773249683667
 10
-12.918227777044093
 20
2.9521757253980625
 10
-12.812032829760671
 20
2.9073461913870444
 10
-12.73467718946107
 20
2.8791464852497004
 10
-12.687487218334843
 20
2.8645313727408217
 10
-12.671554502541875
 20
2.8603682436201625
 10
-12.583391693320936
 20
2.84046712574916
 10
-12.796017292132957
 20
1.6346074328212152
 10
-12.885669816572213
 20
1.6460599558581832
 10
-12.902065546050473
 20
1.6475972038831979
 10
-12.951408276567896
 20
1.650003411194775
 10
-13.033743668468437
 20
1.6499615426115013
 10
-13.148866880443089
 20
1.644156371398414
 10
-13.296323078969534
 20
1.6292912877454757
 10
-13.475409004510942
 20
1.602105049894518
 10
-13.685175589456081
 20
1.5593884141711505
 10
-13.924431619047148
 20
1.4980005805648455
 10
-14.191748422833253
 20
1.414885391101375
 10
-14.485465580519
 20
1.3070872190653433
 10
-14.803697622460385
 20
1.1717664881539793
 10
-14.803697622460385
 20
-1.1717664881539758
 10
-14.485465580519
 20
-1.3070872190653398
 10
-14.191748422833253
 20
-1.4148853911013715
 10
-13.924431619047148
 20
-1.498000580564842
 10
-13.685175589456081
 20
-1.559388414171147
 10
-13.475409004510942
 20
-1.6021050498945149
 10
-13.296323078969534
 20
-1.6292912877454726
 10
-13.148866880443089
 20
-1.6441563713984109
 10
-13.033743668468437
 20
-1.6499615426114982
 10
-12.951408276567896
 20
-1.650003411194772
 10
-12.902065546050473
 20
-1.6475972038831947
 10
-12.885669816572213
 20
-1.64605995585818
 10
-12.796017292132957
 20
-1.6346074328212121
 10
-12.583391693320937
 20
-2.8404671257491567
 10
-12.671554502541877
 20
-2.860368243620159
 10
-12.687487218334843
 20
-2.864531372740819
 10
-12.73467718946107
 20
-2.8791464852496977
 10
-12.812032829760673
 20
-2.9073461913870404
 10
-12.918227777044095
 20
-2.9521757253980594
 10
-13.051707120647011
 20
-3.016577324968364
 10
-13.210694602398616
 20
-3.1033750259851223
 10
-13.393200764486528
 20
-3.2152599308070426
 10
-13.597032014323307
 20
-3.3547760065851873
 10
-13.819800573240348
 20
-3.524306468343517
 10
-14.058935272665847
 20
-3.726060799508873
 10
-14.31169315839456
 20
-3.96206246038125
 10
-13.510157673949282
 20
-6.164263104786273
 10
-13.164834956658092
 20
-6.182581228467424
 10
-12.851961964732576
 20
-6.1834211908950065
 10
-12.57233926778986
 20
-6.170096189564768
 10
-12.32651626665612
 20
-6.14595150227838
 10
-12.114790204823217
 20
-6.114347612204555
 10
-11.937206241139071
 20
-6.078643325378748
 10
-11.793558581453102
 20
-6.042178944640507
 10
-11.68339266318902
 20
-6.008259563732162
 10
-11.606008383091712
 20
-5.980138544792308
 10
-11.56046435470464
 20
-5.961001241773889
 10
-11.54558317849136
 20
-5.953949031402382
 10
-11.465254356411506
 20
-5.91252421075694
 10
-10.853023345211806
 20
-6.972939428124093
 10
-10.9290627032779
 20
-7.021793818378605
 10
-10.942610684719096
 20
-7.031155189831743
 10
-10.981956089486506
 20
-7.06102882389642
 10
-11.045001746317375
 20
-7.113985066844331
 10
-11.129459750996682
 20
-7.192431860238094
 10
-11.232862660892254
 20
-7.298602192351203
 10
-11.35257546214948
 20
-7.434542272793504
 10
-11.485808264728275
 20
-7.602100475947122
 10
-11.62962967785159
 20
-7.802917096120277
 10
-11.780980815980396
 20
-8.038414954482265
 10
-11.936689883142643
 20
-8.309790894861598
 10
-12.093487281330695
 20
-8.618008202380215
 10
-10.587093321268124
 20
-10.413258616147006
 10
-10.25633094475297
 20
-10.312364696535285
 10
-9.962039218927483
 20
-10.206145137489125
 10
-9.703837252870944
 20
-10.097987137181681
 10
-9.481097162092366
 20
-9.99122213462697
 10
-9.292948911172621
 20
-9.8891096143226
 10
-9.13828615622622
 20
-9.794821266750374
 10
-9.015773063152524
 20
-9.711425564094927
 10
-8.923852074217454
 20
-9.641872808999445
 10
-8.860752592173458
 20
-9.58898071244265
 10
-8.824500547898488
 20
-9.555420554897921
 10
-8.812928814424279
 20
-9.543703982830266
 10
-8.751612536173809
 20
-9.47730330931143
 10
-7.81362020810452
 20
-10.264372325841492
 10
-7.868364646211589
 20
-10.336287428000809
 10
-7.877893806792299
 20
-10.349717922230054
 10
-7.904649008709608
 20
-10.391246876694444
 10
-7.945780445403144
 20
-10.462572352002496
 10
-7.998314625646618
 20
-10.56517456374435
 10
-8.059169184837016
 20
-10.700307919440203
 10
-8.125168174995464
 20
-10.868993999344788
 10
-8.193057775767391
 20
-11.072015508634069
 10
-8.259522367176572
 20
-11.309911225071685
 10
-8.321200903553903
 20
-11.582971962740649
 10
-8.374703526932047
 20
-11.891237568841882
 10
-8.41662835727482
 20
-12.234494966916998
 10
-6.387069265185577
 20
-13.406261455070975
 10
-6.110762053586965
 20
-13.198324787907223
 10
-5.870547519279363
 20
-12.997857353842024
 10
-5.664909251870588
 20
-12.80791180563653
 10
-5.4921178136887026
 20
-12.631403922805218
 10
-5.35024082951549
 20
-12.471099049239307
 10
-5.237153894132531
 20
-12.329599207185677
 10
-5.150552254796484
 20
-12.209330935142763
 10
-5.087963223065306
 20
-12.112533894613996
 10
-5.046759267858299
 20
-12.041250287889218
 10
-5.024171739258184
 20
-11.997315126113252
 10
-5.017305170360634
 20
-11.982347383858993
 10
-4.982397084028448
 20
-11.898979758662708
 10
-3.8317791571471296
 20
-12.317770435060593
 10
-3.8586256881176038
 20
-12.404072226450431
 10
-3.8629866704363605
 20
-12.419951927638746
 10
-3.8739245972876173
 20
-12.468127197692352
 10
-3.888180755543223
 20
-12.54921900038649
 10
-3.902454713891573
 20
-12.663601289492993
 10
-3.913420964420795
 20
-12.811398591718742
 10
-3.917745691225999
 20
-12.992484640307726
 10
-3.9121036023941667
 20
-13.206482065434018
 10
-3.893194761452368
 20
-13.452763143766873
 10
-3.8577613543128697
 20
-13.730451605832648
 10
-3.802604327912882
 20
-14.038425496044164
 10
-3.7245998371264397
 20
-14.37532107652826
 10
-1.4166703926185906
 20
-14.782271307166495
 10
-1.2281450735154524
 20
-14.492372123329028
 10
-1.0709811487521845
 20
-14.221836145377278
 10
-0.9427095899382747
 20
-13.973013285685052
 10
-0.8407080019278481
 20
-13.748051978225506
 10
-0.7622147426737387
 20
-13.548889884998065
 10
-0.7043435802468203
 20
-13.377245517729957
 10
-0.6640988304564217
 20
-13.234610804878608
 10
-0.638390916871648
 20
-13.1222446305765
 10
-0.6240522936052111
 20
-13.041167368688734
 10
-0.6178536699855459
 20
-12.99215643160564
 10
-0.616520475213463
 20
-12.975742849780993
 10
-0.6122310111997034
 20
-12.88546363888104
 10
0.6122310111996987
 20
-12.885463638881038
 10
0.6165204752134581
 20
-12.975742849780994
 10
0.6178536699855408
 20
-12.992156431605641
 10
0.624052293605206
 20
-13.041167368688736
 10
0.6383909168716428
 20
-13.1222446305765
 10
0.6640988304564166
 20
-13.234610804878606
 10
0.7043435802468156
 20
-13.377245517729959
 10
0.7622147426737338
 20
-13.548889884998067
 10
0.840708001927843
 20
-13.748051978225508
 10
0.9427095899382696
 20
-13.973013285685052
 10
1.0709811487521792
 20
-14.22183614537728
 10
1.2281450735154473
 20
-14.492372123329028
 10
1.416670392618585
 20
-14.782271307166496
 10
3.724599837126435
 20
-14.375321076528262
 10
3.802604327912877
 20
-14.038425496044164
 10
3.8577613543128644
 20
-13.73045160583265
 10
3.8931947614523637
 20
-13.452763143766877
 10
3.912103602394162
 20
-13.20648206543402
 10
3.9177456912259943
 20
-12.992484640307728
 10
3.9134209644207907
 20
-12.811398591718744
 10
3.9024547138915686
 20
-12.663601289492995
 10
3.8881807555432184
 20
-12.549219000386493
 10
3.873924597287613
 20
-12.468127197692354
 10
3.8629866704363556
 20
-12.419951927638747
 10
3.8586256881175984
 20
-12.404072226450433
 10
3.8317791571471256
 20
-12.317770435060595
 10
4.982397084028433
 20
-11.898979758662714
 10
5.01730517036062
 20
-11.982347383858997
 10
5.02417173925817
 20
-11.997315126113257
 10
5.046759267858284
 20
-12.041250287889223
 10
5.08796322306529
 20
-12.112533894614003
 10
5.150552254796468
 20
-12.209330935142768
 10
5.237153894132515
 20
-12.329599207185682
 10
5.350240829515474
 20
-12.471099049239312
 10
5.492117813688687
 20
-12.631403922805225
 10
5.664909251870572
 20
-12.807911805636538
 10
5.870547519279346
 20
-12.99785735384203
 10
6.110762053586948
 20
-13.19832478790723
 10
6.38706926518556
 20
-13.406261455070984
 10
8.416628357274805
 20
-12.234494966917007
 10
8.374703526932032
 20
-11.89123756884189
 10
8.321200903553887
 20
-11.582971962740658
 10
8.259522367176558
 20
-11.309911225071696
 10
8.193057775767377
 20
-11.07201550863408
 10
8.12516817499545
 20
-10.868993999344797
 10
8.059169184837002
 20
-10.700307919440212
 10
7.998314625646604
 20
-10.565174563744359
 10
7.9457804454031296
 20
-10.462572352002507
 10
7.904649008709595
 20
-10.391246876694453
 10
7.877893806792285
 20
-10.349717922230063
 10
7.868364646211575
 20
-10.33628742800082
 10
7.813620208104506
 20
-10.264372325841501
 10
8.751612536173802
 20
-9.47730330931144
 10
8.812928814424271
 20
-9.543703982830275
 10
8.824500547898479
 20
-9.555420554897928
 10
8.86075259217345
 20
-9.588980712442657
 10
8.923852074217447
 20
-9.641872808999453
 10
9.015773063152515
 20
-9.711425564094936
 10
9.138286156226211
 20
-9.79482126675038
 10
9.292948911172612
 20
-9.889109614322606
 10
9.481097162092356
 20
-9.991222134626979
 10
9.703837252870935
 20
-10.09798713718169
 10
9.962039218927474
 20
-10.206145137489134
 10
10.25633094475296
 20
-10.312364696535294
 10
10.587093321268116
 20
-10.413258616147013
 10
12.093487281330686
 20
-8.618008202380226
 10
11.936689883142634
 20
-8.309790894861607
 10
11.780980815980387
 20
-8.038414954482278
 10
11.629629677851584
 20
-7.802917096120287
 10
11.485808264728268
 20
-7.602100475947131
 10
11.352575462149474
 20
-7.4345422727935135
 10
11.232862660892245
 20
-7.298602192351213
 10
11.129459750996677
 20
-7.192431860238104
 10
11.045001746317368
 20
-7.113985066844341
 10
10.9819560894865
 20
-7.06102882389643
 10
10.94261068471909
 20
-7.031155189831753
 10
10.929062703277893
 20
-7.021793818378614
 10
10.853023345211799
 20
-6.972939428124102
 10
11.465254356411506
 20
-5.91252421075694
 10
11.54558317849136
 20
-5.953949031402382
 10
11.56046435470464
 20
-5.9610012417738885
 10
11.606008383091712
 20
-5.980138544792307
 10
11.68339266318902
 20
-6.008259563732162
 10
11.793558581453102
 20
-6.042178944640506
 10
11.937206241139071
 20
-6.0786433253787475
 10
12.114790204823217
 20
-6.114347612204554
 10
12.326516266656121
 20
-6.145951502278379
 10
12.57233926778986
 20
-6.170096189564768
 10
12.851961964732576
 20
-6.183421190895006
 10
13.164834956658092
 20
-6.1825812284674235
 10
13.510157673949282
 20
-6.164263104786272
 10
14.31169315839456
 20
-3.962062460381249
 10
14.058935272665847
 20
-3.726060799508872
 10
13.819800573240348
 20
-3.524306468343516
 10
13.597032014323307
 20
-3.3547760065851873
 10
13.393200764486526
 20
-3.2152599308070418
 10
13.210694602398616
 20
-3.1033750259851214
 10
13.051707120647011
 20
-3.016577324968363
 10
12.918227777044095
 20
-2.9521757253980585
 10
12.812032829760673
 20
-2.9073461913870404
 10
12.73467718946107
 20
-2.879146485249697
 10
12.687487218334843
 20
-2.864531372740818
 10
12.671554502541877
 20
-2.860368243620159
 10
12.583391693320937
 20
-2.840467125749156
 10
12.796017292132957
 20
-1.6346074328212137
  0
CIRCLE
  5
8F
330
17
100
AcDbEntity
  8
REFERENCE
  6
DASHED
100
AcDbCircle
 10
0.0
 20
0.0
 30
0.0
 40
14.85
  0
TEXT
  5
90
330
17
100
AcDbEntity
  8
TEXT
100
AcDbText
 10
20.0
 20
11.85
 30
0.0
 40
1.8
  1
tip dia da: Ø29.70
 11
20.0
 21
11.85
 31
0.0
100
AcDbText
  0
CIRCLE
  5
91
330
17
100
AcDbEntity
  8
REFERENCE
  6
DASHED
100
AcDbCircle
 10
0.0
 20
0.0
 30
0.0
 40
15.0
  0
TEXT
  5
92
330
17
100
AcDbEntity
  8
TEXT
100
AcDbText
 10
20.0
 20
12.0
 30
0.0
 40
1.8
  1
reference dia dB: Ø30.00
 11
20.0
 21
12.0
 31
0.0
100
AcDbText
  0
CIRCLE
  5
93
330
17
100
AcDbEntity
  8
REFERENCE
  6
DASHED
100
AcDbCircle
 10
0.0
 20
0.0
 30
0.0
 40
12.9
  0
TEXT
  5
94
330
17
100
AcDbEntity
  8
TEXT
100
AcDbText
 10
20.0
 20
9.9
 30
0.0
 40
1.8
  1
root dia df: Ø25.80
 11
20.0
 21
9.9
 31
0.0
100
AcDbText
  0
LINE
  5
95
330
17
100
AcDbEntity
  8
CENTER
  6
CENTER
100
AcDbLine
 10
-19.85
 20
0.0
 30
0.0
 11
19.85
 21
0.0
 31
0.0
  0
LINE
  5
96
330
17
100
AcDbEntity
  8
CENTER
  6
CENTER
100
AcDbLine
 10
0.0
 20
-19.85
 30
0.0
 11
0.0
 21
19.85
 31
0.0
  0
TEXT
  5
97
330
17
100
AcDbEntity
  8
TEXT
100
AcDbText
 10
-24.0
 20
-25.0
 30
0.0
 40
2.5
  1
DIN 5480 - W 30 x 1.5 x 18 x f8
 11
-24.0
 21
-25.0
 31
0.0
100
AcDbText
  0
TEXT
  5
98
330
17
100
AcDbEntity
  8
TEXT
100
AcDbText
 10
-24.0
 20
-29.0
 30
0.0
 40
2.0
  1
z=18, m=1.5, alpha=30 deg, class=f8
 11
-24.0
 21
-29.0
 31
0.0
100
AcDbText
  0
TEXT
  5
99
330
17
100
AcDbEntity
  8
TEXT
100
AcDbText
 10
-24.0
 20
-33.0
 30
0.0
 40
1.8
  1
Cross-section only. Verify da/df and tolerance values before manufacturing.
 11
-24.0
 21
-33.0
 31
0.0
100
AcDbText
  0
ENDSEC
  0
SECTION
  2
OBJECTS
  0
DICTIONARY
  5
A
330
0
100
AcDbDictionary
281
1
  3
ACAD_COLOR
350
B
  3
ACAD_GROUP
350
C
  3
ACAD_LAYOUT
350
D
  3
ACAD_MATERIAL
350
E
  3
ACAD_MLEADERSTYLE
350
F
  3
ACAD_MLINESTYLE
350
10
  3
ACAD_PLOTSETTINGS
350
11
  3
ACAD_PLOTSTYLENAME
350
12
  3
ACAD_SCALELIST
350
14
  3
ACAD_TABLESTYLE
350
15
  3
ACAD_VISUALSTYLE
350
16
  3
EZDXF_META
350
2D
  0
DICTIONARY
  5
B
330
A
100
AcDbDictionary
281
1
  0
DICTIONARY
  5
C
330
A
100
AcDbDictionary
281
1
  0
DICTIONARY
  5
D
330
A
100
AcDbDictionary
281
1
  3
Model
350
1A
  3
Layout1
350
1E
  0
DICTIONARY
  5
E
330
A
100
AcDbDictionary
281
1
  3
ByBlock
350
1F
  3
ByLayer
350
20
  3
Global
350
21
  0
DICTIONARY
  5
F
330
A
100
AcDbDictionary
281
1
  3
Standard
350
2C
  0
DICTIONARY
  5
10
330
A
100
AcDbDictionary
281
1
  3
Standard
350
22
  0
DICTIONARY
  5
11
330
A
100
AcDbDictionary
281
1
  0
ACDBDICTIONARYWDFLT
  5
12
330
A
100
AcDbDictionary
281
1
  3
Normal
350
13
100
AcDbDictionaryWithDefault
340
13
  0
ACDBPLACEHOLDER
  5
13
330
12
  0
DICTIONARY
  5
14
330
A
100
AcDbDictionary
281
1
  0
DICTIONARY
  5
15
330
A
100
AcDbDictionary
281
1
  0
DICTIONARY
  5
16
330
A
100
AcDbDictionary
281
1
  3
2dWireframe
350
5A
  3
Basic
350
5B
  3
Brighten
350
5C
  3
ColorChange
350
5D
  3
Conceptual
350
5E
  3
Dim
350
5F
  3
EdgeColorOff
350
60
  3
Facepattern
350
61
  3
Flat
350
62
  3
FlatWithEdges
350
63
  3
Gouraud
350
64
  3
GouraudWithEdges
350
65
  3
Hidden
350
66
  3
JitterOff
350
67
  3
Linepattern
350
68
  3
Modeling
350
69
  3
OverhangOff
350
6A
  3
Realistic
350
6B
  3
Shaded
350
6C
  3
Shaded with edges
350
6D
  3
Shades of Gray
350
6E
  3
Sketchy
350
6F
  3
Thicken
350
70
  3
Wireframe
350
71
  3
X-Ray
350
72
  0
LAYOUT
  5
1A
330
D
100
AcDbPlotSettings
  1

  4
A3
  6

 40
7.5
 41
20.0
 42
7.5
 43
20.0
 44
420.0
 45
297.0
 46
0.0
 47
0.0
 48
0.0
 49
0.0
140
0.0
141
0.0
142
1.0
143
1.0
 70
1024
 72
1
 73
0
 74
5
  7

 75
16
 76
0
 77
2
 78
300
147
1.0
148
0.0
149
0.0
100
AcDbLayout
  1
Model
 70
1
 71
0
 10
0.0
 20
0.0
 11
420.0
 21
297.0
 12
0.0
 22
0.0
 32
0.0
 14
1e+20
 24
1e+20
 34
1e+20
 15
-1e+20
 25
-1e+20
 35
-1e+20
146
0.0
 13
0.0
 23
0.0
 33
0.0
 16
1.0
 26
0.0
 36
0.0
 17
0.0
 27
1.0
 37
0.0
 76
1
330
17
  0
LAYOUT
  5
1E
330
D
100
AcDbPlotSettings
  1

  4
A3
  6

 40
7.5
 41
20.0
 42
7.5
 43
20.0
 44
420.0
 45
297.0
 46
0.0
 47
0.0
 48
0.0
 49
0.0
140
0.0
141
0.0
142
1.0
143
1.0
 70
0
 72
1
 73
0
 74
5
  7

 75
16
 76
0
 77
2
 78
300
147
1.0
148
0.0
149
0.0
100
AcDbLayout
  1
Layout1
 70
1
 71
1
 10
0.0
 20
0.0
 11
420.0
 21
297.0
 12
0.0
 22
0.0
 32
0.0
 14
1e+20
 24
1e+20
 34
1e+20
 15
-1e+20
 25
-1e+20
 35
-1e+20
146
0.0
 13
0.0
 23
0.0
 33
0.0
 16
1.0
 26
0.0
 36
0.0
 17
0.0
 27
1.0
 37
0.0
 76
1
330
1B
  0
MATERIAL
  5
1F
102
{ACAD_REACTORS
330
E
102
}
330
E
100
AcDbMaterial
  1
ByBlock
  2

 70
0
 40
1.0
 71
1
 41
1.0
 91
-1023410177
 42
1.0
 72
1
  3

 73
1
 74
1
 75
1
 44
0.5
 73
0
 45
1.0
 46
1.0
 77
1
  4

 78
1
 79
1
170
1
 48
1.0
171
1
  6

172
1
173
1
174
1
140
1.0
141
1.0
175
1
  7

176
1
177
1
178
1
143
1.0
179
1
  8

270
1
271
1
272
1
145
1.0
146
1.0
273
1
  9

274
1
275
1
276
1
 42
1.0
 72
1
  3

 73
1
 74
1
 75
1
 94
63
  0
MATERIAL
  5
20
102
{ACAD_REACTORS
330
E
102
}
330
E
100
AcDbMaterial
  1
ByLayer
  2

 70
0
 40
1.0
 71
1
 41
1.0
 91
-1023410177
 42
1.0
 72
1
  3

 73
1
 74
1
 75
1
 44
0.5
 73
0
 45
1.0
 46
1.0
 77
1
  4

 78
1
 79
1
170
1
 48
1.0
171
1
  6

172
1
173
1
174
1
140
1.0
141
1.0
175
1
  7

176
1
177
1
178
1
143
1.0
179
1
  8

270
1
271
1
272
1
145
1.0
146
1.0
273
1
  9

274
1
275
1
276
1
 42
1.0
 72
1
  3

 73
1
 74
1
 75
1
 94
63
  0
MATERIAL
  5
21
102
{ACAD_REACTORS
330
E
102
}
330
E
100
AcDbMaterial
  1
Global
  2

 70
0
 40
1.0
 71
1
 41
1.0
 91
-1023410177
 42
1.0
 72
1
  3

 73
1
 74
1
 75
1
 44
0.5
 73
0
 45
1.0
 46
1.0
 77
1
  4

 78
1
 79
1
170
1
 48
1.0
171
1
  6

172
1
173
1
174
1
140
1.0
141
1.0
175
1
  7

176
1
177
1
178
1
143
1.0
179
1
  8

270
1
271
1
272
1
145
1.0
146
1.0
273
1
  9

274
1
275
1
276
1
 42
1.0
 72
1
  3

 73
1
 74
1
 75
1
 94
63
  0
MLINESTYLE
  5
22
102
{ACAD_REACTORS
330
10
102
}
330
10
100
AcDbMlineStyle
  2
Standard
 70
0
  3

 62
256
 51
90.0
 52
90.0
 71
2
 49
0.5
 62
256
  6
BYLAYER
 49
-0.5
 62
256
  6
BYLAYER
  0
MLEADERSTYLE
  5
2C
102
{ACAD_REACTORS
330
F
102
}
330
F
100
AcDbMLeaderStyle
179
2
170
2
171
1
172
0
 90
2
 40
0.0
 41
0.0
173
1
 91
-1056964608
 92
-2
290
1
 42
2.0
291
1
 43
8.0
  3
Standard
 44
4.0
300

342
29
174
1
175
1
176
0
178
1
 93
-1056964608
 45
4.0
292
0
297
0
 46
4.0
 94
-1056964608
 47
1.0
 49
1.0
140
1.0
294
1
141
0.0
177
0
142
1.0
295
0
296
0
143
3.75
271
0
272
9
273
9
  0
DICTIONARY
  5
2D
330
A
100
AcDbDictionary
280
1
281
1
  3
CREATED_BY_EZDXF
350
2E
  3
WRITTEN_BY_EZDXF
350
9C
  0
DICTIONARYVAR
  5
2E
330
2D
100
DictionaryVariables
280
0
  1
1.4.4 @ 2026-05-26T13:37:06.413388+00:00
  0
VISUALSTYLE
  5
5A
102
{ACAD_REACTORS
330
16
102
}
330
16
100
AcDbVisualStyle
  2
2dWireframe
 70
4
 90
0
 40
0.6
 62
7
290
0
291
0
  0
VISUALSTYLE
  5
5B
102
{ACAD_REACTORS
330
16
102
}
330
16
100
AcDbVisualStyle
  2
Basic
 70
7
 90
1
 40
0.6
 62
7
290
0
291
1
  0
VISUALSTYLE
  5
5C
102
{ACAD_REACTORS
330
16
102
}
330
16
100
AcDbVisualStyle
  2
Brighten
 70
12
 90
2
 40
0.6
 62
7
290
0
291
1
  0
VISUALSTYLE
  5
5D
102
{ACAD_REACTORS
330
16
102
}
330
16
100
AcDbVisualStyle
  2
ColorChange
 70
16
 90
2
 40
0.6
 62
8
290
0
291
1
  0
VISUALSTYLE
  5
5E
102
{ACAD_REACTORS
330
16
102
}
330
16
100
AcDbVisualStyle
  2
Conceptual
 70
9
 90
3
 40
0.6
 62
7
290
0
291
0
  0
VISUALSTYLE
  5
5F
102
{ACAD_REACTORS
330
16
102
}
330
16
100
AcDbVisualStyle
  2
Dim
 70
11
 90
2
 40
0.6
 62
7
290
0
291
1
  0
VISUALSTYLE
  5
60
102
{ACAD_REACTORS
330
16
102
}
330
16
100
AcDbVisualStyle
  2
EdgeColorOff
 70
22
 90
2
 40
0.6
 62
7
290
0
291
1
  0
VISUALSTYLE
  5
61
102
{ACAD_REACTORS
330
16
102
}
330
16
100
AcDbVisualStyle
  2
Facepattern
 70
15
 90
2
 40
0.6
 62
7
290
0
291
1
  0
VISUALSTYLE
  5
62
102
{ACAD_REACTORS
330
16
102
}
330
16
100
AcDbVisualStyle
  2
Flat
 70
0
 90
2
 40
0.6
 62
7
290
0
291
1
  0
VISUALSTYLE
  5
63
102
{ACAD_REACTORS
330
16
102
}
330
16
100
AcDbVisualStyle
  2
FlatWithEdges
 70
1
 90
2
 40
0.6
 62
7
290
0
291
1
  0
VISUALSTYLE
  5
64
102
{ACAD_REACTORS
330
16
102
}
330
16
100
AcDbVisualStyle
  2
Gouraud
 70
2
 90
2
 40
0.6
 62
7
290
0
291
1
  0
VISUALSTYLE
  5
65
102
{ACAD_REACTORS
330
16
102
}
330
16
100
AcDbVisualStyle
  2
GouraudWithEdges
 70
3
 90
2
 40
0.6
 62
7
290
0
291
1
  0
VISUALSTYLE
  5
66
102
{ACAD_REACTORS
330
16
102
}
330
16
100
AcDbVisualStyle
  2
Hidden
 70
6
 90
1
 40
0.6
 62
7
290
0
291
0
  0
VISUALSTYLE
  5
67
102
{ACAD_REACTORS
330
16
102
}
330
16
100
AcDbVisualStyle
  2
JitterOff
 70
20
 90
2
 40
0.6
 62
7
290
0
291
1
  0
VISUALSTYLE
  5
68
102
{ACAD_REACTORS
330
16
102
}
330
16
100
AcDbVisualStyle
  2
Linepattern
 70
14
 90
2
 40
0.6
 62
7
290
0
291
1
  0
VISUALSTYLE
  5
69
102
{ACAD_REACTORS
330
16
102
}
330
16
100
AcDbVisualStyle
  2
Modeling
 70
10
 90
2
 40
0.6
 62
7
290
0
291
0
  0
VISUALSTYLE
  5
6A
102
{ACAD_REACTORS
330
16
102
}
330
16
100
AcDbVisualStyle
  2
OverhangOff
 70
21
 90
2
 40
0.6
 62
7
290
0
291
1
  0
VISUALSTYLE
  5
6B
102
{ACAD_REACTORS
330
16
102
}
330
16
100
AcDbVisualStyle
  2
Realistic
 70
8
 90
2
 40
0.6
 62
7
290
0
291
0
  0
VISUALSTYLE
  5
6C
102
{ACAD_REACTORS
330
16
102
}
330
16
100
AcDbVisualStyle
  2
Shaded
 70
27
 90
2
 40
0.6
 62
7
290
0
291
0
  0
VISUALSTYLE
  5
6D
102
{ACAD_REACTORS
330
16
102
}
330
16
100
AcDbVisualStyle
  2
Shaded with edges
 70
26
 90
2
 40
0.6
 62
7
290
0
291
0
  0
VISUALSTYLE
  5
6E
102
{ACAD_REACTORS
330
16
102
}
330
16
100
AcDbVisualStyle
  2
Shades of Gray
 70
23
 90
2
 40
0.6
 62
7
290
0
291
0
  0
VISUALSTYLE
  5
6F
102
{ACAD_REACTORS
330
16
102
}
330
16
100
AcDbVisualStyle
  2
Sketchy
 70
24
 90
1
 40
0.6
 62
7
290
0
291
0
  0
VISUALSTYLE
  5
70
102
{ACAD_REACTORS
330
16
102
}
330
16
100
AcDbVisualStyle
  2
Thicken
 70
13
 90
2
 40
0.6
 62
7
290
0
291
1
  0
VISUALSTYLE
  5
71
102
{ACAD_REACTORS
330
16
102
}
330
16
100
AcDbVisualStyle
  2
Wireframe
 70
5
 90
0
 40
0.6
 62
7
290
0
291
0
  0
VISUALSTYLE
  5
72
102
{ACAD_REACTORS
330
16
102
}
330
16
100
AcDbVisualStyle
  2
X-Ray
 70
25
 90
2
 40
0.5
 62
7
290
0
291
0
  0
DICTIONARYVAR
  5
9C
330
2D
100
DictionaryVariables
280
0
  1
1.4.4 @ 2026-05-26T13:37:06.421391+00:00
  0
ENDSEC
  0
EOF
